<?xml version="1.0" standalone="no"?>
<!DOCTYPE svg PUBLIC "-//W3C//DTD SVG 1.1//EN" "http://www.w3.org/Graphics/SVG/1.1/DTD/svg11.dtd" >
<svg>
<metadata>
Created by FontForge 20090914 at Fri Dec 11 09:55:09 2015
 By www-data
Copyright (c) ParaType, Inc., 2002. All rights reserved.
</metadata>
<defs>
<font id="MagistralTT-Bold" horiz-adv-x="659" >
  <font-face 
    font-family="MagistralTT"
    font-weight="700"
    font-stretch="normal"
    units-per-em="1000"
    panose-1="2 0 8 3 5 0 0 2 0 4"
    ascent="800"
    descent="-200"
    x-height="529.999"
    cap-height="700.001"
    bbox="-459 -297.992 1209 999"
    underline-thickness="50"
    underline-position="-75"
    unicode-range="U+0002-U+F6E2"
  />
<missing-glyph horiz-adv-x="500" 
d="M50 0h400v512h-400v-512zM58 8v496h384v-496h-384z" />
    <glyph glyph-name=".notdef" horiz-adv-x="500" 
d="M50 0h400v512h-400v-512zM58 8v496h384v-496h-384z" />
    <glyph glyph-name="nonmarkingreturn" horiz-adv-x="233" 
 />
    <glyph glyph-name="space" unicode=" " horiz-adv-x="233" 
 />
    <glyph glyph-name="exclam" unicode="!" horiz-adv-x="258" 
d="M68 0h122v124h-122v-124zM189 195l9 505h-138l9 -505h120z" />
    <glyph glyph-name="quotedbl" unicode="&#x22;" horiz-adv-x="389" 
d="M66 451h98l5 249h-109zM226 451h98l5 249h-109z" />
    <glyph glyph-name="numbersign" unicode="#" horiz-adv-x="874" 
d="M101 0h99l73 179h187l-72 -179h100l72 179h133l35 87h-133l71 176h133l35 86h-133l69 172h-100l-69 -172h-188l69 172h-100l-69 -172h-133l-35 -86h133l-71 -176h-133l-34 -86h132zM495 266h-188l71 176h188z" />
    <glyph glyph-name="dollar" unicode="$" horiz-adv-x="670" 
d="M66 0l227.999 -0.000976562v-68h78v68h66c11.333 0 23.333 0.166992 36 0.5s25.334 1.5 38.001 3.5s25 5.16699 37 9.5s23 10.5 33 18.5c11.333 8.66699 20.166 18.5 26.499 29.5s11.166 22.5 14.499 34.5s5.33301 24.333 6 37s1 25.334 1 38.001
c0 22.667 -1.5 43.5 -4.5 62.5s-11.833 38.167 -26.5 57.5c-16.667 22 -34.5 37 -53.5 45s-37.5 15 -55.5 21l-118 38v200h214v105h-214v68h-78v-68h-81c-11.333 0 -23.166 -0.5 -35.499 -1.5s-24.666 -3 -36.999 -6s-24.333 -7.66699 -36 -14s-22.167 -14.833 -31.5 -25.5
c-14.667 -16.667 -23.834 -35.5 -27.501 -56.5s-5.5 -41.833 -5.5 -62.5c0 -16 1.33301 -33.5 4 -52.5s9.33398 -37.5 20.001 -55.5c13.333 -22 28 -37.167 44 -45.5s33.333 -15.5 52 -21.5l134 -43v-211h-228v-105zM371.999 104.999l0.000976562 185.999l50 -16
c29.333 -9.33301 48.666 -22.5 57.999 -39.5s14 -35.167 14 -54.5c0 -14 -2 -25.833 -6 -35.5s-9 -17.167 -15 -22.5c-8.66699 -7.33301 -21 -12.166 -37 -14.499s-29.333 -3.5 -40 -3.5h-24zM294 419.998l-65.999 21.002c-4.66699 1.33301 -10 3.33301 -16 6
s-11.667 6.66699 -17 12s-9.83301 12.166 -13.5 20.499s-5.5 18.833 -5.5 31.5c0 10 1.16699 21.167 3.5 33.5s7.16602 22.166 14.499 29.499c6 6 15 11 27 15s27.333 6 46 6h27v-175z" />
    <glyph glyph-name="percent" unicode="%" horiz-adv-x="817" 
d="M188 0h88l357 700h-88zM215 706c-18.667 0 -38.667 -1.83301 -60 -5.5s-40 -13.167 -56 -28.5c-9.33301 -8.66699 -16.5 -18.667 -21.5 -30s-8.83301 -23 -11.5 -35s-4.33398 -24 -5.00098 -36s-1 -23 -1 -33c0 -11.333 0.333008 -23 1 -35
s2.33398 -23.833 5.00098 -35.5s6.5 -23 11.5 -34s12.167 -20.833 21.5 -29.5c16 -15.333 34.667 -24.833 56 -28.5s41.333 -5.5 60 -5.5c18 0 37.667 1.83301 59 5.5s40 13.167 56 28.5c8.66699 8.66699 15.667 18.5 21 29.5s9.33301 22.5 12 34.5s4.5 24 5.5 36
s1.5 23.333 1.5 34c0 10 -0.5 21.167 -1.5 33.5s-2.83301 24.5 -5.5 36.5s-6.66699 23.5 -12 34.5s-12.333 20.833 -21 29.5c-16 15.333 -34.667 24.833 -56 28.5s-41 5.5 -59 5.5zM142 538c0 22 1.5 39.1689 4.5 51.502s7.16699 21.833 12.5 28.5
c7.33301 9.33301 16.166 15.166 26.499 17.499s20.166 3.5 29.499 3.5c8.66699 0 18 -1.16699 28 -3.5s19 -8.16602 27 -17.499c9.33301 -10.667 14.666 -23.834 15.999 -39.501s2 -29.167 2 -40.5s-0.666992 -24.833 -2 -40.5s-6.66602 -28.834 -15.999 -39.501
c-8 -9.33301 -17 -15.166 -27 -17.499s-19.333 -3.5 -28 -3.5c-9.33301 0 -19.166 1.16699 -29.499 3.5s-19.166 8.16602 -26.499 17.499c-5.33301 6.66699 -9.5 16.167 -12.5 28.5s-4.5 29.5 -4.5 51.5zM602 330.002c-18.667 0 -38.667 -1.83301 -60 -5.5
s-40 -13.167 -56 -28.5c-9.33301 -8.66699 -16.5 -18.667 -21.5 -30s-8.83301 -23 -11.5 -35s-4.33398 -24 -5.00098 -36s-1 -23 -1 -33c0 -11.333 0.333008 -23 1 -35s2.33398 -23.833 5.00098 -35.5s6.5 -23 11.5 -34s12.167 -20.833 21.5 -29.5
c16 -15.333 34.667 -24.833 56 -28.5s41.333 -5.5 60 -5.5c18 0 37.667 1.83301 59 5.5s40 13.167 56 28.5c8.66699 8.66699 15.667 18.5 21 29.5s9.33301 22.5 12 34.5s4.5 24 5.5 36s1.5 23.333 1.5 34c0 10 -0.5 21.167 -1.5 33.5s-2.83301 24.5 -5.5 36.5
s-6.66699 23.5 -12 34.5s-12.333 20.833 -21 29.5c-16 15.333 -34.667 24.833 -56 28.5s-41 5.5 -59 5.5zM529 162.002c0 22 1.5 39.1689 4.5 51.502s7.16699 21.833 12.5 28.5c7.33301 9.33301 16.166 15.166 26.499 17.499s20.166 3.5 29.499 3.5
c8.66699 0 18 -1.16699 28 -3.5s19 -8.16602 27 -17.499c9.33301 -10.667 14.666 -23.834 15.999 -39.501s2 -29.167 2 -40.5s-0.666992 -24.833 -2 -40.5s-6.66602 -28.834 -15.999 -39.501c-8 -9.33301 -17 -15.166 -27 -17.499s-19.333 -3.5 -28 -3.5
c-9.33301 0 -19.166 1.16699 -29.499 3.5s-19.166 8.16602 -26.499 17.499c-5.33301 6.66699 -9.5 16.167 -12.5 28.5s-4.5 29.5 -4.5 51.5z" />
    <glyph glyph-name="ampersand" unicode="&#x26;" horiz-adv-x="745" 
d="M620 303l104.997 -0.00292969v94h-419c-4.66699 0 -10.667 0.166992 -18 0.5s-15 1.16602 -23 2.49902s-15.833 3.5 -23.5 6.5s-14.5 7.16699 -20.5 12.5s-10.667 11.833 -14 19.5s-6 15.5 -8 23.5s-3.16699 15.5 -3.5 22.5s-0.5 12.5 -0.5 16.5
c0 22.667 2.33301 40.167 7 52.5s10.667 21.166 18 26.499c8 6 19.5 10.167 34.5 12.5s29.167 3.5 42.5 3.5h315v104h-366c-25.333 0 -50.166 -2.16699 -74.499 -6.5s-46.166 -16.166 -65.499 -35.499c-10.667 -10.667 -19 -22.334 -25 -35.001s-10.5 -25.334 -13.5 -38.001
s-4.83301 -25.167 -5.5 -37.5s-1 -23.166 -1 -32.499c0 -21.333 2.16699 -42.5 6.5 -63.5s13.5 -40.5 27.5 -58.5c10 -13.333 21 -23.166 33 -29.499s24.667 -10.166 38 -11.499v-2c-21.333 -3.33301 -38.5 -9.83301 -51.5 -19.5s-22.5 -18.5 -28.5 -26.5
c-12.667 -17.333 -20.167 -35.833 -22.5 -55.5s-3.5 -37.167 -3.5 -52.5c0 -23.333 2 -47.666 6 -72.999s15.333 -49 34 -71c10.667 -13.333 22.334 -23.5 35.001 -30.5s25.5 -12.167 38.5 -15.5s25.667 -5.16602 38 -5.49902s24.166 -0.5 35.499 -0.5h233
c6.66699 0 14.834 0.166992 24.501 0.5s19.667 1.33301 30 3s20.5 4.33398 30.5 8.00098s18.667 9.16699 26 16.5c13.333 13.333 21.5 30 24.5 50s4.5 38.333 4.5 55v170zM443.997 103.997l-157.004 -0.00195312c-11.333 0 -24.666 1.33301 -39.999 4s-27.666 10 -36.999 22
c-1.33301 2 -4.33301 8.16699 -9 18.5s-7 27.833 -7 52.5v12c0 6 0.333008 12.5 1 19.5s1.83398 14 3.50098 21s3.83398 12.833 6.50098 17.5c3.33301 5.33301 10 11.833 20 19.5s26 11.5 48 11.5h218v-161c0 -5.33301 -0.333008 -10.666 -1 -15.999
s-2.66699 -9.66602 -6 -12.999s-8.5 -5.5 -15.5 -6.5s-15.167 -1.5 -24.5 -1.5z" />
    <glyph glyph-name="quotesingle" unicode="'" horiz-adv-x="230" 
d="M66 451h98l6 249h-110z" />
    <glyph glyph-name="parenleft" unicode="(" horiz-adv-x="372" 
d="M151 409c0 20.667 1.00098 42.666 3.00098 65.999s9.66699 45.666 23 66.999s33.166 39.833 59.499 55.5s58.166 23.834 95.499 24.501v84c-23.333 0 -45.166 -2.16699 -65.499 -6.5s-38.666 -10 -54.999 -17s-31 -14.833 -44 -23.5s-24.167 -17.334 -33.5 -26.001
c-18 -16.667 -31.833 -34.167 -41.5 -52.5s-17.167 -38.166 -22.5 -59.499c-5.33301 -23.333 -8.33301 -45.833 -9 -67.5s-1 -43.167 -1 -64.5v-230c0 -22 0.333008 -43.167 1 -63.5s3.33398 -41.166 8.00098 -62.499c5.33301 -24 12.666 -45 21.999 -63
s23.666 -36 42.999 -54c16.667 -16 33.834 -29 51.501 -39s35 -17.667 52 -23s33.5 -8.83301 49.5 -10.5s31 -2.5 45 -2.5v84c-37.333 1.33301 -69.333 10 -96 26s-46.334 34.333 -59.001 55c-13.333 21.333 -21 43.833 -23 67.5s-3 45.167 -3 64.5v271z" />
    <glyph glyph-name="parenright" unicode=")" horiz-adv-x="372" 
d="M222 409l-0.000976562 -270.997c0 -34 -2.5 -61.333 -7.5 -82s-11.167 -37.334 -18.5 -50.001c-12.667 -21.333 -32.667 -39.833 -60 -55.5s-59.333 -24.167 -96 -25.5v-84c28 -0.666992 59.5 3.66602 94.5 12.999s69.833 30 104.5 62c19.333 18 33.5 36 42.5 54
s16.167 39 21.5 63c4.66699 22.667 7.33398 43.834 8.00098 63.501s1 40.5 1 62.5v230c0 22.667 -0.333008 44.334 -1 65.001s-3.66699 43 -9 67c-6 25.333 -14 46.666 -24 63.999s-23 33.333 -39 48c-23.333 21.333 -52.333 38.666 -87 51.999s-72 20.333 -112 21v-84
c36.667 -0.666992 68.667 -8.83398 96 -24.501s47.333 -34.167 60 -55.5c17.333 -28.667 26 -73 26 -133z" />
    <glyph glyph-name="asterisk" unicode="*" horiz-adv-x="511" 
d="M40 450l38 -66l142 82v-164h72v164l142 -82l36 63l-141 82l142 82l-38 66l-142 -82v163h-72v-164l-143 82l-36 -62l142 -82z" />
    <glyph glyph-name="plus" unicode="+" horiz-adv-x="579" 
d="M335 84v184h184v85h-184v184h-91v-184h-184v-85h184v-184h91z" />
    <glyph glyph-name="comma" unicode="," horiz-adv-x="278" 
d="M89 -116l129 199l-96 57l-122 -203z" />
    <glyph glyph-name="hyphen" unicode="-" horiz-adv-x="437" 
d="M40 218h357v103h-357v-103z" />
    <glyph glyph-name="period" unicode="." horiz-adv-x="242" 
d="M182 0v129h-122v-129h122z" />
    <glyph glyph-name="slash" unicode="/" horiz-adv-x="507" 
d="M69 -166l438 906h-69l-438 -906h69z" />
    <glyph glyph-name="zero" unicode="0" horiz-adv-x="644" 
d="M40 253c0 -14.667 0.832031 -32.1689 2.49902 -52.502s5.33398 -41 11.001 -62s14 -41.167 25 -60.5s26.167 -35.666 45.5 -48.999c14 -10 29.833 -17.333 47.5 -22s35.5 -7.83398 53.5 -9.50098s35.333 -2.5 52 -2.5h45h44c17.333 0 35 0.833008 53 2.5
s35.833 4.83398 53.5 9.50098s33.5 12 47.5 22c10 6.66699 20 15.834 30 27.501s19 26.5 27 44.5s14.5 39.5 19.5 64.5s7.5 54.167 7.5 87.5v201c0 28.667 -2.33301 53.834 -7 75.501s-10.5 40.667 -17.5 57s-14.833 30 -23.5 41s-17 20.167 -25 27.5
c-14 12 -29.167 21.5 -45.5 28.5s-33.5 12.333 -51.5 16s-36.5 5.83398 -55.5 6.50098s-37.833 1 -56.5 1c-19.333 0 -38.333 -0.333008 -57 -1s-37 -2.83398 -55 -6.50098s-35.167 -9 -51.5 -16s-31.5 -16.5 -45.5 -28.5c-8 -7.33301 -16.333 -16.5 -25 -27.5
s-16.5 -24.667 -23.5 -41s-12.833 -35.333 -17.5 -57s-7 -46.834 -7 -75.501v-201zM171.999 447.998c0 8 0.333984 17.5 1.00098 28.5s2.5 22.167 5.5 33.5s7.5 22.5 13.5 33.5s14.333 20.833 25 29.5c13.333 11.333 30.333 19 51 23s38.667 6 54 6s33.333 -2 54 -6
s37.667 -11.667 51 -23c10.667 -8.66699 19 -18.5 25 -29.5s10.5 -22.167 13.5 -33.5s4.83301 -22.5 5.5 -33.5s1 -20.5 1 -28.5v-180c0 -20.667 -1.5 -43.667 -4.5 -69s-11.5 -46.333 -25.5 -63c-8 -9.33301 -17 -16.333 -27 -21s-20.333 -8.16699 -31 -10.5
s-21.334 -3.66602 -32.001 -3.99902s-20.667 -0.5 -30 -0.5s-19.333 0.166992 -30 0.5s-21.5 1.66602 -32.5 3.99902s-21.5 5.83301 -31.5 10.5s-19 11.667 -27 21c-10.667 12.667 -18.167 29.667 -22.5 51s-6.5 48.333 -6.5 81v180z" />
    <glyph glyph-name="one" unicode="1" horiz-adv-x="302" 
d="M110 0l132.002 -0.000976562v612c0 10.667 -1.33301 22.334 -4 35.001s-10 24 -22 34c-16 12.667 -37.667 19 -65 19h-151v-105h77c5.33301 0 10.166 -0.5 14.499 -1.5s8.16602 -4.16699 11.499 -9.5c3.33301 -4.66699 5.33301 -10.5 6 -17.5s1 -13.5 1 -19.5v-547z" />
    <glyph glyph-name="two" unicode="2" horiz-adv-x="626" 
d="M114 0l442.999 0.00488281v105h-348c-3.33301 0 -5.5 0.666992 -6.5 2s-1.5 2.66602 -1.5 3.99902c0 2.66699 1.5 5 4.5 7s5.16699 3.66699 6.5 5l282 196c10.667 7.33301 21.334 15.166 32.001 23.499s20.334 19.166 29.001 32.499c7.33301 10.667 13 22.334 17 35.001
s7 25.167 9 37.5s3.33301 24.166 4 35.499s1 21.666 1 30.999c0 25.333 -2.33301 51.166 -7 77.499s-16 48.833 -34 67.5c-9.33301 9.33301 -19.166 16.666 -29.499 21.999s-20.833 9.5 -31.5 12.5s-20.834 4.83301 -30.501 5.5s-18.5 1 -26.5 1h-340v-105h279
c20 0 35.5 -2.5 46.5 -7.5s19.167 -10.5 24.5 -16.5c7.33301 -9.33301 11.666 -20.833 12.999 -34.5s2 -26.167 2 -37.5c0 -20 -2 -38.167 -6 -54.5s-17 -31.833 -39 -46.5l-324 -222c-10.667 -7.33301 -20.5 -17.5 -29.5 -30.5s-13.5 -33.5 -13.5 -61.5
c0 -20.667 3.16699 -36.667 9.5 -48s13.833 -19.666 22.5 -24.999s17 -8.5 25 -9.5s13.667 -1.5 17 -1.5z" />
    <glyph glyph-name="three" unicode="3" horiz-adv-x="619" 
d="M40 0l373.998 -0.00292969c20.667 0 41.167 2.33301 61.5 7s39.5 16 57.5 34c20.667 20.667 33.5 43.834 38.5 69.501s7.5 53.167 7.5 82.5c0 9.33301 -0.333008 19.666 -1 30.999s-2.16699 22.833 -4.5 34.5s-6.16602 23 -11.499 34s-12.666 21.167 -21.999 30.5
c-8.66699 8 -19.5 15 -32.5 21s-27.5 9.33301 -43.5 10v3c17.333 1.33301 32 5.83301 44 13.5s21.333 15.167 28 22.5c15.333 17.333 24.666 37 27.999 59s5 43.333 5 64c0 18.667 -1.66699 40.334 -5 65.001s-12.666 47 -27.999 67c-10 12.667 -20.667 22.5 -32 29.5
s-23 12.167 -35 15.5s-23.667 5.33301 -35 6s-21.666 1 -30.999 1h-351v-105h299c10 0 20.667 -1.16699 32 -3.5s21.666 -8.16602 30.999 -17.499c8.66699 -9.33301 14 -20.5 16 -33.5s3 -25.833 3 -38.5c0 -12 -1 -24.833 -3 -38.5s-7.33301 -25.167 -16 -34.5
c-10 -11.333 -22.167 -18 -36.5 -20s-26.833 -3 -37.5 -3h-282v-105h290c6.66699 0 16.667 -0.833008 30 -2.5s25.333 -6.5 36 -14.5c14 -10.667 22.333 -23.334 25 -38.001s4 -30 4 -46c0 -15.333 -1.5 -30.666 -4.5 -45.999s-11.833 -27.666 -26.5 -36.999
c-9.33301 -6 -21.333 -9.5 -36 -10.5s-33 -1.5 -55 -1.5h-281v-105z" />
    <glyph glyph-name="four" unicode="4" horiz-adv-x="693" 
d="M442 0h131.996v118h89v105h-89v409c0 8.66699 -0.5 17.5 -1.5 26.5s-6.16699 18.167 -15.5 27.5s-19.666 15.333 -30.999 18s-22 4 -32 4c-11.333 0 -26.166 -2.16699 -44.499 -6.5s-35.833 -15.5 -52.5 -33.5l-338 -362c-17.333 -18.667 -28.166 -35.167 -32.499 -49.5
s-6.5 -28.166 -6.5 -41.499c0 -20 2.5 -36 7.5 -48s10.5 -21.333 16.5 -28c10.667 -10.667 21.334 -16.834 32.001 -18.501s20.667 -2.5 30 -2.5h336v-118zM441.996 223h-278c-8 0 -13 1.5 -15 4.5s-3 5.5 -3 7.5c0 2.66699 1.33301 5.5 4 8.5s5.33398 5.83301 8.00098 8.5
l268 297c4 4.66699 6.66699 7.5 8 8.5s2.66602 1.5 3.99902 1.5c2.66699 0 4 -1.33301 4 -4v-332z" />
    <glyph glyph-name="five" unicode="5" horiz-adv-x="618" 
d="M44 0l352.996 0.00195312c9.33301 0 19.5 0.166992 30.5 0.5s22.5 1.83301 34.5 4.5s23.833 6.66699 35.5 12s22.5 13 32.5 23c10.667 10.667 19.334 23 26.001 37s11.5 28.667 14.5 44s5 31.166 6 47.499s1.5 32.5 1.5 48.5c0 24 -1.66699 48.333 -5 73
s-13.666 48 -30.999 70s-36.166 36.333 -56.499 43s-41.166 10 -62.499 10h-193c-7.33301 0 -15.666 0.833008 -24.999 2.5s-16.666 5.16699 -21.999 10.5c-5.33301 6 -8.5 13.333 -9.5 22s-1.5 16.667 -1.5 24v87c0 4 0.166992 8.66699 0.5 14
s2.16602 9.66602 5.49902 12.999c2.66699 3.33301 6.5 5.66602 11.5 6.99902s10.167 2 15.5 2h350v105h-422c-3.33301 0 -7.83301 -0.166992 -13.5 -0.5s-11.834 -1.33301 -18.501 -3s-13.334 -4.16699 -20.001 -7.5s-13 -8 -19 -14
c-5.33301 -5.33301 -10.333 -13.166 -15 -23.499s-7 -24.166 -7 -41.499v-177c0 -6 0.333008 -13.5 1 -22.5s2.16699 -18.5 4.5 -28.5s6.16602 -19.833 11.499 -29.5s13 -17.834 23 -24.501c6.66699 -5.33301 14.5 -9.33301 23.5 -12s18 -4.5 27 -5.5
s17.833 -1.66699 26.5 -2s16.334 -0.5 23.001 -0.5h186c18.667 0 32.667 -3 42 -9s15.666 -11.667 18.999 -17c6.66699 -9.33301 10.834 -21 12.501 -35s2.5 -25.667 2.5 -35c0 -13.333 -1.16699 -27.5 -3.5 -42.5s-6.16602 -26.5 -11.499 -34.5
c-9.33301 -14 -21 -22.5 -35 -25.5s-26 -4.5 -36 -4.5h-312v-105z" />
    <glyph glyph-name="six" unicode="6" horiz-adv-x="639" 
d="M192 429l0.000976562 75.002c0 6.66699 1 16.834 3 30.501s8.66699 26.167 20 37.5s24.333 18 39 20s26.667 3 36 3h274v105h-321c-16 0 -35.5 -2 -58.5 -6s-44.167 -13.667 -63.5 -29c-6 -5.33301 -12.667 -12 -20 -20s-14 -18 -20 -30s-11 -26 -15 -42
s-6 -34.333 -6 -55v-325c0 -32 4 -61.833 12 -89.5s24.667 -50.834 50 -69.501c13.333 -10 29.833 -18.167 49.5 -24.5s41.5 -9.5 65.5 -9.5h175c14 0 28.333 1 43 3s29 5.5 43 10.5s27.167 12.167 39.5 21.5s22.833 21.666 31.5 36.999c6.66699 12 12 25.167 16 39.5
s7 28.833 9 43.5s3.33301 28.334 4 41.001s1 23 1 31c0 11.333 -0.5 24.166 -1.5 38.499s-3.16699 28.833 -6.5 43.5s-8.83301 29.167 -16.5 43.5s-17.834 27.166 -30.501 38.499c-20 18 -41.167 28.833 -63.5 32.5s-43.5 5.5 -63.5 5.5h-225zM192.001 324.002
l164.999 0.000976562c13.333 0 27.5 -1.33301 42.5 -4s28.167 -10 39.5 -22c11.333 -11.333 18.166 -24.166 20.499 -38.499s3.5 -27.833 3.5 -40.5c0 -12 -1 -26.333 -3 -43s-8.66699 -31.334 -20 -44.001s-23.833 -20.334 -37.5 -23.001s-25.167 -4 -34.5 -4h-85
c-21.333 0 -37.333 2.33301 -48 7s-18.667 9.66699 -24 15c-4.66699 4.66699 -8.16699 10.5 -10.5 17.5s-4.16602 13.833 -5.49902 20.5s-2.16602 13 -2.49902 19s-0.5 11 -0.5 15v125z" />
    <glyph glyph-name="seven" unicode="7" horiz-adv-x="538" 
d="M32 0l147.001 -0.00195312l345 546c8 12.667 14 25.167 18 37.5s6 26.833 6 43.5c0 8.66699 -0.833008 17.5 -2.5 26.5s-5.33398 16.833 -11.001 23.5s-13.5 12.167 -23.5 16.5s-23.333 6.5 -40 6.5h-481v-105h393c4 0 8.5 -0.5 13.5 -1.5s7.5 -4.83301 7.5 -11.5
c0 -3.33301 -0.666992 -6.66602 -2 -9.99902s-4.33301 -8.66602 -9 -15.999z" />
    <glyph glyph-name="eight" unicode="8" horiz-adv-x="633" 
d="M264 700c-9.33301 0 -20.998 -0.333984 -34.998 -1.00098s-28.5 -2.16699 -43.5 -4.5s-29.833 -6.16602 -44.5 -11.499s-27.334 -13 -38.001 -23c-11.333 -10 -20.166 -22 -26.499 -36s-11 -28.167 -14 -42.5s-4.83301 -28.166 -5.5 -41.499s-1 -24.333 -1 -33
c0 -18.667 1.66699 -38.334 5 -59.001s14.333 -40.667 33 -60c16.667 -18 36 -28.333 58 -31v-2c-11.333 -1.33301 -23.5 -4.5 -36.5 -9.5s-24.167 -11.833 -33.5 -20.5c-10 -9.33301 -17.833 -19.833 -23.5 -31.5s-9.83398 -23.834 -12.501 -36.501
s-4.33398 -25.167 -5.00098 -37.5s-1 -23.833 -1 -34.5c0 -22 1.66699 -43.333 5 -64s12 -40.667 26 -60c11.333 -15.333 23.833 -27 37.5 -35s27.834 -14 42.501 -18s29.667 -6.33301 45 -7s30.333 -1 45 -1h151c14.667 0 29.667 0.333008 45 1s30.333 3 45 7
s28.834 10 42.501 18s26.167 19.667 37.5 35c15.333 19.333 24.333 39 27 59s4 41.667 4 65c0 10.667 -0.333008 22.167 -1 34.5s-2.33398 24.833 -5.00098 37.5s-6.83398 24.834 -12.501 36.501s-13.5 22.167 -23.5 31.5c-8 7.33301 -18.333 13.666 -31 18.999
s-25.667 9 -39 11v2c22 2.66699 41.333 13 58 31c18.667 19.333 29.667 39.333 33 60s5 40.334 5 59.001c0 9.33301 -0.333008 20.666 -1 33.999s-2.5 27 -5.5 41s-7.66699 27.833 -14 41.5s-15.5 25.834 -27.5 36.501c-10 9.33301 -21.5 16.666 -34.5 21.999
s-26.667 9.33301 -41 12s-28.833 4.33398 -43.5 5.00098s-28.667 1 -42 1h-104zM274.002 406.999c-9.33301 0 -20.8301 0.999023 -34.4971 2.99902s-25.167 9.66699 -34.5 23c-8.66699 12.667 -13 35 -13 67c0 10.667 1 23.667 3 39s9.33301 28.333 22 39
c10 8.66699 20.833 13.667 32.5 15s23.167 2 34.5 2h64c11.333 0 23.166 -0.666992 35.499 -2s23.166 -6.33301 32.499 -15c11.333 -10 18.333 -23 21 -39s4 -29 4 -39c0 -31.333 -4.66699 -53.666 -14 -66.999s-20.333 -21 -33 -23s-24.334 -3 -35.001 -3h-85z
M264.005 104.998c-19.333 0 -34.502 2.83301 -45.502 8.5s-19.167 11.5 -24.5 17.5c-8 9.33301 -13 21.833 -15 37.5s-3 28.167 -3 37.5s1.5 22 4.5 38s11.167 29.667 24.5 41c10 8 21.333 12.833 34 14.5s22.334 2.5 29.001 2.5h97c6.66699 0 16.334 -0.833008 29.001 -2.5
s24 -6.5 34 -14.5c13.333 -11.333 21.5 -25 24.5 -41s4.5 -28.667 4.5 -38s-1 -21.833 -3 -37.5s-7 -28.167 -15 -37.5c-5.33301 -6 -13.5 -11.833 -24.5 -17.5s-26.167 -8.5 -45.5 -8.5h-105z" />
    <glyph glyph-name="nine" unicode="9" horiz-adv-x="617" 
d="M72 0l314.998 0.00292969c10.667 0 23.334 0.5 38.001 1.5s29.667 4.16699 45 9.5s30.333 13.833 45 25.5s27.334 28.167 38.001 49.5s17.334 44.333 20.001 69s4 49.667 4 75v282c0 17.333 -1.83301 36.833 -5.5 58.5s-12.167 42.167 -25.5 61.5
c-10.667 16 -23 28.5 -37 37.5s-28.667 15.667 -44 20s-30.833 7.16602 -46.5 8.49902s-30.167 2 -43.5 2h-141c-22 0 -45.833 -2.33301 -71.5 -7s-48.834 -16.334 -69.501 -35.001c-12.667 -12 -22.5 -25.333 -29.5 -40s-12.333 -29.834 -16 -45.501
s-5.83398 -31 -6.50098 -46s-1 -28.5 -1 -40.5c0 -29.333 2 -58 6 -86s15.667 -53.333 35 -76c10 -12 20.833 -21.5 32.5 -28.5s23.167 -12.167 34.5 -15.5s21.833 -5.5 31.5 -6.5s17.5 -1.5 23.5 -1.5h242v-59c0 -11.333 -1.16699 -25.5 -3.5 -42.5
s-9.16602 -31.167 -20.499 -42.5s-24.333 -18 -39 -20s-27.667 -3 -39 -3h-271v-105zM444.998 377.003l-162.001 -0.00390625c-4.66699 0 -10.5 0.166992 -17.5 0.5s-14.333 1.33301 -22 3s-15.167 3.83398 -22.5 6.50098s-13.666 6.33398 -18.999 11.001
c-9.33301 9.33301 -16 22 -20 38s-6 31.667 -6 47c0 24.667 2.83301 43.834 8.5 57.501s12.167 23.834 19.5 30.501c6.66699 6.66699 15.5 12.334 26.5 17.001s25.5 7 43.5 7h81c17.333 0 31.5 -2.5 42.5 -7.5s19.5 -10.5 25.5 -16.5c10.667 -10.667 17 -22.834 19 -36.501
s3 -24.5 3 -32.5v-125z" />
    <glyph glyph-name="colon" unicode=":" horiz-adv-x="242" 
d="M182 404v126h-122v-126h122zM182 0v126h-122v-126h122z" />
    <glyph glyph-name="semicolon" unicode=";" horiz-adv-x="283" 
d="M223 404v126h-122v-126h122zM89 -116l129 199l-96 57l-122 -203z" />
    <glyph glyph-name="semicolon" unicode="&#x37e;" horiz-adv-x="283" 
d="M223 404v126h-122v-126h122zM89 -116l129 199l-96 57l-122 -203z" />
    <glyph glyph-name="less" unicode="&#x3c;" horiz-adv-x="581" 
d="M60 404l461 -232v92l-297 140l297 140v92z" />
    <glyph glyph-name="equal" unicode="=" horiz-adv-x="580" 
d="M520 197v85h-460v-85h460zM520 348v85h-460v-85h460z" />
    <glyph glyph-name="greater" unicode="&#x3e;" horiz-adv-x="581" 
d="M521 404l-461 232v-92l297 -140l-297 -140v-92z" />
    <glyph glyph-name="question" unicode="?" horiz-adv-x="484" 
d="M115 0h122v124h-122v-124zM237 195l0.00195312 54.9971c0 6 0.5 12.167 1.5 18.5s3.83301 12.5 8.5 18.5c3.33301 4 8.33301 9 15 15s13 10.667 19 14l77 47c20 12 35.667 24.5 47 37.5s19.833 26.5 25.5 40.5s9.33398 28.167 11.001 42.5s2.5 29.166 2.5 44.499
c0 19.333 -2 41 -6 65s-13.667 45 -29 63c-9.33301 10.667 -19.833 19 -31.5 25s-23.167 10.333 -34.5 13s-22.333 4.33398 -33 5.00098s-19.667 1 -27 1h-263v-105h203c11.333 0 22.666 -0.5 33.999 -1.5s22.666 -6.83301 33.999 -17.5c10 -10 16 -21 18 -33s3 -24 3 -36
c0 -15.333 -1.33301 -28 -4 -38s-6.5 -18.5 -11.5 -25.5s-10.833 -13 -17.5 -18s-14.334 -9.83301 -23.001 -14.5l-65 -39c-10 -6 -20 -13.167 -30 -21.5s-18.667 -17.166 -26 -26.499c-8 -11.333 -13.333 -22.666 -16 -33.999s-4 -23.666 -4 -36.999v-58h122z" />
    <glyph glyph-name="at" unicode="@" horiz-adv-x="1016" 
d="M706 -194l0.00292969 84h-303c-38.667 0 -71.334 4 -98.001 12s-48.667 18.5 -66 31.5s-31 27.833 -41 44.5s-18 33.667 -24 51c-5.33301 16.667 -9.66602 35.834 -12.999 57.501s-5.83301 43.5 -7.5 65.5s-2.66699 42.5 -3 61.5s-0.5 34.5 -0.5 46.5
c0 39.333 0.666992 72.5 2 99.5s3.16602 49.5 5.49902 67.5s4.83301 32.333 7.5 43s5.66699 19.667 9 27c11.333 27.333 26.5 49 45.5 65s39.833 28.167 62.5 36.5s46 13.666 70 15.999s46.667 3.5 68 3.5h201c15.333 0 32.333 -0.666992 51 -2s37.5 -4.66602 56.5 -9.99902
s37.167 -13.833 54.5 -25.5s32.333 -27.834 45 -48.501c4 -6.66699 8.33301 -15.5 13 -26.5s8.66699 -25 12 -42s6.16602 -37.667 8.49902 -62s3.5 -53.166 3.5 -86.499c0 -30.667 -0.333008 -56.334 -1 -77.001s-1.66699 -38 -3 -52s-3 -25.333 -5 -34
s-4.33301 -16.334 -7 -23.001c-12.667 -32 -33 -48 -61 -48c-6.66699 0 -14.5 1.16699 -23.5 3.5s-17.5 7 -25.5 14s-14.833 17.167 -20.5 30.5s-8.5 31.333 -8.5 54v249c0 10.667 -0.5 21.667 -1.5 33s-6.83301 22.666 -17.5 33.999c-10.667 10.667 -22.167 17 -34.5 19
s-24.5 3 -36.5 3h-145c-46 0 -84 -9.5 -114 -28.5s-52.333 -42.5 -67 -70.5c-7.33301 -14.667 -14 -34.667 -20 -60s-9 -61 -9 -107c0 -42.667 2.83301 -77.667 8.5 -105s13.5 -49.666 23.5 -66.999c11.333 -19.333 24.666 -34.666 39.999 -45.999s31.166 -20 47.499 -26
s32.166 -9.83301 47.499 -11.5s29 -2.5 41 -2.5c12.667 0 27 0.833008 43 2.5s32.333 5.83398 49 12.501s32.834 16 48.501 28s29.167 28.667 40.5 50c4 -16 10.5 -30 19.5 -42s19.833 -21.667 32.5 -29s26.167 -12.833 40.5 -16.5s28.833 -5.5 43.5 -5.5
c34.667 0 62.667 7.33301 84 22s38.333 35 51 61c14 28.667 22.667 61.667 26 99s5 79.333 5 126c0 23.333 -0.333008 46.5 -1 69.5s-2.5 45.667 -5.5 68s-7.83301 44.166 -14.5 65.499s-16 42 -28 62c-19.333 32 -42 56.833 -68 74.5s-52.5 30.834 -79.5 39.501
s-53.167 13.834 -78.5 15.501s-46.666 2.5 -63.999 2.5h-194c-25.333 0 -51.166 -1 -77.499 -3s-52.333 -6.66699 -78 -14s-50.334 -18.333 -74.001 -33s-45.5 -34.667 -65.5 -60c-16 -20.667 -28.5 -42.334 -37.5 -65.001s-15.833 -46.667 -20.5 -72s-7.5 -52.5 -8.5 -81.5
s-1.5 -60.167 -1.5 -93.5c0 -40 0.833008 -77.5 2.5 -112.5s5 -67.667 10 -98s11.833 -58 20.5 -83s20.334 -47.5 35.001 -67.5c19.333 -26.667 41.166 -47.5 65.499 -62.5s48.5 -26.333 72.5 -34s46.667 -12.334 68 -14.001s39 -2.5 53 -2.5h319zM613.003 393
l0.00488281 -143c0 -16 -2 -34.667 -6 -56s-13.667 -41 -29 -59c-10 -11.333 -23.333 -21.666 -40 -30.999s-37.667 -14 -63 -14c-19.333 0 -36.833 3.33301 -52.5 10s-28.834 20 -39.501 40c-8.66699 16 -13.834 34.167 -15.501 54.5s-2.5 41.166 -2.5 62.499
c0 24 2 48.333 6 73s14.667 46 32 64c8 8 16.333 14.333 25 19s17.167 8.16699 25.5 10.5s16.166 3.83301 23.499 4.5s13.666 1 18.999 1h75c5.33301 0 11.166 -0.833008 17.499 -2.5s11.5 -4.5 15.5 -8.5c6 -6 9 -14.333 9 -25z" />
    <glyph glyph-name="A" unicode="A" horiz-adv-x="698" 
d="M-30 0h138.999l71 177h337l72 -177h139l-264 629c-12.667 29.333 -27.5 49.833 -44.5 61.5s-40.5 17.5 -70.5 17.5c-31.333 0 -55.166 -5.83301 -71.499 -17.5s-30.833 -32.167 -43.5 -61.5zM328.999 556c2 5.33301 4.66699 11.5 8 18.5s7.33301 10.5 12 10.5
s8.66699 -3.5 12 -10.5s6 -13.167 8 -18.5l114 -285h-269z" />
    <glyph glyph-name="B" unicode="B" horiz-adv-x="722" 
d="M192 301h267.998c21.333 0 37.5 -3.5 48.5 -10.5s18.5 -13.167 22.5 -18.5c6.66699 -9.33301 10.834 -21 12.501 -35s2.5 -26 2.5 -36c0 -11.333 -1.16699 -23.666 -3.5 -36.999s-7.16602 -24.666 -14.499 -33.999c-10 -12 -22.667 -19.167 -38 -21.5
s-28.333 -3.5 -39 -3.5h-208c-5.33301 0 -12.5 0.333008 -21.5 1s-16.167 4 -21.5 10c-2.66699 3.33301 -4.66699 8.16602 -6 14.499s-2 15.166 -2 26.499v144zM191.998 556c0 4 0.503906 8.99902 1.50391 14.999s3.5 11.333 7.5 16s8.66699 7.16699 14 7.5
s10.666 0.5 15.999 0.5h216c11.333 0 22.666 -0.666992 33.999 -2s21.666 -6.66602 30.999 -15.999c11.333 -10.667 18 -23.5 20 -38.5s3 -27.167 3 -36.5c0 -24 -1.83301 -41 -5.5 -51s-6.83398 -16.667 -9.50098 -20c-9.33301 -12.667 -20.333 -20 -33 -22
s-25.667 -3 -39 -3h-256v150zM572.002 353.999l0.00292969 4.00391c13.333 1.33301 25.166 4.66602 35.499 9.99902s20.5 14 30.5 26c15.333 18.667 24.666 37.5 27.999 56.5s5 38.167 5 57.5c0 11.333 -0.5 23.666 -1.5 36.999s-3 26.666 -6 39.999s-7.33301 26.333 -13 39
s-13.5 24 -23.5 34c-9.33301 9.33301 -19.333 16.833 -30 22.5s-21.667 10 -33 13s-22.5 4.83301 -33.5 5.5s-21.167 1 -30.5 1h-344c-11.333 0 -23.833 -1.66699 -37.5 -5s-25.834 -11.333 -36.501 -24c-7.33301 -9.33301 -12.833 -20.333 -16.5 -33s-5.5 -25.667 -5.5 -39
v-500c0 -20 3.16699 -35.833 9.5 -47.5s11.166 -19.5 14.499 -23.5c14 -16 29 -24.667 45 -26s32.667 -2 50 -2h335c10.667 0 21.5 0.166992 32.5 0.5s21.833 2 32.5 5s21.334 7.5 32.001 13.5s21 14.667 31 26c20 22.667 31.667 47 35 73s5 50.667 5 74
c0 10 -0.166992 20.333 -0.5 31s-1.5 21.5 -3.5 32.5s-5.33301 21.667 -10 32s-11 20.166 -19 29.499c-8.66699 9.33301 -19.5 17.5 -32.5 24.5s-27.833 11.167 -44.5 12.5z" />
    <glyph glyph-name="C" unicode="C" 
d="M629 0l-0.00195312 104.999h-237c-41.333 0 -77.666 4.33301 -108.999 13s-56 26.667 -74 54c-3.33301 5.33301 -7 12.333 -11 21s-7.66699 19.667 -11 33s-6 29.5 -8 48.5s-3 41.5 -3 67.5c0 52 3.83301 92.5 11.5 121.5s16.834 51.167 27.501 66.5
c10 14.667 21.5 26.334 34.5 35.001s27.333 15.334 43 20.001s32.5 7.5 50.5 8.5s36.667 1.5 56 1.5h219v105h-281c-12.667 0 -28.334 -0.666992 -47.001 -2s-38.667 -5 -60 -11s-42.666 -14.833 -63.999 -26.5s-40.666 -27.834 -57.999 -48.501
c-14.667 -17.333 -26.5 -36.5 -35.5 -57.5s-15.833 -43.333 -20.5 -67s-7.83398 -48 -9.50098 -73s-2.5 -49.833 -2.5 -74.5c0 -19.333 0.666992 -40.166 2 -62.499s4.33301 -44.833 9 -67.5s11.667 -45 21 -67s22.333 -42.333 39 -61c16 -18 33.5 -32.5 52.5 -43.5
s38.333 -19.333 58 -25s39.167 -9.33398 58.5 -11.001s37.333 -2.5 54 -2.5h295z" />
    <glyph glyph-name="D" unicode="D" horiz-adv-x="749" 
d="M451 0c27.333 0 51.667 2.66309 73 7.99609s40 12.333 56 21s29.333 18 40 28s19.667 19.667 27 29c14 18.667 25.167 39.834 33.5 63.501s14.666 47.834 18.999 72.501s7 48.667 8 72s1.5 44.666 1.5 63.999c0 20.667 -0.5 42.334 -1.5 65.001
s-3.83301 45.334 -8.5 68.001s-11.834 44.667 -21.501 66s-22.834 41.333 -39.501 60c-21.333 23.333 -48.666 43 -81.999 59s-74.333 24 -123 24h-274c-21.333 0 -37.833 -3.66699 -49.5 -11s-20.167 -13.666 -25.5 -18.999c-11.333 -13.333 -18.166 -27 -20.499 -41
s-3.5 -27.667 -3.5 -41v-499c0 -19.333 3.16699 -34.5 9.5 -45.5s12.833 -19.167 19.5 -24.5c2.66699 -2 9.83398 -5.66699 21.501 -11s30.5 -8 56.5 -8h284zM192.001 552.996c0 7.33301 1.33203 14.1699 3.99902 20.5029s6 11.166 10 14.499
c4.66699 3.33301 10 5.33301 16 6s11 1 15 1h137c12 0 24.667 -0.666992 38 -2s26.666 -3.83301 39.999 -7.5s26.166 -8.83398 38.499 -15.501s23.5 -15.334 33.5 -26.001c10.667 -11.333 19.334 -24.166 26.001 -38.499s11.667 -29.166 15 -44.499s5.5 -31 6.5 -47
s1.5 -31.333 1.5 -46c0 -59.333 -3.66699 -103.833 -11 -133.5s-15.333 -51.167 -24 -64.5c-15.333 -24.667 -35.166 -41.667 -59.499 -51s-54.833 -14 -91.5 -14h-152c-6 0 -12 0.333008 -18 1s-11.333 3.66699 -16 9c-5.33301 5.33301 -8.16602 11.166 -8.49902 17.499
s-0.5 13.166 -0.5 20.499v400z" />
    <glyph glyph-name="E" unicode="E" horiz-adv-x="651" 
d="M621 0l0.00292969 105.001h-374c-10.667 0 -19.834 0.5 -27.501 1.5s-13.5 3.5 -17.5 7.5c-6.66699 5.33301 -10 14.333 -10 27v164h415v105h-415v141c0 5.33301 0.5 11 1.5 17s4.16699 11.667 9.5 17c5.33301 4.66699 11.166 7.5 17.499 8.5s12.5 1.5 18.5 1.5h378v105
h-449c-13.333 0 -27.833 -1.33301 -43.5 -4s-29.167 -10.334 -40.5 -23.001c-7.33301 -8.66699 -13.166 -19.5 -17.499 -32.5s-6.5 -26.5 -6.5 -40.5v-496c0 -13.333 1.33301 -27.5 4 -42.5s10 -28.167 22 -39.5c11.333 -11.333 23.666 -17.833 36.999 -19.5
s27.666 -2.5 42.999 -2.5h455z" />
    <glyph glyph-name="F" unicode="F" horiz-adv-x="621" 
d="M192 0v302h310v105h-310v152c0 4.66699 0.333008 9.5 1 14.5s3 9.5 7 13.5c4 4.66699 8 7.16699 12 7.5s8.33301 0.5 13 0.5h392v105h-456c-12 0 -24.5 -1.33301 -37.5 -4s-25.5 -9.66699 -37.5 -21c-10.667 -10 -17.667 -20.833 -21 -32.5s-5 -23.167 -5 -34.5v-608h132
z" />
    <glyph glyph-name="G" unicode="G" horiz-adv-x="727" 
d="M687 343l-131.998 0.0078125v-191c0 -5.33301 -0.5 -11.333 -1.5 -18s-4.16699 -12.667 -9.5 -18s-11 -8.5 -17 -9.5s-12 -1.5 -18 -1.5h-171c-28 0 -53.667 4.83301 -77 14.5s-42.333 29.167 -57 58.5c-2.66699 5.33301 -5.66699 12.5 -9 21.5s-6.33301 20.5 -9 34.5
s-5 30.5 -7 49.5s-3 41.167 -3 66.5s1 47.333 3 66s4.33301 34.667 7 48s5.66699 24.5 9 33.5s6.66602 16.167 9.99902 21.5c13.333 24.667 33 43.5 59 56.5s58 19.5 96 19.5h311v105h-348c-68.667 0 -125 -14.333 -169 -43c-26 -16.667 -46.5 -36.834 -61.5 -60.501
s-26.333 -49.334 -34 -77.001s-12.667 -56.334 -15 -86.001s-3.5 -58.834 -3.5 -87.501c0 -24.667 0.833008 -50.334 2.5 -77.001s5.5 -52.834 11.5 -78.501s15.167 -50.167 27.5 -73.5s29.166 -44 50.499 -62c16 -13.333 37.333 -25.833 64 -37.5s59.667 -17.5 99 -17.5
h298c10 0 21.5 1.66699 34.5 5s24.167 8.66602 33.5 15.999c6.66699 5.33301 12.667 13.666 18 24.999s8 26 8 44v253z" />
    <glyph glyph-name="H" unicode="H" horiz-adv-x="748" 
d="M688 700h-132v-287h-364v287h-132v-700h132v308h364v-308h132v700z" />
    <glyph glyph-name="I" unicode="I" horiz-adv-x="252" 
d="M192 0v700h-132v-700h132z" />
    <glyph glyph-name="J" unicode="J" horiz-adv-x="445" 
d="M-20 0l179.002 0.00195312c21.333 0 40.666 2 57.999 6s32.833 9.16699 46.5 15.5s25.667 13.5 36 21.5s19.166 15.667 26.499 23c5.33301 5.33301 11.5 12.666 18.5 21.999s13.5 21.166 19.5 35.499s11 31.5 15 51.5s6 43.333 6 70v455h-132v-420
c0 -30 -2.66699 -56.667 -8 -80s-17.666 -43.333 -36.999 -60c-17.333 -15.333 -36.833 -25 -58.5 -29s-39.834 -6 -54.501 -6h-115v-105z" />
    <glyph glyph-name="K" unicode="K" horiz-adv-x="700" 
d="M730 0l-331 295c-9.33301 8.66699 -18.5 18 -27.5 28s-13.5 22.667 -13.5 38c0 12 3.5 21.833 10.5 29.5s14.5 15.167 22.5 22.5l302 287h-163l-265 -262c-9.33301 -9.33301 -17.333 -21.333 -24 -36s-10 -28.667 -10 -42c0 -12 3 -26.167 9 -42.5s17.667 -32.5 35 -48.5
l288 -269h167zM60 0h132v700h-132v-700z" />
    <glyph glyph-name="L" unicode="L" horiz-adv-x="598" 
d="M618 0v104.999h-384c-10.667 0 -18.334 1 -23.001 3s-8 3.66699 -10 5c-5.33301 4.66699 -8.16602 9.83398 -8.49902 15.501s-0.5 10.5 -0.5 14.5v557h-132v-624c0 -15.333 2.83301 -27.666 8.5 -36.999s11.167 -16.333 16.5 -21c8 -6.66699 18 -11.334 30 -14.001
s23.667 -4 35 -4h468z" />
    <glyph glyph-name="M" unicode="M" horiz-adv-x="992" 
d="M775 543c1.33301 4 3.66895 8.83594 7.00195 14.5029s6.66602 8.5 9.99902 8.5c2 0 4.5 -1.16699 7.5 -3.5s4.5 -8.16602 4.5 -17.499l-4 -545h132v616c0 32 -10.667 55.333 -32 70s-48.333 22 -81 22c-12.667 0 -24.667 -1 -36 -3s-22.333 -6.16699 -33 -12.5
s-20.5 -15.333 -29.5 -27s-17.167 -27.5 -24.5 -47.5l-181 -467c-3.33301 -7.33301 -6.5 -13.5 -9.5 -18.5s-6.16699 -7.5 -9.5 -7.5s-6.5 2.5 -9.5 7.5s-6.16699 11.167 -9.5 18.5l-181 467c-4.66699 12 -10 23.5 -16 34.5s-13.5 20.667 -22.5 29s-20.333 14.833 -34 19.5
s-30.5 7 -50.5 7c-5.33301 0 -14.166 -0.5 -26.499 -1.5s-24.833 -4.5 -37.5 -10.5s-24 -15.167 -34 -27.5s-15 -29.833 -15 -52.5v-616h132l-3 545c0 1.33301 0.5 5.16602 1.5 11.499s4.16699 9.5 9.5 9.5c3.33301 0 6.66602 -2.83301 9.99902 -8.5
s5.66602 -10.5 6.99902 -14.5l179 -467c4 -11.333 8.33301 -22 13 -32s10.667 -18.833 18 -26.5s16.5 -13.834 27.5 -18.501s24.833 -7 41.5 -7c15.333 0 28.333 1.83301 39 5.5s19.667 9.16699 27 16.5s13.5 16.166 18.5 26.499s10.167 22.166 15.5 35.499z" />
    <glyph glyph-name="N" unicode="N" horiz-adv-x="790" 
d="M730 700l-127.996 0.000976562v-516c0 -2.66699 -0.5 -6.16699 -1.5 -10.5s-4.16699 -6.5 -9.5 -6.5c-4.66699 0 -7.83398 2 -9.50098 6s-3.83398 7.66699 -6.50098 11l-297 469c-9.33301 15.333 -22.333 28.333 -39 39s-40.667 16 -72 16
c-33.333 0 -59.5 -8.33301 -78.5 -25s-28.5 -40 -28.5 -70v-613h128v514c0 7.33301 1.66699 12.5 5 15.5s6.33301 4.5 9 4.5c1.33301 0 3 -1 5 -3s5.66699 -6.66699 11 -14l295 -466c15.333 -24.667 32.666 -40.667 51.999 -48s39.666 -11 60.999 -11
c28.667 0 53.167 7.66699 73.5 23s30.5 40.666 30.5 75.999v609z" />
    <glyph glyph-name="O" unicode="O" horiz-adv-x="799" 
d="M400 708c-21.333 0 -44.166 -0.327148 -68.499 -0.994141s-48.833 -3.33398 -73.5 -8.00098s-48.834 -12 -72.501 -22s-45.167 -24.333 -64.5 -43c-19.333 -18 -34.333 -38.5 -45 -61.5s-18.667 -47 -24 -72s-8.66602 -50.333 -9.99902 -76s-2 -50.5 -2 -74.5
c0 -20 0.5 -42.333 1.5 -67s4 -49.834 9 -75.501s13 -50.834 24 -75.501s26.5 -46.667 46.5 -66c19.333 -18.667 40.833 -33 64.5 -43s48 -17.333 73 -22s49.667 -7.33398 74 -8.00098s46.833 -1 67.5 -1c20 0 42.333 0.333008 67 1s49.5 3.33398 74.5 8.00098
s49.333 12 73 22s45.167 24.333 64.5 43c18 17.333 32.333 37.666 43 60.999s18.667 47.666 24 72.999s8.83301 50.833 10.5 76.5s2.5 50.167 2.5 73.5c0 22.667 -0.666992 47 -2 73s-4.83301 51.667 -10.5 77s-13.834 49.666 -24.501 72.999s-25 43.666 -43 60.999
c-19.333 18.667 -40.833 33 -64.5 43s-48 17.333 -73 22s-49.667 7.33398 -74 8.00098s-46.833 1 -67.5 1zM176 350.006c0 54 3.83203 95.833 11.499 125.5s18.167 53.167 31.5 70.5c20.667 25.333 46.667 41.166 78 47.499s65.333 9.5 102 9.5c36 0 70 -3.16699 102 -9.5
s58.333 -22.166 79 -47.499c5.33301 -6.66699 10.666 -15 15.999 -25s10 -22.667 14 -38s7.16699 -33.833 9.5 -55.5s3.5 -47.5 3.5 -77.5c0 -28 -1.16699 -52.667 -3.5 -74s-5.5 -39.666 -9.5 -54.999s-8.5 -28.333 -13.5 -39s-10.5 -19.667 -16.5 -27
c-10.667 -13.333 -22.667 -23.833 -36 -31.5s-27.833 -13.5 -43.5 -17.5s-32 -6.5 -49 -7.5s-34.5 -1.5 -52.5 -1.5s-35.667 0.5 -53 1.5s-33.666 3.5 -48.999 7.5s-29.666 9.83301 -42.999 17.5s-25 18.167 -35 31.5c-6 7.33301 -11.5 16.166 -16.5 26.499
s-9.5 23.333 -13.5 39s-7.16699 34 -9.5 55s-3.5 45.833 -3.5 74.5z" />
    <glyph glyph-name="P" unicode="P" horiz-adv-x="728" 
d="M192 0l-0.00195312 247.993h328c20.667 0 40.334 3 59.001 9s34.667 14.333 48 25c14 11.333 25 25 33 41s14 32.833 18 50.5s6.66699 35.334 8 53.001s2 33.5 2 47.5c0 14.667 -0.5 30.334 -1.5 47.001s-3.33301 33.334 -7 50.001s-9 32.5 -16 47.5
s-16.5 28.167 -28.5 39.5c-10.667 10.667 -22.167 18.834 -34.5 24.501s-24.666 9.83398 -36.999 12.501s-24.333 4.16699 -36 4.5s-22.167 0.5 -31.5 0.5h-333c-12 0 -25.333 -1.66699 -40 -5s-27.667 -10.666 -39 -21.999c-12 -12 -19 -24.667 -21 -38
s-3 -26.666 -3 -39.999v-595h132zM191.998 352.993l0.000976562 200.001c0 6 0.333008 11.833 1 17.5s3.33398 10.834 8.00098 15.501c5.33301 5.33301 10.666 8.16602 15.999 8.49902s10.333 0.5 15 0.5h213c11.333 0 25 -1.16699 41 -3.5s29.667 -9.16602 41 -20.499
s18.333 -26.333 21 -45s4 -35.667 4 -51c0 -6.66699 -0.166992 -14.334 -0.5 -23.001s-1.33301 -17.334 -3 -26.001s-4 -17.167 -7 -25.5s-7.16699 -15.5 -12.5 -21.5c-11.333 -13.333 -24.833 -21 -40.5 -23s-30.834 -3 -45.501 -3h-251z" />
    <glyph glyph-name="Q" unicode="Q" horiz-adv-x="806" 
d="M400 708c-68 0 -124.169 -5.16113 -168.502 -15.4941s-81.166 -29.833 -110.499 -58.5c-19.333 -18.667 -34.333 -39.334 -45 -62.001s-18.667 -46.334 -24 -71.001s-8.66602 -50 -9.99902 -76s-2 -51.667 -2 -77c0 -19.333 0.333008 -41 1 -65s3.66699 -48.667 9 -74
s13.5 -50.333 24.5 -75s27.167 -47.334 48.5 -68.001c14.667 -14 30.667 -25.333 48 -34s37.166 -15.334 59.499 -20.001s47.333 -7.83398 75 -9.50098s59.167 -2.5 94.5 -2.5h382v109l-100 -4v4c12 11.333 21.833 22.5 29.5 33.5s13.834 21.167 18.501 30.5
c14 29.333 22.333 60.666 25 93.999s4 63.333 4 90c0 38 -1.66699 71.333 -5 100s-8.33301 54 -15 76s-15 41 -25 57s-21.667 30.667 -35 44c-15.333 14.667 -32 26.667 -50 36s-38.167 16.833 -60.5 22.5s-47.5 9.66699 -75.5 12s-59 3.5 -93 3.5zM175.998 351.006
c0 30 1.33203 55.665 3.99902 76.998s6 39.5 10 54.5s8.5 27.5 13.5 37.5s10.167 18.333 15.5 25c10.667 13.333 22.5 23.833 35.5 31.5s27.167 13.5 42.5 17.5s31.666 6.5 48.999 7.5s35 1.5 53 1.5c18.667 0 36.667 -0.5 54 -1.5s33.666 -3.5 48.999 -7.5
s29.5 -9.83301 42.5 -17.5s24.833 -18.167 35.5 -31.5c13.333 -17.333 23.833 -40.666 31.5 -69.999s11.5 -70.666 11.5 -123.999c0 -30.667 -1.5 -57 -4.5 -79s-6.66699 -40.5 -11 -55.5s-9 -27 -14 -36s-9.5 -16.167 -13.5 -21.5c-10 -12.667 -21.667 -22.667 -35 -30
s-27.666 -12.666 -42.999 -15.999s-31.666 -5.5 -48.999 -6.5s-35.333 -1.5 -54 -1.5c-18 0 -35.667 0.5 -53 1.5s-33.666 3.16699 -48.999 6.5s-29.5 8.66602 -42.5 15.999s-24.833 17.333 -35.5 30c-5.33301 6 -10.5 13.833 -15.5 23.5s-9.5 22 -13.5 37
s-7.33301 33.167 -10 54.5s-4 47 -4 77z" />
    <glyph glyph-name="R" unicode="R" horiz-adv-x="734" 
d="M60 0l131.999 0.000976562v545c0 7.33301 0.5 14.166 1.5 20.499s5.16699 12.5 12.5 18.5c5.33301 5.33301 10.666 8.5 15.999 9.5s11.666 1.5 18.999 1.5h214c10.667 0 23 -0.833008 37 -2.5s26.333 -7.83398 37 -18.501c7.33301 -7.33301 13.333 -18.333 18 -33
s7 -36 7 -64c0 -6 -0.166992 -13.333 -0.5 -22s-1 -17.5 -2 -26.5s-2.66699 -17.833 -5 -26.5s-5.16602 -15.667 -8.49902 -21c-9.33301 -14 -20.833 -22.667 -34.5 -26s-26.167 -5 -37.5 -5h-132c-19.333 0 -34 -4.5 -44 -13.5s-15 -20.5 -15 -34.5v-16
c0 -10 3.66699 -20.5 11 -31.5s14.666 -20.167 21.999 -27.5l230 -227h166l-266 247v5h90c20 0 37.333 2.16699 52 6.5s27.167 10 37.5 17s18.833 14.667 25.5 23s12.334 16.833 17.001 25.5c14 26 22.5 52.5 25.5 79.5s4.5 53.167 4.5 78.5s-1.66699 51.333 -5 78
s-13.333 52 -30 76c-10 15.333 -21.167 27.333 -33.5 36s-25.166 15 -38.499 19s-26.666 6.5 -39.999 7.5s-26 1.5 -38 1.5h-332c-13.333 0 -27.5 -1.66699 -42.5 -5s-28.833 -11 -41.5 -23c-14 -13.333 -22.333 -28.166 -25 -44.499s-4 -31.833 -4 -46.5v-581z" />
    <glyph glyph-name="S" unicode="S" 
d="M39 0l429.997 -0.00292969c23.333 0 45.666 2.66699 66.999 8s40.666 19.333 57.999 42c14.667 18.667 24.167 39.5 28.5 62.5s6.5 45.5 6.5 67.5c0 8 -0.5 17.667 -1.5 29s-3 23.166 -6 35.499s-7.5 24.666 -13.5 36.999s-14.333 23.5 -25 33.5s-24.167 19 -40.5 27
s-36.166 15.667 -59.499 23l-256 81c-28 9.33301 -45.833 21 -53.5 35s-11.5 28.667 -11.5 44c0 6.66699 0.833008 15.334 2.5 26.001s6.83398 20 15.501 28c8 7.33301 16.833 11.833 26.5 13.5s19.167 2.5 28.5 2.5h358v105h-403c-17.333 0 -36.333 -2.16699 -57 -6.5
s-40 -15.166 -58 -32.499c-20 -18.667 -32.5 -39.667 -37.5 -63s-7.5 -45.666 -7.5 -66.999c0 -10 0.333008 -20.667 1 -32s2.33398 -22.833 5.00098 -34.5s6.33398 -23.167 11.001 -34.5s11 -21.666 19 -30.999c6.66699 -8.66699 14.334 -16 23.001 -22
s17 -11.167 25 -15.5s15.167 -7.66602 21.5 -9.99902s10.833 -3.83301 13.5 -4.5l276 -87c15.333 -4.66699 27.5 -10.167 36.5 -16.5s15.833 -13 20.5 -20s7.66699 -14.167 9 -21.5s2 -14.333 2 -21c0 -6 -0.5 -13.333 -1.5 -22s-3.66699 -17 -8 -25
s-10.833 -14.833 -19.5 -20.5s-21 -8.5 -37 -8.5h-388v-105z" />
    <glyph glyph-name="T" unicode="T" 
d="M395 0v595h274v105h-679v-105h273v-595h132z" />
    <glyph glyph-name="U" unicode="U" horiz-adv-x="728" 
d="M364 97c-10 0 -21.1709 0.503906 -33.5039 1.50391s-24.666 3 -36.999 6s-24.333 7.5 -36 13.5s-22.167 14 -31.5 24c-16.667 18 -26.5 38 -29.5 60s-4.5 42.667 -4.5 62v436h-132v-454c0 -30 3.5 -60.5 10.5 -91.5s23.833 -60.167 50.5 -87.5
c17.333 -18 36.833 -32 58.5 -42s43.5 -17.5 65.5 -22.5s43.333 -8 64 -9s39 -1.5 55 -1.5s34.333 0.5 55 1.5s42 4 64 9s43.833 12.5 65.5 22.5s41.167 24 58.5 42c26.667 27.333 43.5 56.5 50.5 87.5s10.5 61.5 10.5 91.5v454h-132v-436
c0 -8.66699 -0.166992 -18.334 -0.5 -29.001s-1.66602 -21.334 -3.99902 -32.001s-5.66602 -21.334 -9.99902 -32.001s-10.5 -20.334 -18.5 -29.001c-9.33301 -10 -20 -18 -32 -24s-24.333 -10.5 -37 -13.5s-25.167 -5 -37.5 -6s-23.166 -1.5 -32.499 -1.5z" />
    <glyph glyph-name="V" unicode="V" horiz-adv-x="674" 
d="M113 700l-143.001 -0.00195312l254 -632c6.66699 -17.333 14.834 -31 24.501 -41s19.834 -17.667 30.501 -23s21 -8.66602 31 -9.99902s19 -2 27 -2c18 0 33.333 2.33301 46 7s23.5 10.834 32.5 18.501s16.167 16 21.5 25s9.66602 17.5 12.999 25.5l254 632h-143
l-209 -565c-1.33301 -2.66699 -3 -5.83398 -5 -9.50098s-5.33301 -5.5 -10 -5.5s-8 1.83301 -10 5.5s-3.66699 6.83398 -5 9.50098z" />
    <glyph glyph-name="W" unicode="W" horiz-adv-x="1001" 
d="M273 157c-1.33301 -3.33301 -3.33301 -6.99902 -6 -10.999s-5.66699 -6 -9 -6c-5.33301 0 -8.83301 2.66699 -10.5 8s-3.16699 9.66602 -4.5 12.999l-139 539h-134l168 -610c10.667 -38.667 25.334 -64.667 44.001 -78s42 -20 70 -20c20.667 0 37.5 2.83301 50.5 8.5
s23.5 13 31.5 22s14.167 18.667 18.5 29s7.83301 20.5 10.5 30.5l124 453c1.33301 3.33301 2.83301 7.33301 4.5 12s4.5 7 8.5 7c6 0 10.667 -6.33301 14 -19l123 -453c3.33301 -12 7.5 -23.333 12.5 -34s11.667 -20.167 20 -28.5s18.833 -15 31.5 -20s28.667 -7.5 48 -7.5
c20.667 0 37.5 3 50.5 9s23.667 13.667 32 23s14.666 19.833 18.999 31.5s8.16602 23.167 11.499 34.5l169 610h-134l-139 -539c-2 -8.66699 -4.66699 -14.334 -8 -17.001s-6 -4 -8 -4c-3.33301 0 -6.33301 2 -9 6s-4.66699 7.66699 -6 11l-130 479c-2 8 -5 16.167 -9 24.5
s-9.66699 16 -17 23s-16.666 12.833 -27.999 17.5s-25.666 7 -42.999 7c-18.667 0 -33.834 -2.5 -45.501 -7.5s-21 -11.167 -28 -18.5s-12.167 -15.166 -15.5 -23.499s-6 -15.833 -8 -22.5z" />
    <glyph glyph-name="X" unicode="X" horiz-adv-x="628" 
d="M658 0l-269 355l261 345h-157l-179 -252l-179 252h-157l261 -345l-269 -355h157l187 262l187 -262h157z" />
    <glyph glyph-name="Y" unicode="Y" horiz-adv-x="664" 
d="M332 333l-220 367h-142l296 -486v-214h132v214l296 486h-142z" />
    <glyph glyph-name="Z" unicode="Z" horiz-adv-x="613" 
d="M600 0l-0.00292969 104.999h-414c-3.33301 0 -6.16602 0.666992 -8.49902 2s-3.5 4.33301 -3.5 9c0 4 1 7.33301 3 10s4.33301 5.33398 7 8.00098l387 408c10 10.667 19.167 22 27.5 34s12.5 29.333 12.5 52c0 14 -2.33301 25.667 -7 35s-10.667 16.833 -18 22.5
s-15.666 9.5 -24.999 11.5s-19 3 -29 3h-503v-105h391c8 0 13.167 -1.66699 15.5 -5s3.5 -6 3.5 -8c0 -3.33301 -1.16699 -6.83301 -3.5 -10.5s-5.16602 -7.16699 -8.49902 -10.5l-382 -395c-10 -10.667 -19.667 -23.667 -29 -39s-14 -33.666 -14 -54.999
c0 -17.333 3.5 -30.833 10.5 -40.5s15.5 -16.834 25.5 -21.501s20.5 -7.5 31.5 -8.5s20.5 -1.5 28.5 -1.5h502z" />
    <glyph glyph-name="bracketleft" unicode="[" horiz-adv-x="372" 
d="M151 622h181v84h-272v-865h272v84h-181v697z" />
    <glyph glyph-name="backslash" unicode="\" horiz-adv-x="507" 
d="M438 -166h69l-438 906h-69z" />
    <glyph glyph-name="bracketright" unicode="]" horiz-adv-x="372" 
d="M222 -75h-182v-84h272v865h-272v-84h182v-697z" />
    <glyph glyph-name="asciicircum" unicode="^" horiz-adv-x="590" 
d="M472 521l58 68l-181 169c-7.33301 7.33301 -15.333 13 -24 17s-18.667 6 -30 6s-21.333 -2 -30 -6s-16.667 -9.66699 -24 -17l-181 -169l59 -68l149 145c3.33301 3.33301 7.33301 6.5 12 9.5s10 4.5 16 4.5s11.333 -1.5 16 -4.5s8.66699 -6.16699 12 -9.5z" />
    <glyph glyph-name="underscore" unicode="_" horiz-adv-x="572" 
d="M40 0h492v103h-492v-103z" />
    <glyph glyph-name="grave" unicode="`" horiz-adv-x="301" 
d="M100 767l-60 -75l162 -132l59 74z" />
    <glyph glyph-name="a" unicode="a" horiz-adv-x="555" 
d="M65 530l0.000976562 -89.999h261c9.33301 0 19.166 -1.33301 29.499 -4s19.5 -9 27.5 -19c6.66699 -8 10.834 -16.333 12.501 -25s2.5 -17 2.5 -25v-37h-230c-14 0 -29.5 -1.5 -46.5 -4.5s-33.833 -11.833 -50.5 -26.5c-20 -17.333 -32.5 -37.333 -37.5 -60
s-7.5 -45.667 -7.5 -69c0 -10 0.333008 -21.333 1 -34s2.5 -25.667 5.5 -39s7.66699 -26.166 14 -38.499s14.833 -23.166 25.5 -32.499c15.333 -13.333 31.5 -21 48.5 -23s32.833 -3 47.5 -3h253c12.667 0 25.667 1.16699 39 3.5s24.666 8.16602 33.999 17.499
s15.166 20.666 17.499 33.999s3.5 24.666 3.5 33.999v275c0 30 -3.66699 55.5 -11 76.5s-16.666 37.167 -27.999 48.5c-12 12.667 -27.667 22.667 -47 30s-40.333 11 -63 11h-301zM398.001 240.001v-122.002c0 -4 -0.333008 -7.83301 -1 -11.5s-3 -7.16699 -7 -10.5
s-8.5 -5.16602 -13.5 -5.49902s-9.16699 -0.5 -12.5 -0.5h-163c-7.33301 0 -14.5 1.66699 -21.5 5s-12.5 7 -16.5 11c-7.33301 7.33301 -11.833 17 -13.5 29s-2.5 22 -2.5 30c0 19.333 1.66699 33 5 41s6 13.333 8 16c6.66699 8.66699 14.5 13.834 23.5 15.501
s15.5 2.5 19.5 2.5h195z" />
    <glyph glyph-name="b" unicode="b" horiz-adv-x="558" 
d="M315 0c15.333 0 31.499 1.00293 48.499 3.00293s33.667 6.16699 50 12.5s31.833 15.166 46.5 26.499s27.334 26.333 38.001 45c10.667 18 19 40.833 25 68.5s9 63.167 9 106.5c0 34 -2.16699 66.5 -6.5 97.5s-13.833 58.833 -28.5 83.5
c-11.333 19.333 -24.333 34.666 -39 45.999s-30.167 20 -46.5 26s-33 10 -50 12s-33.5 3 -49.5 3h-155v170h-117v-611c0 -10.667 1.33301 -21.834 4 -33.501s9.33398 -22.5 20.001 -32.5c12 -11.333 25.167 -18 39.5 -20s29.166 -3 44.499 -3h167zM156.999 440.003h129
c8.66699 0 18.167 -0.666992 28.5 -2s20.333 -4.16602 30 -8.49902s18.667 -10.333 27 -18s15.5 -17.5 21.5 -29.5c2 -4 5.5 -15.333 10.5 -34s7.5 -49 7.5 -91c0 -35.333 -2.16699 -61.166 -6.5 -77.499s-8.16602 -28.166 -11.499 -35.499
c-6.66699 -13.333 -14.834 -23.5 -24.501 -30.5s-19.5 -12.333 -29.5 -16s-20 -5.83398 -30 -6.50098s-19 -1 -27 -1h-85c-6 0 -11.833 0.5 -17.5 1.5s-10.5 3.5 -14.5 7.5c-4.66699 5.33301 -7.16699 11.166 -7.5 17.499s-0.5 12.166 -0.5 17.499v306z" />
    <glyph glyph-name="c" unicode="c" horiz-adv-x="513" 
d="M487 0v89.998h-190c-12 0 -24.5 0.5 -37.5 1.5s-25.5 3.5 -37.5 7.5s-23 9.66699 -33 17s-18.333 17.333 -25 30c-3.33301 6.66699 -6.16602 14.834 -8.49902 24.501s-4.16602 19.5 -5.49902 29.5s-2.16602 19.833 -2.49902 29.5s-0.5 18.5 -0.5 26.5
c0 4 0.166992 10.167 0.5 18.5s0.666016 17.333 0.999023 27s1.16602 19.334 2.49902 29.001s3 18.167 5 25.5c6.66699 22.667 20.167 42.334 40.5 59.001s50.166 25 89.499 25h189v90h-227c-24 0 -44.833 -2 -62.5 -6s-33 -8.83301 -46 -14.5
s-23.833 -11.834 -32.5 -18.501s-15.667 -12.667 -21 -18c-14.667 -15.333 -26 -32.166 -34 -50.499s-14 -37 -18 -56s-6.33301 -37.833 -7 -56.5s-1 -36 -1 -52c0 -38 2.5 -73.167 7.5 -105.5s18.5 -61.5 40.5 -87.5c12 -14 25.167 -25.333 39.5 -34
s28.5 -15.334 42.5 -20.001s27.667 -7.66699 41 -9s25 -2 35 -2h255z" />
    <glyph glyph-name="d" unicode="d" horiz-adv-x="559" 
d="M519 93l-0.000976562 606.998h-117v-170h-157c-10.667 0 -23.5 -0.666992 -38.5 -2s-30.667 -4.5 -47 -9.5s-32.666 -12.833 -48.999 -23.5s-30.833 -25.334 -43.5 -44.001c-18 -26 -29.333 -55.167 -34 -87.5s-7 -62.5 -7 -90.5c0 -44 2.66699 -79.167 8 -105.5
s11.333 -47.166 18 -62.499c10 -23.333 21.833 -41.833 35.5 -55.5s28.167 -24.167 43.5 -31.5s30.833 -12.166 46.5 -14.499s30.167 -3.5 43.5 -3.5h209c12 0 24.833 1.33301 38.5 4s25.167 10.334 34.5 23.001c5.33301 7.33301 9.33301 17.333 12 30s4 24.667 4 36z
M401.999 439.998l0.000976562 -305.001c0 -4 -0.333008 -10.167 -1 -18.5s-3.33398 -14.5 -8.00098 -18.5c-4 -4 -9.5 -6.33301 -16.5 -7s-11.833 -1 -14.5 -1h-94c-8.66699 0 -18 0.666992 -28 2s-19.833 4 -29.5 8s-18.834 10 -27.501 18s-16 18.667 -22 32
c-2 4.66699 -4.83301 15.334 -8.5 32.001s-5.5 45.667 -5.5 87c0 36 2.33301 63.333 7 82s10 32.667 16 42c12.667 20.667 28.334 33.667 47.001 39s35.667 8 51 8h134z" />
    <glyph glyph-name="e" unicode="e" horiz-adv-x="563" 
d="M520 0v90.0049h-259c-10.667 0 -21.5 0.666992 -32.5 2s-21.5 4.16602 -31.5 8.49902s-18.667 10.666 -26 18.999s-13 19.5 -17 33.5c-2 8 -3.66699 19.333 -5 34s-2 27.667 -2 39h308c10.667 0 20.834 1.33301 30.501 4s18.5 8 26.5 16
c11.333 11.333 18.333 24.166 21 38.499s4 28.166 4 41.499c0 16.667 -1 33.167 -3 49.5s-5.83301 32 -11.5 47s-13.334 28.833 -23.001 41.5s-22.167 24 -37.5 34c-24.667 15.333 -52.167 24.833 -82.5 28.5s-61.166 5.5 -92.499 5.5
c-12.667 0 -27.334 -0.333008 -44.001 -1s-34 -2.5 -52 -5.5s-35.833 -7.83301 -53.5 -14.5s-33.834 -16.334 -48.501 -29.001s-26.167 -26.667 -34.5 -42s-14.666 -32.166 -18.999 -50.499s-7 -38.333 -8 -60s-1.5 -44.834 -1.5 -69.501c0 -35.333 2 -70 6 -104
s14.667 -63.667 32 -89c10.667 -15.333 22.667 -27.5 36 -36.5s27 -15.833 41 -20.5s28.333 -7.5 43 -8.5s28.667 -1.5 42 -1.5h294zM147 316.005c0.666992 17.333 1.83105 33.499 3.49805 48.499s8.5 29.167 20.5 42.5c8 8.66699 16.833 15.5 26.5 20.5s19.5 8.5 29.5 10.5
s19.667 3.16699 29 3.5s18 0.5 26 0.5c16.667 0 33.834 -1.16699 51.501 -3.5s33.834 -9.16602 48.501 -20.499c8.66699 -6.66699 16.5 -16 23.5 -28s10.5 -26.333 10.5 -43c0 -7.33301 -1.5 -14.333 -4.5 -21s-10.167 -10 -21.5 -10h-243z" />
    <glyph glyph-name="f" unicode="f" horiz-adv-x="352" 
d="M199 0v440.001h145v90h-145c-0.666992 21.333 2.33301 37.833 9 49.5s13.667 20.167 21 25.5c10.667 7.33301 25 11.833 43 13.5s42 2.5 72 2.5v86c-15.333 0.666992 -32.333 0.666992 -51 0s-37.5 -2.5 -56.5 -5.5s-37.167 -7.66699 -54.5 -14s-32.333 -14.5 -45 -24.5
c-11.333 -9.33301 -20.5 -19.833 -27.5 -31.5s-12.5 -23.667 -16.5 -36s-6.83301 -24.333 -8.5 -36s-2.5 -21.834 -2.5 -30.501h-74v-89h74v-440h117z" />
    <glyph glyph-name="g" unicode="g" horiz-adv-x="573" 
d="M415 0c-3.33301 -25.333 -13.667 -45.6631 -31 -60.9961c-14 -11.333 -30.667 -18.166 -50 -20.499s-35.333 -3.5 -48 -3.5h-223v-90h250c9.33301 0 21.5 0.666992 36.5 2s30.833 4.16602 47.5 8.49902s33.334 10.666 50.001 18.999s31 19.833 43 34.5
c17.333 21.333 28.833 46.666 34.5 75.999s8.5 61 8.5 95v372c0 11.333 -1.83301 24.166 -5.5 38.499s-12.167 27.166 -25.5 38.499c-12.667 10 -26.334 16 -41.001 18s-29.667 3 -45 3h-171c-13.333 0 -27 -0.5 -41 -1.5s-28 -3.33301 -42 -7s-27.667 -9.33398 -41 -17.001
s-26.333 -18.5 -39 -32.5c-23.333 -25.333 -38.5 -54.333 -45.5 -87s-10.5 -70 -10.5 -112c0 -94 13.667 -162.333 41 -205c10 -16 21.5 -28.5 34.5 -37.5s26.5 -15.667 40.5 -20s28.167 -7.16602 42.5 -8.49902s28.5 -2 42.5 -2h188zM415.999 90.0029l-139.002 -0.00195312
c-17.333 0 -35 1.33301 -53 4s-33.667 11.667 -47 27c-3.33301 3.33301 -6.66602 8.33301 -9.99902 15s-6.5 15.5 -9.5 26.5s-5.5 24.667 -7.5 41s-3 36.5 -3 60.5c0 6 0.166992 15.167 0.5 27.5s1.5 25.5 3.5 39.5s5.16699 27.833 9.5 41.5s10.5 25.167 18.5 34.5
c9.33301 10.667 22 18.834 38 24.501s33.667 8.5 53 8.5h100c5.33301 0 10.5 -0.5 15.5 -1.5s10.167 -3.16699 15.5 -6.5c6.66699 -4.66699 10.834 -9.66699 12.501 -15s2.5 -11.666 2.5 -18.999v-308z" />
    <glyph glyph-name="h" unicode="h" horiz-adv-x="562" 
d="M40 0l117.001 -0.000976562v440h137c11.333 0 25 -1.5 41 -4.5s30.667 -11.833 44 -26.5c6 -6.66699 10.667 -14.167 14 -22.5s6 -16.666 8 -24.999s3.16699 -16.333 3.5 -24s0.5 -14.167 0.5 -19.5v-318h117v349c0 36.667 -5.83301 66.667 -17.5 90
s-24.834 41 -39.501 53c-19.333 15.333 -41.5 25.5 -66.5 30.5s-52.5 7.5 -82.5 7.5h-159v170h-117v-700z" />
    <glyph glyph-name="i" unicode="i" horiz-adv-x="197" 
d="M40 0h117v530h-117v-530zM157 607v93h-117v-93h117z" />
    <glyph glyph-name="j" unicode="j" horiz-adv-x="275" 
d="M-40 -178c50 -2 91.667 0.166992 125 6.5s60.666 17.166 81.999 32.499c6 4.66699 12.833 10.834 20.5 18.501s15 17.5 22 29.5s13 26.5 18 43.5s7.5 37.167 7.5 60.5v517h-117v-493c0 -28.667 -3.5 -50.5 -10.5 -65.5s-17.167 -27.167 -30.5 -36.5
c-13.333 -10 -28.166 -16.5 -44.499 -19.5s-40.5 -4.16699 -72.5 -3.5v-90zM235 607v93h-117v-93h117z" />
    <glyph glyph-name="k" unicode="k" horiz-adv-x="537" 
d="M551 0l-216.999 229c-6.66699 7.33301 -12.5 15.166 -17.5 23.499s-7.5 16.833 -7.5 25.5s1.66699 15.834 5 21.501s7.33301 11.167 12 16.5l199 214h-136l-160 -176c-7.33301 -8.66699 -15.333 -19.167 -24 -31.5s-13 -28.5 -13 -48.5
c0 -18.667 4.16699 -34.667 12.5 -48s16.166 -24 23.499 -32l183 -194h140zM157.001 0v700h-117v-700h117z" />
    <glyph glyph-name="l" unicode="l" horiz-adv-x="197" 
d="M40 0h117v700h-117v-700z" />
    <glyph glyph-name="m" unicode="m" horiz-adv-x="835" 
d="M40 0l116.999 -0.000976562v404c0 10 0.5 16.833 1.5 20.5s2.16699 6.16699 3.5 7.5s3.83301 3 7.5 5s9.83398 3 18.501 3h171v-440h117v440h109c10.667 0 22.667 -1.33301 36 -4s25 -9.66699 35 -21c9.33301 -10.667 15.333 -23 18 -37s4 -26.667 4 -38v-340h117v358
c0 26.667 -4.16699 51.334 -12.5 74.001s-20.166 41.334 -35.499 56.001c-19.333 17.333 -41.833 28.666 -67.5 33.999s-48.167 8 -67.5 8h-477c-12 0 -25.833 -1.83301 -41.5 -5.5s-28.5 -12.5 -38.5 -26.5c-6.66699 -9.33301 -10.834 -19.833 -12.501 -31.5
s-2.5 -21.167 -2.5 -28.5v-438z" />
    <glyph glyph-name="n" unicode="n" horiz-adv-x="565" 
d="M40 0l117.003 0.00195312v412c0 3.33301 0.166992 7 0.5 11s2.16602 7.66699 5.49902 11s6.66602 5.16602 9.99902 5.49902s6.66602 0.5 9.99902 0.5h119c21.333 0 38.5 -2.5 51.5 -7.5s23.833 -13.167 32.5 -24.5c9.33301 -12.667 15.333 -27.167 18 -43.5
s4 -33.166 4 -50.499v-314h117v349c0 36.667 -5.16699 65.667 -15.5 87s-22.5 38.333 -36.5 51c-21.333 19.333 -44.333 31.333 -69 36s-51 7 -79 7h-187c-11.333 0 -24.833 -0.833008 -40.5 -2.5s-29.167 -8.83398 -40.5 -21.501
c-8 -8.66699 -12.833 -18.334 -14.5 -29.001s-2.5 -20 -2.5 -28v-449z" />
    <glyph glyph-name="o" unicode="o" horiz-adv-x="616" 
d="M308 536c-16 0 -33.333 -0.332031 -52 -0.999023s-37.667 -2.83398 -57 -6.50098s-38 -9.33398 -56 -17.001s-34.333 -18.167 -49 -31.5c-15.333 -14 -27.5 -30.5 -36.5 -49.5s-15.833 -38.333 -20.5 -58s-7.66699 -39.167 -9 -58.5s-2 -36.333 -2 -51
c0 -13.333 0.666992 -29.166 2 -47.499s4.16602 -37.333 8.49902 -57s11 -38.834 20 -57.501s21.5 -35.334 37.5 -50.001c14.667 -13.333 31 -23.833 49 -31.5s36.667 -13.334 56 -17.001s38.333 -6 57 -7s36 -1.5 52 -1.5c15.333 0 32.333 0.5 51 1.5
s37.834 3.33301 57.501 7s38.667 9.33398 57 17.001s34.5 18.167 48.5 31.5c19.333 18.667 35.5 45.167 48.5 79.5s19.5 79.833 19.5 136.5c0 14 -0.666992 30.333 -2 49s-4.33301 37.667 -9 57s-11.5 38.5 -20.5 57.5s-21.167 35.5 -36.5 49.5
c-14.667 13.333 -31 23.833 -49 31.5s-36.667 13.334 -56 17.001s-38.333 5.83398 -57 6.50098s-36 1 -52 1zM147 264.001c0 8.66699 0.166016 19 0.499023 31s1.5 24.5 3.5 37.5s5.33301 25.833 10 38.5s11 23.667 19 33s17.5 16.833 28.5 22.5s22.167 10 33.5 13
s22.833 4.83301 34.5 5.5s22.167 1 31.5 1c10.667 0 21.667 -0.333008 33 -1s22.5 -2.5 33.5 -5.5s21.667 -7.33301 32 -13s19.833 -13.167 28.5 -22.5c9.33301 -10 16.333 -21.167 21 -33.5s8 -24.833 10 -37.5s3 -25 3 -37v-32c0 -23.333 -1.5 -47 -4.5 -71
s-13.167 -45.667 -30.5 -65s-37.166 -31.5 -59.499 -36.5s-44.5 -7.5 -66.5 -7.5c-21.333 0 -43.5 2.5 -66.5 7.5s-43.167 17.167 -60.5 36.5c-16.667 19.333 -26.5 41.333 -29.5 66s-4.5 48 -4.5 70z" />
    <glyph glyph-name="p" unicode="p" horiz-adv-x="559" 
d="M157 0l148.003 -0.00195312c13.333 0 28.166 0.5 44.499 1.5s33 4 50 9s33.333 12.667 49 23s29.834 24.5 42.501 42.5c9.33301 13.333 16.833 28 22.5 44s10 32.667 13 50s4.83301 35 5.5 53s1 35.667 1 53c0 14.667 -0.333008 30.5 -1 47.5
s-2.83398 34.167 -6.50098 51.5s-9.33398 34.333 -17.001 51s-18.167 32 -31.5 46c-12.667 13.333 -26.334 23.833 -41.001 31.5s-29.167 13.5 -43.5 17.5s-27.666 6.5 -39.999 7.5s-22.833 1.5 -31.5 1.5h-185c-10 0 -21 -1 -33 -3s-23 -6.66699 -33 -14
c-6.66699 -5.33301 -13.334 -13.166 -20.001 -23.499s-10 -24.166 -10 -41.499v-618h117v170zM157.003 89.998v324.998c0 6.66699 2.66699 12.667 8 18c2 1.33301 4.5 2.83301 7.5 4.5s5.83301 2.5 8.5 2.5h115c26 0 47.667 -5.66699 65 -17s29.666 -25.666 36.999 -42.999
c3.33301 -7.33301 6.5 -19.166 9.5 -35.499s4.5 -42.5 4.5 -78.5c0 -39.333 -2.33301 -68.333 -7 -87s-9.66699 -32 -15 -40c-6.66699 -10.667 -17.667 -21.5 -33 -32.5s-37.666 -16.5 -66.999 -16.5h-133z" />
    <glyph glyph-name="q" unicode="q" horiz-adv-x="559" 
d="M519 -170v601c0 10 -0.666992 21.5 -2 34.5s-5.66602 24.167 -12.999 33.5s-17.5 16.833 -30.5 22.5s-27.167 8.5 -42.5 8.5h-214c-10 0 -21.167 -0.833008 -33.5 -2.5s-24.666 -4.66699 -36.999 -9s-24.5 -10.5 -36.5 -18.5s-23 -18.333 -33 -31
c-12 -16 -21.5 -33.333 -28.5 -52s-12.167 -37.5 -15.5 -56.5s-5.33301 -37.667 -6 -56s-1 -34.833 -1 -49.5c0 -36 2.16699 -69.5 6.5 -100.5s16.166 -59.5 35.499 -85.5c10.667 -15.333 22.5 -27.5 35.5 -36.5s26 -16 39 -21s25.667 -8.16699 38 -9.5s23.166 -2 32.499 -2
h189v-170h117zM402 90h-143.002c-7.33301 0 -15.833 0.5 -25.5 1.5s-19.167 3.83301 -28.5 8.5s-18.333 11.5 -27 20.5s-15.667 21.167 -21 36.5c-4.66699 13.333 -7.5 28.833 -8.5 46.5s-1.5 37.167 -1.5 58.5c0 28 0.833008 51.167 2.5 69.5s5.16699 34.166 10.5 47.499
c10.667 25.333 25.834 41.833 45.501 49.5s42.167 11.5 67.5 11.5h86c5.33301 0 10.833 -0.333008 16.5 -1s10.834 -3 15.501 -7c5.33301 -4.66699 8.5 -9.66699 9.5 -15s1.5 -9.66602 1.5 -12.999v-314z" />
    <glyph glyph-name="r" unicode="r" horiz-adv-x="333" 
d="M40 0h116.999v299c0 20 1.66699 39 5 57s10.666 33.667 21.999 47c14 16.667 30.333 27 49 31s35.667 6 51 6h49v90h-79c-10 0 -21.667 -0.333008 -35 -1s-27.166 -2.5 -41.499 -5.5s-28.666 -7.66699 -42.999 -14s-27.5 -14.833 -39.5 -25.5
c-22.667 -19.333 -37.5 -42.5 -44.5 -69.5s-10.5 -55.167 -10.5 -84.5v-330z" />
    <glyph glyph-name="s" unicode="s" horiz-adv-x="528" 
d="M33 0l338.999 0.000976562c13.333 0 27.5 1.16699 42.5 3.5s29.167 8.5 42.5 18.5c10.667 8 19 17 25 27s10.5 20.333 13.5 31s4.83301 20.834 5.5 30.501s1 17.834 1 24.501c0 14.667 -1.83301 30.667 -5.5 48s-12.834 33.666 -27.501 48.999
c-13.333 14 -30.666 25.167 -51.999 33.5s-48 17.166 -80 26.499l-114 32c-3.33301 0.666992 -8 2 -14 4s-12.167 4.16699 -18.5 6.5s-12.5 4.83301 -18.5 7.5s-11 5.66699 -15 9c-8 6.66699 -12.833 13.334 -14.5 20.001s-2.5 13.667 -2.5 21s0.666992 14.166 2 20.499
s5.66602 12.166 12.999 17.499c6.66699 5.33301 13.5 8.33301 20.5 9s13.833 1 20.5 1h281v90h-299c-11.333 0 -22.833 -0.333008 -34.5 -1s-23 -2.5 -34 -5.5s-21.5 -7.66699 -31.5 -14s-19 -14.833 -27 -25.5c-10.667 -14.667 -17.5 -30 -20.5 -46s-4.5 -30.667 -4.5 -44
s1.5 -28 4.5 -44s9.83301 -31.333 20.5 -46s25.667 -27.167 45 -37.5s43 -19.166 71 -26.499l102 -28l45 -13c11.333 -3.33301 20.5 -6.33301 27.5 -9s12.167 -4.83398 15.5 -6.50098s6 -3.5 8 -5.5c6.66699 -6 10.834 -12.333 12.501 -19s2.5 -13.667 2.5 -21
c0 -4 -0.333008 -9.16699 -1 -15.5s-3.66699 -12.166 -9 -17.499c-5.33301 -6.66699 -11.666 -10.834 -18.999 -12.501s-14 -2.5 -20 -2.5h-298v-90z" />
    <glyph glyph-name="t" unicode="t" horiz-adv-x="341" 
d="M341 0l-0.000976562 89.998h-29c-10.667 0 -25.167 1 -43.5 3s-34.166 8.66699 -47.499 20c-8.66699 6.66699 -15.167 14.834 -19.5 24.501s-7.33301 19.5 -9 29.5s-2.5 20 -2.5 30v30v213h148v90h-148v170h-117v-170h-73v-90h73v-267c0 -34 4.5 -61.333 13.5 -82
s22.167 -38 39.5 -52c16.667 -13.333 35.5 -23.166 56.5 -29.499s49.5 -9.5 85.5 -9.5h73z" />
    <glyph glyph-name="u" unicode="u" horiz-adv-x="570" 
d="M530 95l-0.000976562 434.999h-117v-397c0 -5.33301 -0.333008 -10.666 -1 -15.999s-3.66699 -10.666 -9 -15.999c-7.33301 -7.33301 -18.666 -11 -33.999 -11h-97c-21.333 0 -39.833 2 -55.5 6s-28.834 13.333 -39.501 28c-7.33301 10 -12.5 22.167 -15.5 36.5
s-4.5 33.166 -4.5 56.499v313h-117v-334c0 -32.667 3.5 -62 10.5 -88s21.5 -48.667 43.5 -68c18 -15.333 37.833 -25.833 59.5 -31.5s47.834 -8.5 78.501 -8.5h187c14 0 28.5 1 43.5 3s28.167 7.66699 39.5 17c13.333 10.667 21.333 23.5 24 38.5s4 27.167 4 36.5z" />
    <glyph glyph-name="v" unicode="v" horiz-adv-x="519" 
d="M97 530l-120.997 0.000976562l202 -489c4.66699 -12 10.667 -21.167 18 -27.5s14.833 -11 22.5 -14s15.167 -4.66699 22.5 -5s13.666 -0.5 18.999 -0.5c7.33301 0 14.833 0.333008 22.5 1s15 2.5 22 5.5s13.667 7.66699 20 14s11.833 15.166 16.5 26.499l202 489h-121
l-148 -393c-1.33301 -4 -3.33301 -8.5 -6 -13.5s-5.33398 -7.5 -8.00098 -7.5s-5.33398 2.5 -8.00098 7.5s-4.66699 9.5 -6 13.5z" />
    <glyph glyph-name="w" unicode="w" horiz-adv-x="768" 
d="M88 529l-112.001 -0.00488281l126 -463c2 -7.33301 4.5 -15.166 7.5 -23.499s7.66699 -16 14 -23s15 -13 26 -18s25.5 -7.5 43.5 -7.5c15.333 0 28.333 1.83301 39 5.5s19.5 8.33398 26.5 14.001s12.5 12 16.5 19s7 13.833 9 20.5l92 332c0.666992 2 1.5 5.33301 2.5 10
s2.83301 7 5.5 7s4.5 -2.33301 5.5 -7s1.83301 -8 2.5 -10l92 -332c4 -13.333 9.66699 -24 17 -32s15.333 -14 24 -18s17.334 -6.5 26.001 -7.5s16.667 -1.5 24 -1.5c10 0 19.5 0.833008 28.5 2.5s17.5 5 25.5 10s15.167 12.333 21.5 22s11.5 22.167 15.5 37.5l126 463h-112
l-101 -391c-1.33301 -3.33301 -2.83301 -6.83301 -4.5 -10.5s-3.83398 -5.5 -6.50098 -5.5s-4.66699 2 -6 6l-3 9l-98 350c-3.33301 10.667 -8 19.334 -14 26.001s-12.667 11.667 -20 15s-14.833 5.5 -22.5 6.5s-14.5 1.5 -20.5 1.5
c-5.33301 0 -11.666 -0.333008 -18.999 -1s-14.666 -2.66699 -21.999 -6s-14.333 -8.16602 -21 -14.499s-11.667 -15.5 -15 -27.5l-97 -350c-0.666992 -1.33301 -1.66699 -4.16602 -3 -8.49902s-3.66602 -6.5 -6.99902 -6.5c-2.66699 0 -4.83398 2 -6.50098 6
s-2.83398 7.33301 -3.50098 10z" />
    <glyph glyph-name="x" unicode="x" horiz-adv-x="493" 
d="M517 0l-203 272l189 258h-133l-124 -182l-124 182h-133l190 -258l-203 -272h137l133 196l134 -196h137z" />
    <glyph glyph-name="y" unicode="y" horiz-adv-x="542" 
d="M566 528h-119l-180 -405l-170 407h-121l236 -528l-81 -173h119z" />
    <glyph glyph-name="z" unicode="z" horiz-adv-x="465" 
d="M77 0l383.001 0.000976562v90h-302h-6c-2 0 -3 1.66699 -3 5s2.66699 7.66602 8 12.999l275 283c7.33301 7.33301 14.333 16.166 21 26.499s10 25.5 10 45.5c0 21.333 -6.33301 37.833 -19 49.5s-29.334 17.5 -50.001 17.5h-375v-90h289c4 0 6.66699 -1 8 -3
s2 -3.66699 2 -5s-0.5 -2.83301 -1.5 -4.5s-3.16699 -4.16699 -6.5 -7.5l-272 -273c-9.33301 -9.33301 -17.666 -19.333 -24.999 -30s-11 -26 -11 -46c0 -17.333 3 -30.666 9 -39.999s13.167 -16.333 21.5 -21s16.666 -7.5 24.999 -8.5s14.833 -1.5 19.5 -1.5z" />
    <glyph glyph-name="braceleft" unicode="{" horiz-adv-x="317" 
d="M116 288c10.667 4 19.167 9.6748 25.5 17.0078s11.166 15.166 14.499 23.499s5.33301 17.166 6 26.499s1 18.333 1 27v126c0 13.333 2.33301 29 7 47s14.667 32.667 30 44c9.33301 6.66699 20.5 12.167 33.5 16.5s27.5 5.83301 43.5 4.5v84
c-18 1.33301 -37.5 0.166016 -58.5 -3.50098s-40.167 -9.5 -57.5 -17.5s-31.333 -17.5 -42 -28.5s-19.167 -22.5 -25.5 -34.5s-10.833 -24.167 -13.5 -36.5s-4.33398 -23.833 -5.00098 -34.5c0 -2.66699 -0.166992 -7 -0.5 -13s-0.666016 -12.333 -0.999023 -19l-1 -19.5
c-0.333008 -6.33301 -0.5 -11.5 -0.5 -15.5v-111c0 -14.667 -4.33301 -27.334 -13 -38.001s-21.667 -16.667 -39 -18v-62c17.333 -1.33301 30.333 -7.33301 39 -18s13 -23.334 13 -38.001v-111c0 -4 0.166992 -9.16699 0.5 -15.5l1 -19.5
c0.333008 -6.66699 0.666016 -13 0.999023 -19s0.5 -10.333 0.5 -13c0.666992 -10.667 2.33398 -22.167 5.00098 -34.5s7.16699 -24.5 13.5 -36.5s14.833 -23.5 25.5 -34.5s24.667 -20.5 42 -28.5s36.5 -13.833 57.5 -17.5s40.5 -4.83398 58.5 -3.50098v84
c-16 -1.33301 -30.5 0.166992 -43.5 4.5s-24.167 9.83301 -33.5 16.5c-15.333 11.333 -25.333 26 -30 44s-7 33.667 -7 47v126c0 8.66699 -0.333008 17.667 -1 27s-2.66699 18.166 -6 26.499s-8.16602 16.166 -14.499 23.499s-14.833 13 -25.5 17v8z" />
    <glyph glyph-name="bar" unicode="|" horiz-adv-x="190" 
d="M60 -166h70v906h-70v-906z" />
    <glyph glyph-name="braceright" unicode="}" horiz-adv-x="317" 
d="M181 288v-8.00781c-11.333 -4 -20 -9.66699 -26 -17s-10.667 -15.166 -14 -23.499s-5.33301 -17.166 -6 -26.499s-1 -18.333 -1 -27v-126c0 -13.333 -2.33301 -29 -7 -47s-14.667 -32.667 -30 -44c-9.33301 -6.66699 -20.5 -12.167 -33.5 -16.5
s-27.5 -5.83301 -43.5 -4.5v-84c18 -1.33301 37.5 -0.166016 58.5 3.50098s40.167 9.5 57.5 17.5s31.333 17.5 42 28.5s19.167 22.5 25.5 34.5s10.666 24.167 12.999 36.5s4.16602 23.833 5.49902 34.5c0 2.66699 0.166992 7 0.5 13s0.666016 12.333 0.999023 19l1 19.5
c0.333008 6.33301 0.5 11.5 0.5 15.5v111c0 14.667 4.33301 27.334 13 38.001s21.667 16.667 39 18v62c-17.333 1.33301 -30.333 7.33301 -39 18s-13 23.334 -13 38.001v111c0 4 -0.166992 9.16699 -0.5 15.5l-1 19.5c-0.333008 6.66699 -0.666016 13 -0.999023 19
s-0.5 10.333 -0.5 13c-1.33301 10.667 -3.16602 22.167 -5.49902 34.5s-6.66602 24.5 -12.999 36.5s-14.833 23.5 -25.5 34.5s-24.667 20.5 -42 28.5s-36.5 13.833 -57.5 17.5s-40.5 4.83398 -58.5 3.50098v-84c16 1.33301 30.5 -0.166992 43.5 -4.5
s24.167 -9.83301 33.5 -16.5c15.333 -11.333 25.333 -26 30 -44s7 -33.667 7 -47v-126c0 -8.66699 0.333008 -17.667 1 -27s2.66699 -18.166 6 -26.499s8 -16.166 14 -23.499s14.667 -13 26 -17z" />
    <glyph glyph-name="asciitilde" unicode="~" horiz-adv-x="633" 
d="M119 299c5.33301 7.33301 12.332 16.1689 20.999 26.502s17 18.166 25 23.499c7.33301 4.66699 15.5 8.5 24.5 11.5s18.5 4.5 28.5 4.5c8.66699 0 18.834 -1.16699 30.501 -3.5s24.5 -7.5 38.5 -15.5l46 -27c8.66699 -5.33301 19.667 -10.333 33 -15s28.666 -7 45.999 -7
c18 0 34 2.83301 48 8.5s27 13.167 39 22.5s24.667 21 38 35s25.333 28.667 36 44l-60 52c-5.33301 -8.66699 -11.333 -17.5 -18 -26.5s-13.667 -16.833 -21 -23.5c-18 -16 -38.667 -24 -62 -24c-15.333 0 -28.833 2.16699 -40.5 6.5s-20.5 8.16602 -26.5 11.499l-54 31
c-11.333 6.66699 -23.5 11.667 -36.5 15s-25.5 5 -37.5 5c-13.333 0 -27 -2.33301 -41 -7s-27.333 -11 -40 -19c-14.667 -9.33301 -28.667 -21 -42 -35s-24.666 -27.667 -33.999 -41z" />
    <glyph glyph-name="nonbreakingspace" unicode="&#xa0;" horiz-adv-x="233" 
 />
    <glyph glyph-name="exclamdown" unicode="&#xa1;" horiz-adv-x="258" 
d="M68 700v-124h122v124h-122zM189 505h-120l-9 -505h138z" />
    <glyph glyph-name="cent" unicode="&#xa2;" horiz-adv-x="554" 
d="M375 -68l-0.00195312 68.002h139v105h-139v320h122v105h-122v68h-84v-68h-36c-15.333 0 -31.5 -0.833008 -48.5 -2.5s-33.833 -5.83398 -50.5 -12.501s-32.5 -16.167 -47.5 -28.5s-27.833 -29.5 -38.5 -51.5c-11.333 -22.667 -19.166 -48.667 -23.499 -78
s-6.5 -59.333 -6.5 -90c0 -16 0.666992 -32.667 2 -50s3.33301 -34.166 6 -50.499s6.33398 -32 11.001 -47s10 -27.833 16 -38.5c10.667 -18 23.5 -32.333 38.5 -43s30.667 -18.834 47 -24.501s32.5 -9.33398 48.5 -11.001s30.667 -2.5 44 -2.5h38v-68h84zM290.998 105.002
l-42 0.000976562c-10.667 0 -20.667 3.16699 -30 9.5s-16.666 14.166 -21.999 23.499c-6.66699 10 -11.834 24.833 -15.501 44.5s-5.5 48.834 -5.5 87.501c0 35.333 1.33301 61.666 4 78.999s6.66699 31.333 12 42c8 14.667 17 24 27 28s19 6 27 6h45v-320z" />
    <glyph glyph-name="sterling" unicode="&#xa3;" horiz-adv-x="637" 
d="M667 0l0.00195312 105h-401c-4 0 -8.66699 0.666992 -14 2s-9.33301 3 -12 5c-4 3.33301 -6.16699 7.66602 -6.5 12.999s-0.5 10.666 -0.5 15.999v240h226v88h-226c-0.666992 31.333 1.16602 53.833 5.49902 67.5s8.16602 22.5 11.499 26.5
c10.667 15.333 24.667 24.5 42 27.5s34 4.5 50 4.5h115v105h-169c-39.333 0 -71.166 -6.5 -95.499 -19.5s-43.166 -29.167 -56.499 -48.5c-16.667 -23.333 -26.667 -48.666 -30 -75.999s-5 -56.333 -5 -87h-61v-88h61v-285c0 -12.667 1.16699 -26.167 3.5 -40.5
s8.83301 -26.166 19.5 -35.499c9.33301 -9.33301 21.166 -15 35.499 -17s27.166 -3 38.499 -3h469z" />
    <glyph glyph-name="currency" unicode="&#xa4;" horiz-adv-x="602" 
d="M60 163l71.001 -71.999l64 65c19.333 -11.333 38.166 -19 56.499 -23s34.5 -6 48.5 -6c17.333 0 34.666 2.16699 51.999 6.5s34.666 12.166 51.999 23.499l64 -63l71 70l-64 64c11.333 18.667 19.166 37 23.499 55s6.5 34.333 6.5 49
c0 25.333 -3.83301 47.166 -11.5 65.499s-13.5 31.166 -17.5 38.499l66 65l-73 71l-65 -65c-11.333 8 -25.166 15 -41.499 21s-37.166 9 -62.499 9c-23.333 0 -43.333 -2.66699 -60 -8s-32 -12.666 -46 -21.999l-62 63l-71 -71l63 -62
c-7.33301 -11.333 -14.166 -25.5 -20.499 -42.5s-9.5 -37.833 -9.5 -62.5c0 -26 3.5 -47.667 10.5 -65s13.5 -30.666 19.5 -39.999zM194.001 332.001c0 30 10.167 55.167 30.5 75.5s45.5 30.5 75.5 30.5s55.167 -10.167 75.5 -30.5s30.5 -45.5 30.5 -75.5
s-10.167 -55.167 -30.5 -75.5s-45.5 -30.5 -75.5 -30.5s-55.167 10.167 -75.5 30.5s-30.5 45.5 -30.5 75.5z" />
    <glyph glyph-name="yen" unicode="&#xa5;" horiz-adv-x="604" 
d="M568 268v89h-134l200 343h-142l-190 -337l-190 337h-142l200 -343h-134v-89h186l14 -24v-51h-200v-89h200v-104h132v104h200v89h-200v51l14 24h186z" />
    <glyph glyph-name="brokenbar" unicode="&#xa6;" horiz-adv-x="150" 
d="M40 -63h70v300h-70v-300zM40 440h70v300h-70v-300z" />
    <glyph glyph-name="section" unicode="&#xa7;" horiz-adv-x="525" 
d="M111 -173l185 -0.00195312c17.333 0 34.666 1.33301 51.999 4s34 9.33398 50 20.001c11.333 7.33301 22.333 18.5 33 33.5s16 35.167 16 60.5c0 14 -2 26.833 -6 38.5s-8.83301 22.167 -14.5 31.5s-12 17.666 -19 24.999s-13.5 13.666 -19.5 18.999l-63 54
c12 0 25.667 1.33301 41 4s29 7.66699 41 15c14 8 27.167 20.667 39.5 38s18.5 40.666 18.5 69.999c0 33.333 -6.66699 59.833 -20 79.5s-27.333 35.834 -42 48.501l-185 157c-7.33301 6 -14.166 13 -20.499 21s-9.5 15.667 -9.5 23s1.5 13 4.5 17s6.83301 6.83301 11.5 8.5
s9.66699 2.66699 15 3s10.333 0.5 15 0.5h180v102h-198c-19.333 0 -37.833 -2 -55.5 -6s-34.5 -13.667 -50.5 -29c-10 -10 -18 -21.667 -24 -35s-9 -28.666 -9 -45.999c0 -26.667 4.83301 -47.667 14.5 -63s20.167 -27.666 31.5 -36.999l70 -60
c-13.333 -1.33301 -27.333 -4.16602 -42 -8.49902s-27.667 -10.833 -39 -19.5c-15.333 -11.333 -27.833 -26.5 -37.5 -45.5s-14.5 -40.5 -14.5 -64.5c0 -17.333 3.66699 -36.333 11 -57s22.333 -40.667 45 -60l184 -157c10 -8.66699 18.5 -17 25.5 -25s10.5 -16 10.5 -24
c0 -9.33301 -2.5 -16.333 -7.5 -21s-11 -8 -18 -10s-14.167 -3 -21.5 -3h-18h-160v-102zM237 188.998l-42.001 35.0039c-9.33301 8 -15.666 17.167 -18.999 27.5s-5 19.166 -5 26.499c0 12.667 3.66699 24.667 11 36s17.666 19.666 30.999 24.999
c9.33301 3.33301 20.833 5.5 34.5 6.5s25.167 1.16699 34.5 0.5l51 -40c8.66699 -6.66699 14.334 -14.5 17.001 -23.5s4 -17.5 4 -25.5c0 -19.333 -5 -33.333 -15 -42s-22 -15 -36 -19c-2.66699 -0.666992 -10 -2.33398 -22 -5.00098s-26.667 -3.33398 -44 -2.00098z" />
    <glyph glyph-name="dieresis" unicode="&#xa8;" horiz-adv-x="444" 
d="M276 600h108v108h-108v-108zM168 600v108h-108v-108h108z" />
    <glyph glyph-name="copyright" unicode="&#xa9;" horiz-adv-x="863" 
d="M432 708c-18.667 0 -38.502 -0.333984 -59.502 -1.00098s-42.333 -2.66699 -64 -6s-43 -8.33301 -64 -15s-40.833 -16 -59.5 -28c-28 -18 -50.167 -39 -66.5 -63s-28.833 -49.667 -37.5 -77s-14.334 -55.333 -17.001 -84s-4 -56.334 -4 -83.001
c0 -27.333 1.33301 -55.5 4 -84.5s8.33398 -57 17.001 -84s21.334 -52.5 38.001 -76.5s38.667 -45 66 -63c18.667 -12 38.5 -21.5 59.5 -28.5s42.333 -12.167 64 -15.5s42.834 -5.33301 63.501 -6s40.667 -1 60 -1c18.667 0 38.5 0.333008 59.5 1s42 2.66699 63 6
s42 8.5 63 15.5s41.167 16.5 60.5 28.5c24.667 16 45 34.5 61 55.5s28.833 44.333 38.5 70s16.334 53.834 20.001 84.501s5.5 63.334 5.5 98.001c0 34 -1.83301 66.167 -5.5 96.5s-10.167 58.5 -19.5 84.5s-22.166 49.5 -38.499 70.5s-36.833 39.5 -61.5 55.5
c-18.667 12 -38.5 21.333 -59.5 28s-42.333 11.667 -64 15s-42.834 5.33301 -63.501 6s-40.334 1 -59.001 1zM153.998 350.999c0 21.333 0.835938 43 2.50293 65s5.5 43.167 11.5 63.5s14.667 39.333 26 57s26.666 32.834 45.999 45.501c6 4 14.167 8.5 24.5 13.5
s23.166 9.66699 38.499 14s33.666 8 54.999 11s46 4.5 74 4.5s52.333 -1.5 73 -4.5s38.667 -6.66699 54 -11s28.166 -9 38.499 -14s18.833 -9.5 25.5 -13.5c19.333 -12.667 34.666 -27.834 45.999 -45.501s20 -36.667 26 -57s9.83301 -41.5 11.5 -63.5s2.5 -43.667 2.5 -65
c0 -22 -1 -44.5 -3 -67.5s-6 -45.333 -12 -67s-14.667 -41.667 -26 -60s-26.333 -34.166 -45 -47.499c-6.66699 -4.66699 -15 -9.5 -25 -14.5s-22.667 -9.66699 -38 -14s-33.5 -8 -54.5 -11s-45.5 -4.5 -73.5 -4.5s-52.667 1.5 -74 4.5s-39.666 6.66699 -54.999 11
s-28 9 -38 14s-18.333 9.83301 -25 14.5c-19.333 13.333 -34.666 29.166 -45.999 47.499s-20 38.333 -26 60s-9.83301 44 -11.5 67s-2.5 45.5 -2.5 67.5zM577.001 161.999l0.00390625 79.9971h-149c-13.333 0 -26.5 1.16699 -39.5 3.5s-24.167 10.5 -33.5 24.5
c-3.33301 4.66699 -6.5 12.334 -9.5 23.001s-4.5 27.667 -4.5 51c0 31.333 2.16699 53.5 6.5 66.5s7.16602 20.5 8.49902 22.5c5.33301 8.66699 11.166 15.167 17.499 19.5s13 7.33301 20 9s13.833 2.5 20.5 2.5h20h130v80h-165c-19.333 0 -40.5 -3 -63.5 -9
s-43.5 -20.333 -61.5 -43c-16.667 -21.333 -26.667 -44.833 -30 -70.5s-5 -49.167 -5 -70.5c0 -25.333 2 -49.666 6 -72.999s13.333 -44.666 28 -63.999c17.333 -24 36.166 -38.667 56.499 -44s41.166 -8 62.499 -8h185z" />
    <glyph glyph-name="ordfeminine" unicode="&#xaa;" horiz-adv-x="397" 
d="M83 708v-56.0029h145c5.33301 0 11 -0.333008 17 -1s11.333 -3.66699 16 -9c4 -4.66699 6.33301 -9.33398 7 -14.001s1 -9.33398 1 -14.001v-18h-129c-8 0 -16.667 -1 -26 -3s-18.666 -7.66699 -27.999 -17c-11.333 -11.333 -18.5 -24.166 -21.5 -38.499
s-4.5 -27.166 -4.5 -38.499c0 -14.667 1.83301 -28.5 5.5 -41.5s11.167 -24.5 22.5 -34.5c9.33301 -7.33301 18.5 -12.166 27.5 -14.499s17.167 -3.5 24.5 -3.5h142c7.33301 0 14.5 0.833008 21.5 2.5s13.5 5.83398 19.5 12.501c5.33301 6 8.66602 12.5 9.99902 19.5
s2 13.167 2 18.5v154c0 8.66699 -1.16699 19.834 -3.5 33.501s-8.83301 26.167 -19.5 37.5c-5.33301 6 -13 11.667 -23 17s-22.667 8 -38 8h-168zM269 539.997l-0.000976562 -62.001c0 -6.66699 -1.66699 -11 -5 -13c-1.33301 -1.33301 -3.66602 -2.16602 -6.99902 -2.49902
s-5.66602 -0.5 -6.99902 -0.5h-91c-5.33301 0 -9.83301 1 -13.5 3s-6.5 4 -8.5 6c-4 4.66699 -6.5 10 -7.5 16s-1.5 10.667 -1.5 14c0 4 0.333008 9 1 15s3 11.333 7 16c3.33301 3.33301 7.16602 5.5 11.499 6.5s8.5 1.5 12.5 1.5h109zM64.999 282.996h272v62h-272v-62z" />
    <glyph glyph-name="guillemotleft" unicode="&#xab;" horiz-adv-x="537" 
d="M298 473l-80.001 60.0049l-137 -191c-4.66699 -6.66699 -9.33398 -14.834 -14.001 -24.501s-7 -21.834 -7 -36.501s2.33301 -26.834 7 -36.501s9.33398 -17.834 14.001 -24.501l137 -190l80 59l-113 162c-3.33301 4 -6.16602 8.66699 -8.49902 14
s-3.5 10.666 -3.5 15.999c0 6.66699 1.5 12.5 4.5 17.5l7.5 12.5zM476.999 413.005l-80.001 59.999l-110 -141c-5.33301 -7.33301 -10.166 -15.5 -14.499 -24.5s-6.5 -17.833 -6.5 -26.5c0 -10 2.5 -19.667 7.5 -29s9.5 -16.666 13.5 -21.999l110 -152l80 59l-83 120
c-2 3.33301 -4.5 7 -7.5 11s-4.5 8.33301 -4.5 13c0 6 4 14 12 24z" />
    <glyph glyph-name="logicalnot" unicode="&#xac;" horiz-adv-x="534" 
d="M474 359h-414v-85h324v-142h90v227z" />
    <glyph glyph-name="uni00AD" unicode="&#xad;" horiz-adv-x="437" 
d="M40 218h357v103h-357v-103z" />
    <glyph glyph-name="uni00AD" unicode="&#x2010;" horiz-adv-x="437" 
d="M40 218h357v103h-357v-103z" />
    <glyph glyph-name="registered" unicode="&#xae;" horiz-adv-x="569" 
d="M279 265c14 0 28.834 0.329102 44.501 0.996094s31.5 2.5 47.5 5.5s31.333 7.83301 46 14.5s28 15.667 40 27c11.333 11.333 20.5 24.5 27.5 39.5s12.333 30.667 16 47s6 32.666 7 48.999s1.5 31.833 1.5 46.5s-0.5 30 -1.5 46s-3.5 32 -7.5 48s-9.83301 31.333 -17.5 46
s-17.834 27.667 -30.501 39c-22.667 20 -48.667 32 -78 36s-58.666 6 -87.999 6c-11.333 0 -24.833 -0.166992 -40.5 -0.5s-31.834 -2.16602 -48.501 -5.49902s-33.167 -8.66602 -49.5 -15.999s-30.5 -17.666 -42.5 -30.999c-11.333 -12 -20 -26 -26 -42
s-10.5 -32.167 -13.5 -48.5s-4.66699 -32.166 -5 -47.499s-0.5 -28.333 -0.5 -39c0 -26.667 2.16699 -54.167 6.5 -82.5s15.5 -53.833 33.5 -76.5c12 -15.333 25.5 -27.166 40.5 -35.499s30.5 -14.5 46.5 -18.5s31.833 -6.33301 47.5 -7s30.5 -1 44.5 -1zM278.001 318.996
c-38.667 0 -68.667 5.6709 -90 17.0039s-36.666 23.666 -45.999 36.999c-8 12 -13.667 27.667 -17 47s-5 44.333 -5 75c0 8.66699 0.166992 18.834 0.5 30.501s1.66602 23.5 3.99902 35.5s6 23.667 11 35s11.833 21.333 20.5 30s18.667 15.5 30 20.5s23 8.66699 35 11
s23.667 3.66602 35 3.99902s22 0.5 32 0.5s21 -0.333008 33 -1s24 -2.33398 36 -5.00098s23.5 -6.83398 34.5 -12.501s20.5 -13.834 28.5 -24.501c2.66699 -3.33301 5.66699 -7.83301 9 -13.5s6.5 -13.5 9.5 -23.5s5.5 -22.667 7.5 -38s3 -34 3 -56
c0 -11.333 -0.5 -23.333 -1.5 -36s-3 -25.334 -6 -38.001s-7.66699 -24.667 -14 -36s-14.5 -21 -24.5 -29l-11 -7c-5.33301 -3.33301 -13 -6.66602 -23 -9.99902s-22.5 -6.33301 -37.5 -9s-32.833 -4 -53.5 -4zM232.001 380l0.000976562 165.002c0 10 1.33301 16 4 18
c1.33301 1.33301 3.83301 2.16602 7.5 2.49902s6.5 0.5 8.5 0.5h51c4 0 8.16699 -0.333008 12.5 -1s8.16602 -2.66699 11.499 -6c4.66699 -4.66699 7 -10.334 7 -17.001v-23c0 -2.66699 -0.5 -5.5 -1.5 -8.5s-2.5 -5.16699 -4.5 -6.5c-2.66699 -2.66699 -11 -4 -25 -4h-22
c-11.333 0 -17.833 -3.16699 -19.5 -9.5s-2.5 -11.833 -2.5 -16.5c0 -3.33301 0.333008 -7.33301 1 -12s2.66699 -9 6 -13l60 -69h75l-75 81h21c6 0 12 0.833008 18 2.5s11.333 5 16 10s8.5 12.333 11.5 22s4.5 22.167 4.5 37.5c0 13.333 -1 25.833 -3 37.5
s-8 22.167 -18 31.5c-9.33301 8 -18.333 12.333 -27 13s-17 1 -25 1h-104c-6.66699 0 -14 -0.5 -22 -1.5s-14.667 -4.5 -20 -10.5c-3.33301 -3.33301 -5.33301 -7.33301 -6 -12s-1 -9 -1 -13v-199h61z" />
    <glyph glyph-name="macron" unicode="&#xaf;" horiz-adv-x="420" 
d="M380 600v84h-340v-84h340z" />
    <glyph glyph-name="macron" unicode="&#x2c9;" horiz-adv-x="420" 
d="M380 600v84h-340v-84h340z" />
    <glyph glyph-name="degree" unicode="&#xb0;" horiz-adv-x="340" 
d="M60 663c0 -15.333 2.83301 -29.666 8.5 -42.999s13.5 -25 23.5 -35s21.667 -17.833 35 -23.5s27.666 -8.5 42.999 -8.5c14.667 0 28.667 2.83301 42 8.5s25 13.5 35 23.5s18 21.667 24 35s9 27.666 9 42.999c0 14.667 -3 28.667 -9 42s-14 25 -24 35s-21.667 18 -35 24
s-27.333 9 -42 9c-15.333 0 -29.666 -3 -42.999 -9s-25 -14 -35 -24s-17.833 -21.667 -23.5 -35s-8.5 -27.333 -8.5 -42zM110 663c0 16.667 5.83301 30.834 17.5 42.501s25.834 17.5 42.501 17.5s30.834 -5.83301 42.501 -17.5s17.5 -25.834 17.5 -42.501
s-5.83301 -30.834 -17.5 -42.501s-25.834 -17.5 -42.501 -17.5s-30.834 5.83301 -42.501 17.5s-17.5 25.834 -17.5 42.501z" />
    <glyph glyph-name="plusminus" unicode="&#xb1;" horiz-adv-x="580" 
d="M336 198v184h184v85h-184v184h-91v-184h-185v-85h185v-184h91zM520 67v85h-460v-85h460z" />
    <glyph glyph-name="twosuperior" unicode="&#xb2;" horiz-adv-x="412" 
d="M83 298l273.998 -0.00390625v80h-176c-2.66699 0 -4 1.33301 -4 4c0 0.666992 0.666992 1.83398 2 3.50098s2.33301 2.83398 3 3.50098l140 92c5.33301 3.33301 11.166 8 17.499 14s11.5 12.333 15.5 19c9.33301 13.333 14.5 26.833 15.5 40.5s1.5 26.5 1.5 38.5
c0 15.333 -1.16699 30.333 -3.5 45s-9.16602 27.667 -20.499 39c-11.333 10.667 -24.333 17.334 -39 20.001s-27.667 4 -39 4h-204v-81h162c8 0 14.833 -0.333008 20.5 -1s12.167 -4.66699 19.5 -12c6 -6 9 -11 9 -15v-14c0 -9.33301 -0.666992 -17.166 -2 -23.499
s-9.33301 -14.166 -24 -23.499l-184 -122c-13.333 -9.33301 -21.166 -19.5 -23.499 -30.5s-3.5 -20.167 -3.5 -27.5c0 -4.66699 0.333008 -10 1 -16s2.33398 -11.833 5.00098 -17.5s7 -10.334 13 -14.001s14 -5.5 24 -5.5z" />
    <glyph glyph-name="threesuperior" unicode="&#xb3;" horiz-adv-x="394" 
d="M40 298l213.996 0.00292969c16 0 30.333 2.16699 43 6.5s23 10.166 31 17.499c13.333 12 21 25.333 23 40s3 30.667 3 48c0 12 -0.833008 24.5 -2.5 37.5s-7.83398 24.833 -18.501 35.5c-14 12.667 -30.667 19 -50 19v1c20 2 35.667 9.33301 47 22
c9.33301 10 15 21.333 17 34s3 24.667 3 36c0 9.33301 -1 21.5 -3 36.5s-7.66699 28.167 -17 39.5c-6 6.66699 -12.667 12 -20 16s-14.666 7 -21.999 9s-14.666 3.33301 -21.999 4s-13.666 1 -18.999 1h-201v-80h162c6 0 12.167 -0.666992 18.5 -2s12.166 -5 17.499 -11
c2.66699 -3.33301 5 -8 7 -14s3 -11.333 3 -16c0 -9.33301 -3.33301 -17.333 -10 -24s-14 -10.334 -22 -11.001s-15 -1 -21 -1h-152v-79h157c6 0 12.5 -0.666992 19.5 -2s13.167 -4 18.5 -8c11.333 -8 17 -20.667 17 -38c0 -7.33301 -1.66699 -13.333 -5 -18
s-7.66602 -8.33398 -12.999 -11.001s-11.666 -4.5 -18.999 -5.5s-18.666 -1.5 -33.999 -1.5h-150v-81z" />
    <glyph glyph-name="acute" unicode="&#xb4;" horiz-adv-x="301" 
d="M201 767l-161 -133l59 -74l162 132z" />
    <glyph glyph-name="mu1" unicode="&#xb5;" horiz-adv-x="608" 
d="M60 -178l111.999 -0.000976562v243c9.33301 -16 19.833 -28.667 31.5 -38s23.5 -16.5 35.5 -21.5s23.333 -8.16699 34 -9.5s20 -2 28 -2c29.333 0 55.333 6.5 78 19.5s41.334 32.5 56.001 58.5v-72h113v530h-117v-330c0 -11.333 -1.83301 -21.666 -5.5 -30.999
s-7.83398 -17.666 -12.501 -24.999s-9.16699 -13.333 -13.5 -18s-7.16602 -7.66699 -8.49902 -9c-12.667 -12 -26 -20.667 -40 -26s-30.333 -8 -49 -8c-25.333 0 -45.333 4.16699 -60 12.5s-25.667 16.166 -33 23.499c-8.66699 9.33301 -16.167 21.333 -22.5 36
s-9.5 30.667 -9.5 48v327h-117v-708z" />
    <glyph glyph-name="mu1" unicode="&#x3bc;" horiz-adv-x="608" 
d="M60 -178l111.999 -0.000976562v243c9.33301 -16 19.833 -28.667 31.5 -38s23.5 -16.5 35.5 -21.5s23.333 -8.16699 34 -9.5s20 -2 28 -2c29.333 0 55.333 6.5 78 19.5s41.334 32.5 56.001 58.5v-72h113v530h-117v-330c0 -11.333 -1.83301 -21.666 -5.5 -30.999
s-7.83398 -17.666 -12.501 -24.999s-9.16699 -13.333 -13.5 -18s-7.16602 -7.66699 -8.49902 -9c-12.667 -12 -26 -20.667 -40 -26s-30.333 -8 -49 -8c-25.333 0 -45.333 4.16699 -60 12.5s-25.667 16.166 -33 23.499c-8.66699 9.33301 -16.167 21.333 -22.5 36
s-9.5 30.667 -9.5 48v327h-117v-708z" />
    <glyph glyph-name="paragraph" unicode="&#xb6;" horiz-adv-x="727" 
d="M617 -170l0.000976562 766.997h70v103h-428c-20.667 0 -42.834 -1.66699 -66.501 -5s-46.167 -13.666 -67.5 -30.999c-14 -11.333 -25.167 -24 -33.5 -38s-14.833 -28.833 -19.5 -44.5s-7.83398 -31.5 -9.50098 -47.5s-2.5 -31 -2.5 -45
c0 -8.66699 0.333008 -18.667 1 -30s2.33398 -23.166 5.00098 -35.499s6.5 -24.833 11.5 -37.5s11.5 -24.667 19.5 -36c10 -13.333 20.833 -24 32.5 -32s23.667 -14.167 36 -18.5s24.833 -7.16602 37.5 -8.49902s25 -2 37 -2h95v-459h108v767h67v-767h107zM335.001 391.997
l-74 -0.000976562c-14 0 -28 1.83301 -42 5.5s-25.667 13.834 -35 30.501c-3.33301 5.33301 -6.33301 13 -9 23s-4 24.667 -4 44c0 11.333 1 24 3 38s7.66699 26.667 17 38c10.667 13.333 22 21 34 23s24 3 36 3h74v-205z" />
    <glyph glyph-name="periodcentered" unicode="&#xb7;" horiz-adv-x="242" 
d="M182 250v129h-122v-129h122z" />
    <glyph glyph-name="periodcentered" unicode="&#x22c5;" horiz-adv-x="242" 
d="M182 250v129h-122v-129h122z" />
    <glyph glyph-name="periodcentered" unicode="&#x2219;" horiz-adv-x="242" 
d="M182 250v129h-122v-129h122z" />
    <glyph glyph-name="cedilla" unicode="&#xb8;" horiz-adv-x="258" 
d="M40 -190l85.9971 -0.000976562c10.667 0 21.834 0.666992 33.501 2s22.167 5.33301 31.5 12c6.66699 4.66699 12.834 11.667 18.501 21s8.5 22.666 8.5 39.999c0 9.33301 -1.5 19 -4.5 29s-9.16699 18.667 -18.5 26c-8 6.66699 -16.5 10.834 -25.5 12.501
s-17.167 2.5 -24.5 2.5h-13c-1.33301 0 -3 0.166992 -5 0.5s-3 1.83301 -3 4.5c0 0.666992 0.333008 1.83398 1 3.50098s1.33398 3.16699 2.00098 4.5l16 32h-60l-26 -53l-4.5 -11c-1.66699 -4 -2.5 -8.33301 -2.5 -13c0 -8.66699 3 -15 9 -19
c3.33301 -2 7.33301 -3.33301 12 -4s8.66699 -1 12 -1h37c5.33301 0 11 -0.666992 17 -2s9 -6 9 -14s-3.16699 -12.833 -9.5 -14.5s-12.5 -2.5 -18.5 -2.5h-78v-56z" />
    <glyph glyph-name="onesuperior" unicode="&#xb9;" horiz-adv-x="226" 
d="M76 297l89.999 -0.000976562v351c0 6.66699 -0.833008 13.834 -2.5 21.501s-6.16699 14.5 -13.5 20.5c-6 5.33301 -12.667 8.5 -20 9.5s-13.666 1.5 -18.999 1.5h-101v-81h47c6.66699 0 11.667 -2.33301 15 -7c2 -3.33301 3.16699 -6.83301 3.5 -10.5s0.5 -7.5 0.5 -11.5
v-294z" />
    <glyph glyph-name="ordmasculine" unicode="&#xba;" horiz-adv-x="440" 
d="M220 715c-20 0 -41.1689 -2 -63.502 -6s-42.166 -15 -59.499 -33c-16.667 -16.667 -27 -35.5 -31 -56.5s-6 -42.5 -6 -64.5c0 -20 2 -40.833 6 -62.5s14.333 -40.834 31 -57.501c8 -8.66699 17.167 -15.5 27.5 -20.5s21 -8.83301 32 -11.5s22 -4.5 33 -5.5
s21.167 -1.5 30.5 -1.5s19.5 0.5 30.5 1.5s22 2.83301 33 5.5s21.667 6.5 32 11.5s19.5 11.833 27.5 20.5c16.667 16.667 27 35.834 31 57.501s6 42.5 6 62.5c0 22 -2 43.5 -6 64.5s-14.333 39.833 -31 56.5c-17.333 18 -37.166 29 -59.499 33s-43.5 6 -63.5 6zM124.998 555
c0 13.333 1.33301 27.165 4 41.498s8 25.833 16 34.5c10.667 11.333 23.667 18.166 39 20.499s27.333 3.5 36 3.5c9.33301 0 21.5 -1.16699 36.5 -3.5s27.833 -9.16602 38.5 -20.499c10 -11.333 15.833 -24 17.5 -38s2.5 -26.667 2.5 -38c0 -13.333 -1 -26.666 -3 -39.999
s-7.66699 -25 -17 -35c-10.667 -11.333 -23.5 -18.166 -38.5 -20.499s-27.167 -3.5 -36.5 -3.5c-4 0 -9.16699 0.166992 -15.5 0.5s-13 1.33301 -20 3s-14 4 -21 7s-13.167 7.5 -18.5 13.5c-8 9.33301 -13.333 21 -16 35s-4 27.333 -4 40zM63.998 282.999h312v62h-312v-62z
" />
    <glyph glyph-name="guillemotright" unicode="&#xbb;" horiz-adv-x="537" 
d="M239 473l112.999 -162.005l7.5 -12.5c3 -5 4.5 -10.833 4.5 -17.5c0 -5.33301 -1.16699 -10.666 -3.5 -15.999s-5.16602 -10 -8.49902 -14l-113 -162l80 -59l137 190c4.66699 6.66699 9.33398 14.834 14.001 24.501s7 21.834 7 36.501s-2.33301 26.834 -7 36.501
s-9.33398 17.834 -14.001 24.501l-137 191zM59.999 412.995l82.999 -107.999c8 -10 12 -18 12 -24c0 -4.66699 -1.5 -9 -4.5 -13s-5.5 -7.66699 -7.5 -11l-83 -120l80 -59l110 152c4 5.33301 8.5 12.666 13.5 21.999s7.5 19 7.5 29c0 8.66699 -2.16699 17.5 -6.5 26.5
s-9.16602 17.167 -14.499 24.5l-110 141z" />
    <glyph glyph-name="onequarter" unicode="&#xbc;" horiz-adv-x="793" 
d="M121 0h88l357 700h-88zM126 296l89.999 -0.000976562v351c0 6.66699 -0.833008 13.834 -2.5 21.501s-6.16699 14.5 -13.5 20.5c-6 5.33301 -12.667 8.5 -20 9.5s-13.666 1.5 -18.999 1.5h-101v-81h47c6.66699 0 11.667 -2.33301 15 -7
c2 -3.33301 3.16699 -6.83301 3.5 -10.5s0.5 -7.5 0.5 -11.5v-294zM595.999 -0.000976562h85v62h52v69h-52v234c0 4.66699 -0.333008 9.66699 -1 15s-3.66699 10.666 -9 15.999c-5.33301 4.66699 -12.166 8 -20.499 10s-16.5 3 -24.5 3c-21.333 0 -36.5 -3.16699 -45.5 -9.5
s-15.167 -11.166 -18.5 -14.499l-196 -210c-4.66699 -5.33301 -9.33398 -11.666 -14.001 -18.999s-7 -18.333 -7 -33c0 -6.66699 1 -13.834 3 -21.501s6.33301 -15.167 13 -22.5s13 -12 19 -14s13 -3 21 -3h195v-62zM595.999 130.999l-155 0.000976562
c-7.33301 0 -11 2.33301 -11 7c0 0.666992 0.333008 1.66699 1 3s2.66699 3.66602 6 6.99902l150 162l6 6c2 0 3 -0.666992 3 -2v-183z" />
    <glyph glyph-name="onehalf" unicode="&#xbd;" horiz-adv-x="833" 
d="M121 0h88l357 700h-88zM126 296l89.999 -0.000976562v351c0 6.66699 -0.833008 13.834 -2.5 21.501s-6.16699 14.5 -13.5 20.5c-6 5.33301 -12.667 8.5 -20 9.5s-13.666 1.5 -18.999 1.5h-101v-81h47c6.66699 0 11.667 -2.33301 15 -7
c2 -3.33301 3.16699 -6.83301 3.5 -10.5s0.5 -7.5 0.5 -11.5v-294zM483.999 -0.000976562l273.998 -0.00390625v80h-176c-2.66699 0 -4 1.33301 -4 4c0 0.666992 0.666992 1.83398 2 3.50098s2.33301 2.83398 3 3.50098l140 92c5.33301 3.33301 11.166 8 17.499 14
s11.5 12.333 15.5 19c9.33301 13.333 14.5 26.833 15.5 40.5s1.5 26.5 1.5 38.5c0 15.333 -1.16699 30.333 -3.5 45s-9.16602 27.667 -20.499 39c-11.333 10.667 -24.333 17.334 -39 20.001s-27.667 4 -39 4h-204v-81h162c8 0 14.833 -0.333008 20.5 -1
s12.167 -4.66699 19.5 -12c6 -6 9 -11 9 -15v-14c0 -9.33301 -0.666992 -17.166 -2 -23.499s-9.33301 -14.166 -24 -23.499l-184 -122c-13.333 -9.33301 -21.166 -19.5 -23.499 -30.5s-3.5 -20.167 -3.5 -27.5c0 -4.66699 0.333008 -10 1 -16s2.33398 -11.833 5.00098 -17.5
s7 -10.334 13 -14.001s14 -5.5 24 -5.5z" />
    <glyph glyph-name="threequarters" unicode="&#xbe;" horiz-adv-x="933" 
d="M261 0h88l357 700h-88zM736 0h85v62h52v69h-52v234c0 4.66699 -0.333008 9.66699 -1 15s-3.66699 10.666 -9 15.999c-5.33301 4.66699 -12.166 8 -20.499 10s-16.5 3 -24.5 3c-21.333 0 -36.5 -3.16699 -45.5 -9.5s-15.167 -11.166 -18.5 -14.499l-196 -210
c-4.66699 -5.33301 -9.33398 -11.666 -14.001 -18.999s-7 -18.333 -7 -33c0 -6.66699 1 -13.834 3 -21.501s6.33301 -15.167 13 -22.5s13 -12 19 -14s13 -3 21 -3h195v-62zM736 131l-155 0.000976562c-7.33301 0 -11 2.33301 -11 7c0 0.666992 0.333008 1.66699 1 3
s2.66699 3.66602 6 6.99902l150 162l6 6c2 0 3 -0.666992 3 -2v-183zM60 297.001l213.996 0.00292969c16 0 30.333 2.16699 43 6.5s23 10.166 31 17.499c13.333 12 21 25.333 23 40s3 30.667 3 48c0 12 -0.833008 24.5 -2.5 37.5s-7.83398 24.833 -18.501 35.5
c-14 12.667 -30.667 19 -50 19v1c20 2 35.667 9.33301 47 22c9.33301 10 15 21.333 17 34s3 24.667 3 36c0 9.33301 -1 21.5 -3 36.5s-7.66699 28.167 -17 39.5c-6 6.66699 -12.667 12 -20 16s-14.666 7 -21.999 9s-14.666 3.33301 -21.999 4s-13.666 1 -18.999 1h-201v-80
h162c6 0 12.167 -0.666992 18.5 -2s12.166 -5 17.499 -11c2.66699 -3.33301 5 -8 7 -14s3 -11.333 3 -16c0 -9.33301 -3.33301 -17.333 -10 -24s-14 -10.334 -22 -11.001s-15 -1 -21 -1h-152v-79h157c6 0 12.5 -0.666992 19.5 -2s13.167 -4 18.5 -8
c11.333 -8 17 -20.667 17 -38c0 -7.33301 -1.66699 -13.333 -5 -18s-7.66602 -8.33398 -12.999 -11.001s-11.666 -4.5 -18.999 -5.5s-18.666 -1.5 -33.999 -1.5h-150v-81z" />
    <glyph glyph-name="questiondown" unicode="&#xbf;" horiz-adv-x="484" 
d="M369 700h-122v-124h122v124zM247 505l-0.00195312 -54.9951c0 -6 -0.5 -12.167 -1.5 -18.5s-3.83301 -12.5 -8.5 -18.5c-3.33301 -4 -8.33301 -9 -15 -15s-13 -10.667 -19 -14l-77 -47c-20 -12 -35.667 -24.5 -47 -37.5s-19.833 -26.5 -25.5 -40.5
s-9.33398 -28.333 -11.001 -43s-2.5 -29.334 -2.5 -44.001c0 -19.333 2 -41 6 -65s13.667 -45 29 -63c9.33301 -10.667 19.833 -19 31.5 -25s23.167 -10.333 34.5 -13s22.333 -4.33398 33 -5.00098s19.667 -1 27 -1h263v105h-203c-11.333 0 -22.666 0.5 -33.999 1.5
s-22.666 6.83301 -33.999 17.5c-10 10 -16 21 -18 33s-3 24 -3 36c0 14.667 1.33301 27 4 37s6.5 18.5 11.5 25.5s10.833 13 17.5 18s14.334 10.167 23.001 15.5l65 39c10 6 20 13.167 30 21.5s18.667 17.166 26 26.499c8 11.333 13.333 22.666 16 33.999s4 23.666 4 36.999
v58h-122z" />
    <glyph glyph-name="Agrave" unicode="&#xc0;" horiz-adv-x="698" 
d="M-30 0h138.999l71 177h337l72 -177h139l-264 629c-12.667 29.333 -27.5 49.833 -44.5 61.5s-40.5 17.5 -70.5 17.5c-31.333 0 -55.166 -5.83301 -71.499 -17.5s-30.833 -32.167 -43.5 -61.5zM328.999 556c2 5.33301 4.66699 11.5 8 18.5s7.33301 10.5 12 10.5
s8.66699 -3.5 12 -10.5s6 -13.167 8 -18.5l114 -285h-269zM284.999 949l-60 -75l162 -132l59 74z" />
    <glyph glyph-name="Aacute" unicode="&#xc1;" horiz-adv-x="698" 
d="M-30 0h138.999l71 177h337l72 -177h139l-264 629c-12.667 29.333 -27.5 49.833 -44.5 61.5s-40.5 17.5 -70.5 17.5c-31.333 0 -55.166 -5.83301 -71.499 -17.5s-30.833 -32.167 -43.5 -61.5zM328.999 556c2 5.33301 4.66699 11.5 8 18.5s7.33301 10.5 12 10.5
s8.66699 -3.5 12 -10.5s6 -13.167 8 -18.5l114 -285h-269zM404.999 953l-161 -133l59 -74l162 132z" />
    <glyph glyph-name="Acircumflex" unicode="&#xc2;" horiz-adv-x="698" 
d="M-30 0h138.999l71 177h337l72 -177h139l-264 629c-12.667 29.333 -27.5 49.833 -44.5 61.5s-40.5 17.5 -70.5 17.5c-31.333 0 -55.166 -5.83301 -71.499 -17.5s-30.833 -32.167 -43.5 -61.5zM328.999 556c2 5.33301 4.66699 11.5 8 18.5s7.33301 10.5 12 10.5
s8.66699 -3.5 12 -10.5s6 -13.167 8 -18.5l114 -285h-269zM490.999 734l46 62l-141 113c-7.33301 5.33301 -14.833 9.66602 -22.5 12.999s-16.167 5 -25.5 5s-17.833 -1.66699 -25.5 -5s-15.167 -7.66602 -22.5 -12.999l-140 -113l46 -62l117 97
c4.66699 3.33301 8.83398 5.83301 12.501 7.5s8.16699 2.5 13.5 2.5c6.66699 0 11.667 -0.833008 15 -2.5s6.66602 -4.16699 9.99902 -7.5z" />
    <glyph glyph-name="Atilde" unicode="&#xc3;" horiz-adv-x="698" 
d="M-30 0h138.999l71 177h337l72 -177h139l-264 629c-12.667 29.333 -27.5 49.833 -44.5 61.5s-40.5 17.5 -70.5 17.5c-31.333 0 -55.166 -5.83301 -71.499 -17.5s-30.833 -32.167 -43.5 -61.5zM328.999 556c2 5.33301 4.66699 11.5 8 18.5s7.33301 10.5 12 10.5
s8.66699 -3.5 12 -10.5s6 -13.167 8 -18.5l114 -285h-269zM202.999 755c3.33301 6.66699 7.66699 13.502 13 20.502s10.666 12.167 15.999 15.5c4 3.33301 9 6.16602 15 8.49902s13 3.5 21 3.5c13.333 0 24 -2.16699 32 -6.5l23 -12.5l34 -20
c9.33301 -5.33301 20 -9.16602 32 -11.499s23 -3.5 33 -3.5c26 0 47.667 6.33301 65 19c11.333 7.33301 22.166 17.666 32.499 30.999s18.833 26.333 25.5 39l-51 33c-2 -4 -5.33301 -10 -10 -18s-8.66699 -14 -12 -18c-4 -4.66699 -9.5 -8.83398 -16.5 -12.501
s-15.833 -5.5 -26.5 -5.5c-12 0 -22.667 2.33301 -32 7l-24 12l-40 22c-11.333 6.66699 -22.333 11 -33 13s-19.667 3 -27 3c-13.333 0 -25.166 -1.83301 -35.499 -5.5s-19.166 -8.16699 -26.499 -13.5c-10.667 -7.33301 -21.5 -17.333 -32.5 -30s-19.833 -24 -26.5 -34z
" />
    <glyph glyph-name="Adieresis" unicode="&#xc4;" horiz-adv-x="698" 
d="M-30 0h138.999l71 177h337l72 -177h139l-264 629c-12.667 29.333 -27.5 49.833 -44.5 61.5s-40.5 17.5 -70.5 17.5c-31.333 0 -55.166 -5.83301 -71.499 -17.5s-30.833 -32.167 -43.5 -61.5zM328.999 556c2 5.33301 4.66699 11.5 8 18.5s7.33301 10.5 12 10.5
s8.66699 -3.5 12 -10.5s6 -13.167 8 -18.5l114 -285h-269zM519.999 760v110h-120v-110h120zM297.999 760v110h-120v-110h120z" />
    <glyph glyph-name="Aring" unicode="&#xc5;" horiz-adv-x="698" 
d="M-30 0h138.999l71 177h337l72 -177h139l-264 629c-12.667 29.333 -27.5 49.833 -44.5 61.5s-40.5 17.5 -70.5 17.5c-31.333 0 -55.166 -5.83301 -71.499 -17.5s-30.833 -32.167 -43.5 -61.5zM328.999 556c2 5.33301 4.66699 11.5 8 18.5s7.33301 10.5 12 10.5
s8.66699 -3.5 12 -10.5s6 -13.167 8 -18.5l114 -285h-269zM348.999 976c-13.333 0 -27.332 -1.16699 -41.999 -3.5s-28 -8.5 -40 -18.5c-8 -7.33301 -15.667 -18 -23 -32s-11 -34 -11 -60c0 -25.333 3.66699 -45 11 -59s15 -24.667 23 -32
c11.333 -10 24.666 -16.333 39.999 -19s29.333 -4 42 -4c21.333 0 38.5 2.33301 51.5 7s23.167 10 30.5 16c14.667 12 23.834 26.5 27.501 43.5s5.5 32.833 5.5 47.5c0 15.333 -1.83301 31.5 -5.5 48.5s-12.834 31.5 -27.501 43.5c-12.667 10.667 -26.5 17 -41.5 19
s-28.5 3 -40.5 3zM293 862c0 6 0.834961 13 2.50195 21s5.16699 15.333 10.5 22c6.66699 7.33301 13.667 11.833 21 13.5s14.666 2.5 21.999 2.5s14.666 -0.833008 21.999 -2.5s14 -6.16699 20 -13.5c5.33301 -6.66699 8.83301 -14 10.5 -22s2.5 -15 2.5 -21
c0 -6.66699 -0.833008 -13.667 -2.5 -21s-5.16699 -14.333 -10.5 -21c-3.33301 -4 -8.33301 -7.83301 -15 -11.5s-15.667 -5.5 -27 -5.5s-20.5 1.83301 -27.5 5.5s-12.167 7.5 -15.5 11.5c-5.33301 6.66699 -8.83301 13.667 -10.5 21s-2.5 14.333 -2.5 21z" />
    <glyph glyph-name="AE" unicode="&#xc6;" horiz-adv-x="1092" 
d="M-20 0l148 0.00390625l101 176h254v-75c0 -10.667 1.16699 -22.834 3.5 -36.501s9.16602 -26.5 20.499 -38.5c12.667 -12.667 26.834 -20.167 42.501 -22.5s30.5 -3.5 44.5 -3.5h458v105h-383c-8 0 -16 0.166992 -24 0.5s-14.667 2.83301 -20 7.5
c-3.33301 3.33301 -5.83301 7.83301 -7.5 13.5s-2.5 10.5 -2.5 14.5v167h424v96h-424v147c0 5.33301 0.5 11.166 1.5 17.499s4.16699 12.166 9.5 17.499s11 8.16602 17 8.49902s12 0.5 18 0.5h387v105h-567c-20.667 0 -40.5 -3 -59.5 -9s-35.833 -21 -50.5 -45zM455 566.004
c5.33301 9.33301 9.66699 16.168 13 20.501s8.33301 7.16602 15 8.49902v-320h-197z" />
    <glyph glyph-name="Ccedilla" unicode="&#xc7;" 
d="M629 105l-237.005 -0.00195312c-41.333 0 -77.666 4.33301 -108.999 13s-56 26.667 -74 54c-3.33301 5.33301 -7 12.333 -11 21s-7.66699 19.667 -11 33s-6 29.5 -8 48.5s-3 41.5 -3 67.5c0 52 3.83301 92.5 11.5 121.5s16.834 51.167 27.501 66.5
c10 14.667 21.5 26.334 34.5 35.001s27.333 15.334 43 20.001s32.5 7.5 50.5 8.5s36.667 1.5 56 1.5h219v105h-281c-12.667 0 -28.334 -0.666992 -47.001 -2s-38.667 -5 -60 -11s-42.666 -14.833 -63.999 -26.5s-40.666 -27.834 -57.999 -48.501
c-14.667 -17.333 -26.5 -36.5 -35.5 -57.5s-15.833 -43.333 -20.5 -67s-7.83398 -48 -9.50098 -73s-2.5 -49.833 -2.5 -74.5c0 -19.333 0.666992 -40.166 2 -62.499s4.33301 -44.833 9 -67.5s11.667 -45 21 -67s22.333 -42.333 39 -61c16 -18 33.5 -32.5 52.5 -43.5
s38.333 -19.333 58 -25s39.167 -9.33398 58.5 -11.001s37.333 -2.5 54 -2.5h61l-26 -53l-4.5 -11c-1.66699 -4 -2.5 -8.33301 -2.5 -13c0 -8.66699 3 -15 9 -19c3.33301 -2 7.33301 -3.33301 12 -4s8.66699 -1 12 -1h37c5.33301 0 11 -0.666992 17 -2s9 -6 9 -14
s-3.16699 -12.833 -9.5 -14.5s-12.5 -2.5 -18.5 -2.5h-78v-56h86c10.667 0 21.834 0.666992 33.501 2s22.167 5.33301 31.5 12c6.66699 4.66699 12.834 11.667 18.501 21s8.5 22.666 8.5 39.999c0 9.33301 -1.5 19 -4.5 29s-9.16699 18.667 -18.5 26
c-8 6.66699 -16.5 10.834 -25.5 12.501s-17.167 2.5 -24.5 2.5h-13c-1.33301 0 -3 0.166992 -5 0.5s-3 1.83301 -3 4.5c0 0.666992 0.333008 1.83398 1 3.50098s1.33398 3.16699 2.00098 4.5l16 32h174v105z" />
    <glyph glyph-name="Egrave" unicode="&#xc8;" horiz-adv-x="651" 
d="M621 0l0.00292969 105.001h-374c-10.667 0 -19.834 0.5 -27.501 1.5s-13.5 3.5 -17.5 7.5c-6.66699 5.33301 -10 14.333 -10 27v164h415v105h-415v141c0 5.33301 0.5 11 1.5 17s4.16699 11.667 9.5 17c5.33301 4.66699 11.166 7.5 17.499 8.5s12.5 1.5 18.5 1.5h378v105
h-449c-13.333 0 -27.833 -1.33301 -43.5 -4s-29.167 -10.334 -40.5 -23.001c-7.33301 -8.66699 -13.166 -19.5 -17.499 -32.5s-6.5 -26.5 -6.5 -40.5v-496c0 -13.333 1.33301 -27.5 4 -42.5s10 -28.167 22 -39.5c11.333 -11.333 23.666 -17.833 36.999 -19.5
s27.666 -2.5 42.999 -2.5h455zM275.003 947.001l-60 -75l162 -132l59 74z" />
    <glyph glyph-name="Eacute" unicode="&#xc9;" horiz-adv-x="651" 
d="M621 0l0.00292969 105.001h-374c-10.667 0 -19.834 0.5 -27.501 1.5s-13.5 3.5 -17.5 7.5c-6.66699 5.33301 -10 14.333 -10 27v164h415v105h-415v141c0 5.33301 0.5 11 1.5 17s4.16699 11.667 9.5 17c5.33301 4.66699 11.166 7.5 17.499 8.5s12.5 1.5 18.5 1.5h378v105
h-449c-13.333 0 -27.833 -1.33301 -43.5 -4s-29.167 -10.334 -40.5 -23.001c-7.33301 -8.66699 -13.166 -19.5 -17.499 -32.5s-6.5 -26.5 -6.5 -40.5v-496c0 -13.333 1.33301 -27.5 4 -42.5s10 -28.167 22 -39.5c11.333 -11.333 23.666 -17.833 36.999 -19.5
s27.666 -2.5 42.999 -2.5h455zM376.003 947.001l-161 -133l59 -74l162 132z" />
    <glyph glyph-name="Ecircumflex" unicode="&#xca;" horiz-adv-x="651" 
d="M621 0l0.00292969 105.001h-374c-10.667 0 -19.834 0.5 -27.501 1.5s-13.5 3.5 -17.5 7.5c-6.66699 5.33301 -10 14.333 -10 27v164h415v105h-415v141c0 5.33301 0.5 11 1.5 17s4.16699 11.667 9.5 17c5.33301 4.66699 11.166 7.5 17.499 8.5s12.5 1.5 18.5 1.5h378v105
h-449c-13.333 0 -27.833 -1.33301 -43.5 -4s-29.167 -10.334 -40.5 -23.001c-7.33301 -8.66699 -13.166 -19.5 -17.499 -32.5s-6.5 -26.5 -6.5 -40.5v-496c0 -13.333 1.33301 -27.5 4 -42.5s10 -28.167 22 -39.5c11.333 -11.333 23.666 -17.833 36.999 -19.5
s27.666 -2.5 42.999 -2.5h455zM484.003 744.001l46 62l-141 113c-7.33301 5.33301 -14.833 9.66602 -22.5 12.999s-16.167 5 -25.5 5s-17.833 -1.66699 -25.5 -5s-15.167 -7.66602 -22.5 -12.999l-140 -113l46 -62l117 97c4.66699 3.33301 8.83398 5.83301 12.501 7.5
s8.16699 2.5 13.5 2.5c6.66699 0 11.667 -0.833008 15 -2.5s6.66602 -4.16699 9.99902 -7.5z" />
    <glyph glyph-name="Edieresis" unicode="&#xcb;" horiz-adv-x="651" 
d="M621 0l0.00292969 105.001h-374c-10.667 0 -19.834 0.5 -27.501 1.5s-13.5 3.5 -17.5 7.5c-6.66699 5.33301 -10 14.333 -10 27v164h415v105h-415v141c0 5.33301 0.5 11 1.5 17s4.16699 11.667 9.5 17c5.33301 4.66699 11.166 7.5 17.499 8.5s12.5 1.5 18.5 1.5h378v105
h-449c-13.333 0 -27.833 -1.33301 -43.5 -4s-29.167 -10.334 -40.5 -23.001c-7.33301 -8.66699 -13.166 -19.5 -17.499 -32.5s-6.5 -26.5 -6.5 -40.5v-496c0 -13.333 1.33301 -27.5 4 -42.5s10 -28.167 22 -39.5c11.333 -11.333 23.666 -17.833 36.999 -19.5
s27.666 -2.5 42.999 -2.5h455zM519.003 766.001v110h-120v-110h120zM297.003 766.001v110h-120v-110h120z" />
    <glyph glyph-name="Igrave" unicode="&#xcc;" horiz-adv-x="252" 
d="M192 0v700h-132v-700h132zM77 947l-60 -75l162 -132l59 74z" />
    <glyph glyph-name="Iacute" unicode="&#xcd;" horiz-adv-x="252" 
d="M192 0v700h-132v-700h132zM178 947l-161 -133l59 -74l162 132z" />
    <glyph glyph-name="Icircumflex" unicode="&#xce;" horiz-adv-x="283" 
d="M208 0v700h-132v-700h132zM225 735l57.999 41.002l-87 118c-6.66699 9.33301 -15.167 15.666 -25.5 18.999s-20.166 5 -29.499 5c-7.33301 0 -16.333 -1.33301 -27 -4s-19.667 -9.33398 -27 -20.001l-87 -118l58 -41l66 97c2.66699 4 5.5 6.66699 8.5 8s6.16699 2 9.5 2
c4.66699 0 8.16699 -1 10.5 -3s4.5 -4.33301 6.5 -7z" />
    <glyph glyph-name="Idieresis" unicode="&#xcf;" horiz-adv-x="444" 
d="M288 0v700h-132v-700h132zM384 760v110h-116v-110h116zM176 760v110h-116v-110h116z" />
    <glyph glyph-name="Eth" unicode="&#xd0;" horiz-adv-x="789" 
d="M470 0c28 0 52.667 2.66602 74 7.99902s40 12.333 56 21s29.333 18 40 28s19.667 19.667 27 29c19.333 25.333 34.5 59.666 45.5 102.999s16.5 99.666 16.5 168.999c0 20 -0.666992 41.333 -2 64s-4.33301 45.334 -9 68.001s-11.834 45 -21.501 67s-22.5 42 -38.5 60
c-8 8.66699 -18 17.834 -30 27.501s-26.5 18.667 -43.5 27s-36.333 15.166 -58 20.499s-46.167 8 -73.5 8h-274c-14.667 0 -28 -2.16699 -40 -6.5s-23.333 -12.166 -34 -23.499c-12.667 -13.333 -20 -26.5 -22 -39.5s-3 -27.167 -3 -42.5v-194h-80v-93h80v-212
c0 -13.333 1.5 -25.5 4.5 -36.5s11.167 -21.5 24.5 -31.5c12 -9.33301 24.833 -15.166 38.5 -17.499s26.834 -3.5 39.501 -3.5h283zM212 555.999c0 7.33301 1.3291 14.1699 3.99609 20.5029s6 11.166 10 14.499c4.66699 3.33301 10 5.33301 16 6s11 1 15 1h137
c36.667 0 66.834 -5.16699 90.501 -15.5s42.834 -23.5 57.501 -39.5c12.667 -14 22.334 -28.667 29.001 -44s11.667 -31 15 -47s5.33301 -31.667 6 -47s1 -29.666 1 -42.999c0 -50 -3 -89.5 -9 -118.5s-14.667 -52.167 -26 -69.5c-9.33301 -15.333 -20.333 -27.5 -33 -36.5
s-25.667 -15.833 -39 -20.5s-26.833 -7.83398 -40.5 -9.50098s-26.5 -2.5 -38.5 -2.5h-152c-5.33301 0 -11 0.333008 -17 1s-11.667 3.66699 -17 9s-8.16602 11.166 -8.49902 17.499s-0.5 13.166 -0.5 20.499v148h146v93h-146v162z" />
    <glyph glyph-name="Ntilde" unicode="&#xd1;" horiz-adv-x="790" 
d="M730 700l-127.996 0.000976562v-516c0 -2.66699 -0.5 -6.16699 -1.5 -10.5s-4.16699 -6.5 -9.5 -6.5c-4.66699 0 -7.83398 2 -9.50098 6s-3.83398 7.66699 -6.50098 11l-297 469c-9.33301 15.333 -22.333 28.333 -39 39s-40.667 16 -72 16
c-33.333 0 -59.5 -8.33301 -78.5 -25s-28.5 -40 -28.5 -70v-613h128v514c0 7.33301 1.66699 12.5 5 15.5s6.33301 4.5 9 4.5c1.33301 0 3 -1 5 -3s5.66699 -6.66699 11 -14l295 -466c15.333 -24.667 32.666 -40.667 51.999 -48s39.666 -11 60.999 -11
c28.667 0 53.167 7.66699 73.5 23s30.5 40.666 30.5 75.999v609zM267.004 755.001c3.33301 6.66699 7.66699 13.502 13 20.502s10.666 12.167 15.999 15.5c4 3.33301 9 6.16602 15 8.49902s13 3.5 21 3.5c13.333 0 24 -2.16699 32 -6.5l23 -12.5l34 -20
c9.33301 -5.33301 20 -9.16602 32 -11.499s23 -3.5 33 -3.5c26 0 47.667 6.33301 65 19c11.333 7.33301 22.166 17.666 32.499 30.999s18.833 26.333 25.5 39l-51 33c-2 -4 -5.33301 -10 -10 -18s-8.66699 -14 -12 -18c-4 -4.66699 -9.5 -8.83398 -16.5 -12.501
s-15.833 -5.5 -26.5 -5.5c-12 0 -22.667 2.33301 -32 7l-24 12l-40 22c-11.333 6.66699 -22.333 11 -33 13s-19.667 3 -27 3c-13.333 0 -25.166 -1.83301 -35.499 -5.5s-19.166 -8.16699 -26.499 -13.5c-10.667 -7.33301 -21.5 -17.333 -32.5 -30s-19.833 -24 -26.5 -34z
" />
    <glyph glyph-name="Ograve" unicode="&#xd2;" horiz-adv-x="799" 
d="M400 708c-21.333 0 -44.166 -0.327148 -68.499 -0.994141s-48.833 -3.33398 -73.5 -8.00098s-48.834 -12 -72.501 -22s-45.167 -24.333 -64.5 -43c-19.333 -18 -34.333 -38.5 -45 -61.5s-18.667 -47 -24 -72s-8.66602 -50.333 -9.99902 -76s-2 -50.5 -2 -74.5
c0 -20 0.5 -42.333 1.5 -67s4 -49.834 9 -75.501s13 -50.834 24 -75.501s26.5 -46.667 46.5 -66c19.333 -18.667 40.833 -33 64.5 -43s48 -17.333 73 -22s49.667 -7.33398 74 -8.00098s46.833 -1 67.5 -1c20 0 42.333 0.333008 67 1s49.5 3.33398 74.5 8.00098
s49.333 12 73 22s45.167 24.333 64.5 43c18 17.333 32.333 37.666 43 60.999s18.667 47.666 24 72.999s8.83301 50.833 10.5 76.5s2.5 50.167 2.5 73.5c0 22.667 -0.666992 47 -2 73s-4.83301 51.667 -10.5 77s-13.834 49.666 -24.501 72.999s-25 43.666 -43 60.999
c-19.333 18.667 -40.833 33 -64.5 43s-48 17.333 -73 22s-49.667 7.33398 -74 8.00098s-46.833 1 -67.5 1zM176 350.006c0 54 3.83203 95.833 11.499 125.5s18.167 53.167 31.5 70.5c20.667 25.333 46.667 41.166 78 47.499s65.333 9.5 102 9.5c36 0 70 -3.16699 102 -9.5
s58.333 -22.166 79 -47.499c5.33301 -6.66699 10.666 -15 15.999 -25s10 -22.667 14 -38s7.16699 -33.833 9.5 -55.5s3.5 -47.5 3.5 -77.5c0 -28 -1.16699 -52.667 -3.5 -74s-5.5 -39.666 -9.5 -54.999s-8.5 -28.333 -13.5 -39s-10.5 -19.667 -16.5 -27
c-10.667 -13.333 -22.667 -23.833 -36 -31.5s-27.833 -13.5 -43.5 -17.5s-32 -6.5 -49 -7.5s-34.5 -1.5 -52.5 -1.5s-35.667 0.5 -53 1.5s-33.666 3.5 -48.999 7.5s-29.666 9.83301 -42.999 17.5s-25 18.167 -35 31.5c-6 7.33301 -11.5 16.166 -16.5 26.499
s-9.5 23.333 -13.5 39s-7.16699 34 -9.5 55s-3.5 45.833 -3.5 74.5zM328.999 953.006l-60 -75l162 -132l59 74z" />
    <glyph glyph-name="Oacute" unicode="&#xd3;" horiz-adv-x="799" 
d="M400 708c-21.333 0 -44.166 -0.327148 -68.499 -0.994141s-48.833 -3.33398 -73.5 -8.00098s-48.834 -12 -72.501 -22s-45.167 -24.333 -64.5 -43c-19.333 -18 -34.333 -38.5 -45 -61.5s-18.667 -47 -24 -72s-8.66602 -50.333 -9.99902 -76s-2 -50.5 -2 -74.5
c0 -20 0.5 -42.333 1.5 -67s4 -49.834 9 -75.501s13 -50.834 24 -75.501s26.5 -46.667 46.5 -66c19.333 -18.667 40.833 -33 64.5 -43s48 -17.333 73 -22s49.667 -7.33398 74 -8.00098s46.833 -1 67.5 -1c20 0 42.333 0.333008 67 1s49.5 3.33398 74.5 8.00098
s49.333 12 73 22s45.167 24.333 64.5 43c18 17.333 32.333 37.666 43 60.999s18.667 47.666 24 72.999s8.83301 50.833 10.5 76.5s2.5 50.167 2.5 73.5c0 22.667 -0.666992 47 -2 73s-4.83301 51.667 -10.5 77s-13.834 49.666 -24.501 72.999s-25 43.666 -43 60.999
c-19.333 18.667 -40.833 33 -64.5 43s-48 17.333 -73 22s-49.667 7.33398 -74 8.00098s-46.833 1 -67.5 1zM176 350.006c0 54 3.83203 95.833 11.499 125.5s18.167 53.167 31.5 70.5c20.667 25.333 46.667 41.166 78 47.499s65.333 9.5 102 9.5c36 0 70 -3.16699 102 -9.5
s58.333 -22.166 79 -47.499c5.33301 -6.66699 10.666 -15 15.999 -25s10 -22.667 14 -38s7.16699 -33.833 9.5 -55.5s3.5 -47.5 3.5 -77.5c0 -28 -1.16699 -52.667 -3.5 -74s-5.5 -39.666 -9.5 -54.999s-8.5 -28.333 -13.5 -39s-10.5 -19.667 -16.5 -27
c-10.667 -13.333 -22.667 -23.833 -36 -31.5s-27.833 -13.5 -43.5 -17.5s-32 -6.5 -49 -7.5s-34.5 -1.5 -52.5 -1.5s-35.667 0.5 -53 1.5s-33.666 3.5 -48.999 7.5s-29.666 9.83301 -42.999 17.5s-25 18.167 -35 31.5c-6 7.33301 -11.5 16.166 -16.5 26.499
s-9.5 23.333 -13.5 39s-7.16699 34 -9.5 55s-3.5 45.833 -3.5 74.5zM433.999 954.006l-161 -133l59 -74l162 132z" />
    <glyph glyph-name="Ocircumflex" unicode="&#xd4;" horiz-adv-x="799" 
d="M400 708c-21.333 0 -44.166 -0.327148 -68.499 -0.994141s-48.833 -3.33398 -73.5 -8.00098s-48.834 -12 -72.501 -22s-45.167 -24.333 -64.5 -43c-19.333 -18 -34.333 -38.5 -45 -61.5s-18.667 -47 -24 -72s-8.66602 -50.333 -9.99902 -76s-2 -50.5 -2 -74.5
c0 -20 0.5 -42.333 1.5 -67s4 -49.834 9 -75.501s13 -50.834 24 -75.501s26.5 -46.667 46.5 -66c19.333 -18.667 40.833 -33 64.5 -43s48 -17.333 73 -22s49.667 -7.33398 74 -8.00098s46.833 -1 67.5 -1c20 0 42.333 0.333008 67 1s49.5 3.33398 74.5 8.00098
s49.333 12 73 22s45.167 24.333 64.5 43c18 17.333 32.333 37.666 43 60.999s18.667 47.666 24 72.999s8.83301 50.833 10.5 76.5s2.5 50.167 2.5 73.5c0 22.667 -0.666992 47 -2 73s-4.83301 51.667 -10.5 77s-13.834 49.666 -24.501 72.999s-25 43.666 -43 60.999
c-19.333 18.667 -40.833 33 -64.5 43s-48 17.333 -73 22s-49.667 7.33398 -74 8.00098s-46.833 1 -67.5 1zM176 350.006c0 54 3.83203 95.833 11.499 125.5s18.167 53.167 31.5 70.5c20.667 25.333 46.667 41.166 78 47.499s65.333 9.5 102 9.5c36 0 70 -3.16699 102 -9.5
s58.333 -22.166 79 -47.499c5.33301 -6.66699 10.666 -15 15.999 -25s10 -22.667 14 -38s7.16699 -33.833 9.5 -55.5s3.5 -47.5 3.5 -77.5c0 -28 -1.16699 -52.667 -3.5 -74s-5.5 -39.666 -9.5 -54.999s-8.5 -28.333 -13.5 -39s-10.5 -19.667 -16.5 -27
c-10.667 -13.333 -22.667 -23.833 -36 -31.5s-27.833 -13.5 -43.5 -17.5s-32 -6.5 -49 -7.5s-34.5 -1.5 -52.5 -1.5s-35.667 0.5 -53 1.5s-33.666 3.5 -48.999 7.5s-29.666 9.83301 -42.999 17.5s-25 18.167 -35 31.5c-6 7.33301 -11.5 16.166 -16.5 26.499
s-9.5 23.333 -13.5 39s-7.16699 34 -9.5 55s-3.5 45.833 -3.5 74.5zM541.999 740.006l46 62l-141 113c-7.33301 5.33301 -14.833 9.66602 -22.5 12.999s-16.167 5 -25.5 5s-17.833 -1.66699 -25.5 -5s-15.167 -7.66602 -22.5 -12.999l-140 -113l46 -62l117 97
c4.66699 3.33301 8.83398 5.83301 12.501 7.5s8.16699 2.5 13.5 2.5c6.66699 0 11.667 -0.833008 15 -2.5s6.66602 -4.16699 9.99902 -7.5z" />
    <glyph glyph-name="Otilde" unicode="&#xd5;" horiz-adv-x="799" 
d="M400 708c-21.333 0 -44.166 -0.327148 -68.499 -0.994141s-48.833 -3.33398 -73.5 -8.00098s-48.834 -12 -72.501 -22s-45.167 -24.333 -64.5 -43c-19.333 -18 -34.333 -38.5 -45 -61.5s-18.667 -47 -24 -72s-8.66602 -50.333 -9.99902 -76s-2 -50.5 -2 -74.5
c0 -20 0.5 -42.333 1.5 -67s4 -49.834 9 -75.501s13 -50.834 24 -75.501s26.5 -46.667 46.5 -66c19.333 -18.667 40.833 -33 64.5 -43s48 -17.333 73 -22s49.667 -7.33398 74 -8.00098s46.833 -1 67.5 -1c20 0 42.333 0.333008 67 1s49.5 3.33398 74.5 8.00098
s49.333 12 73 22s45.167 24.333 64.5 43c18 17.333 32.333 37.666 43 60.999s18.667 47.666 24 72.999s8.83301 50.833 10.5 76.5s2.5 50.167 2.5 73.5c0 22.667 -0.666992 47 -2 73s-4.83301 51.667 -10.5 77s-13.834 49.666 -24.501 72.999s-25 43.666 -43 60.999
c-19.333 18.667 -40.833 33 -64.5 43s-48 17.333 -73 22s-49.667 7.33398 -74 8.00098s-46.833 1 -67.5 1zM176 350.006c0 54 3.83203 95.833 11.499 125.5s18.167 53.167 31.5 70.5c20.667 25.333 46.667 41.166 78 47.499s65.333 9.5 102 9.5c36 0 70 -3.16699 102 -9.5
s58.333 -22.166 79 -47.499c5.33301 -6.66699 10.666 -15 15.999 -25s10 -22.667 14 -38s7.16699 -33.833 9.5 -55.5s3.5 -47.5 3.5 -77.5c0 -28 -1.16699 -52.667 -3.5 -74s-5.5 -39.666 -9.5 -54.999s-8.5 -28.333 -13.5 -39s-10.5 -19.667 -16.5 -27
c-10.667 -13.333 -22.667 -23.833 -36 -31.5s-27.833 -13.5 -43.5 -17.5s-32 -6.5 -49 -7.5s-34.5 -1.5 -52.5 -1.5s-35.667 0.5 -53 1.5s-33.666 3.5 -48.999 7.5s-29.666 9.83301 -42.999 17.5s-25 18.167 -35 31.5c-6 7.33301 -11.5 16.166 -16.5 26.499
s-9.5 23.333 -13.5 39s-7.16699 34 -9.5 55s-3.5 45.833 -3.5 74.5zM245.999 755.006c3.33301 6.66699 7.66699 13.502 13 20.502s10.666 12.167 15.999 15.5c4 3.33301 9 6.16602 15 8.49902s13 3.5 21 3.5c13.333 0 24 -2.16699 32 -6.5l23 -12.5l34 -20
c9.33301 -5.33301 20 -9.16602 32 -11.499s23 -3.5 33 -3.5c26 0 47.667 6.33301 65 19c11.333 7.33301 22.166 17.666 32.499 30.999s18.833 26.333 25.5 39l-51 33c-2 -4 -5.33301 -10 -10 -18s-8.66699 -14 -12 -18c-4 -4.66699 -9.5 -8.83398 -16.5 -12.501
s-15.833 -5.5 -26.5 -5.5c-12 0 -22.667 2.33301 -32 7l-24 12l-40 22c-11.333 6.66699 -22.333 11 -33 13s-19.667 3 -27 3c-13.333 0 -25.166 -1.83301 -35.499 -5.5s-19.166 -8.16699 -26.499 -13.5c-10.667 -7.33301 -21.5 -17.333 -32.5 -30s-19.833 -24 -26.5 -34z
" />
    <glyph glyph-name="Odieresis" unicode="&#xd6;" horiz-adv-x="799" 
d="M400 708c-21.333 0 -44.166 -0.327148 -68.499 -0.994141s-48.833 -3.33398 -73.5 -8.00098s-48.834 -12 -72.501 -22s-45.167 -24.333 -64.5 -43c-19.333 -18 -34.333 -38.5 -45 -61.5s-18.667 -47 -24 -72s-8.66602 -50.333 -9.99902 -76s-2 -50.5 -2 -74.5
c0 -20 0.5 -42.333 1.5 -67s4 -49.834 9 -75.501s13 -50.834 24 -75.501s26.5 -46.667 46.5 -66c19.333 -18.667 40.833 -33 64.5 -43s48 -17.333 73 -22s49.667 -7.33398 74 -8.00098s46.833 -1 67.5 -1c20 0 42.333 0.333008 67 1s49.5 3.33398 74.5 8.00098
s49.333 12 73 22s45.167 24.333 64.5 43c18 17.333 32.333 37.666 43 60.999s18.667 47.666 24 72.999s8.83301 50.833 10.5 76.5s2.5 50.167 2.5 73.5c0 22.667 -0.666992 47 -2 73s-4.83301 51.667 -10.5 77s-13.834 49.666 -24.501 72.999s-25 43.666 -43 60.999
c-19.333 18.667 -40.833 33 -64.5 43s-48 17.333 -73 22s-49.667 7.33398 -74 8.00098s-46.833 1 -67.5 1zM176 350.006c0 54 3.83203 95.833 11.499 125.5s18.167 53.167 31.5 70.5c20.667 25.333 46.667 41.166 78 47.499s65.333 9.5 102 9.5c36 0 70 -3.16699 102 -9.5
s58.333 -22.166 79 -47.499c5.33301 -6.66699 10.666 -15 15.999 -25s10 -22.667 14 -38s7.16699 -33.833 9.5 -55.5s3.5 -47.5 3.5 -77.5c0 -28 -1.16699 -52.667 -3.5 -74s-5.5 -39.666 -9.5 -54.999s-8.5 -28.333 -13.5 -39s-10.5 -19.667 -16.5 -27
c-10.667 -13.333 -22.667 -23.833 -36 -31.5s-27.833 -13.5 -43.5 -17.5s-32 -6.5 -49 -7.5s-34.5 -1.5 -52.5 -1.5s-35.667 0.5 -53 1.5s-33.666 3.5 -48.999 7.5s-29.666 9.83301 -42.999 17.5s-25 18.167 -35 31.5c-6 7.33301 -11.5 16.166 -16.5 26.499
s-9.5 23.333 -13.5 39s-7.16699 34 -9.5 55s-3.5 45.833 -3.5 74.5zM569.999 760.006v110h-120v-110h120zM347.999 760.006v110h-120v-110h120z" />
    <glyph glyph-name="multiply" unicode="&#xd7;" horiz-adv-x="578" 
d="M492 193l-139 139l141 139l-65 65l-140 -140l-139 138l-64 -64l139 -138l-140 -140l64 -65l140 140l139 -138z" />
    <glyph glyph-name="Oslash" unicode="&#xd8;" horiz-adv-x="770" 
d="M20 26l39 -39.999l66 66c21.333 -15.333 42.666 -27 63.999 -35s42.833 -13.833 64.5 -17.5s43.5 -5.83398 65.5 -6.50098s44.333 -1 67 -1s46.334 0.333008 71.001 1s49 3.33398 73 8.00098s47.5 12.167 70.5 22.5s44.167 24.833 63.5 43.5
c20 18.667 35.333 39.834 46 63.501s18.667 48.167 24 73.5s8.5 50.666 9.5 75.999s1.5 48.666 1.5 69.999c0 32.667 -1.16699 61.667 -3.5 87s-5.83301 48.333 -10.5 69s-11 39.5 -19 56.5s-17.333 33.167 -28 48.5l66 66l-39 39l-67 -66c-20 14 -40.167 24.833 -60.5 32.5
s-41.333 13.5 -63 17.5s-43.667 6.33301 -66 7s-45.5 1 -69.5 1c-28 0 -54.667 -0.5 -80 -1.5s-49.5 -4 -72.5 -9s-45 -12.5 -66 -22.5s-40.833 -24 -59.5 -42c-18 -16.667 -32.333 -34.834 -43 -54.501s-19 -41 -25 -64s-9.83301 -48.167 -11.5 -75.5s-2.5 -57 -2.5 -89
c0 -24.667 0.333008 -48.667 1 -72s3 -45.666 7 -66.999s10.167 -42 18.5 -62s19.833 -39.333 34.5 -58zM581 514.001c9.33301 -20.667 16.333 -43.334 21 -68.001s7 -56.667 7 -96c0 -43.333 -2.83301 -80.166 -8.5 -110.499s-18.5 -57.833 -38.5 -82.5
c-11.333 -14 -23.333 -25 -36 -33s-26.334 -14 -41.001 -18s-30.167 -6.5 -46.5 -7.5s-34.166 -1.5 -53.499 -1.5c-27.333 0 -54.833 1.83301 -82.5 5.5s-55.167 16.5 -82.5 38.5zM190 189.001c-6.66699 12 -13.166 29.833 -19.499 53.5s-9.5 59.5 -9.5 107.5
c0 50 4.33301 90.5 13 121.5s19.667 55.167 33 72.5c11.333 14 24.166 25 38.499 33s29.333 14 45 18s31.5 6.33301 47.5 7s31.667 1 47 1c30.667 0 59.5 -2 86.5 -6s53.5 -15.667 79.5 -35z" />
    <glyph glyph-name="Ugrave" unicode="&#xd9;" horiz-adv-x="728" 
d="M364 97c-10 0 -21.1709 0.503906 -33.5039 1.50391s-24.666 3 -36.999 6s-24.333 7.5 -36 13.5s-22.167 14 -31.5 24c-16.667 18 -26.5 38 -29.5 60s-4.5 42.667 -4.5 62v436h-132v-454c0 -30 3.5 -60.5 10.5 -91.5s23.833 -60.167 50.5 -87.5
c17.333 -18 36.833 -32 58.5 -42s43.5 -17.5 65.5 -22.5s43.333 -8 64 -9s39 -1.5 55 -1.5s34.333 0.5 55 1.5s42 4 64 9s43.833 12.5 65.5 22.5s41.167 24 58.5 42c26.667 27.333 43.5 56.5 50.5 87.5s10.5 61.5 10.5 91.5v454h-132v-436
c0 -8.66699 -0.166992 -18.334 -0.5 -29.001s-1.66602 -21.334 -3.99902 -32.001s-5.66602 -21.334 -9.99902 -32.001s-10.5 -20.334 -18.5 -29.001c-9.33301 -10 -20 -18 -32 -24s-24.333 -10.5 -37 -13.5s-25.167 -5 -37.5 -6s-23.166 -1.5 -32.499 -1.5zM303.996 947.004
l-60 -75l162 -132l59 74z" />
    <glyph glyph-name="Uacute" unicode="&#xda;" horiz-adv-x="728" 
d="M364 97c-10 0 -21.1709 0.503906 -33.5039 1.50391s-24.666 3 -36.999 6s-24.333 7.5 -36 13.5s-22.167 14 -31.5 24c-16.667 18 -26.5 38 -29.5 60s-4.5 42.667 -4.5 62v436h-132v-454c0 -30 3.5 -60.5 10.5 -91.5s23.833 -60.167 50.5 -87.5
c17.333 -18 36.833 -32 58.5 -42s43.5 -17.5 65.5 -22.5s43.333 -8 64 -9s39 -1.5 55 -1.5s34.333 0.5 55 1.5s42 4 64 9s43.833 12.5 65.5 22.5s41.167 24 58.5 42c26.667 27.333 43.5 56.5 50.5 87.5s10.5 61.5 10.5 91.5v454h-132v-436
c0 -8.66699 -0.166992 -18.334 -0.5 -29.001s-1.66602 -21.334 -3.99902 -32.001s-5.66602 -21.334 -9.99902 -32.001s-10.5 -20.334 -18.5 -29.001c-9.33301 -10 -20 -18 -32 -24s-24.333 -10.5 -37 -13.5s-25.167 -5 -37.5 -6s-23.166 -1.5 -32.499 -1.5zM433.996 947.004
l-161 -133l59 -74l162 132z" />
    <glyph glyph-name="Ucircumflex" unicode="&#xdb;" horiz-adv-x="728" 
d="M364 97c-10 0 -21.1709 0.503906 -33.5039 1.50391s-24.666 3 -36.999 6s-24.333 7.5 -36 13.5s-22.167 14 -31.5 24c-16.667 18 -26.5 38 -29.5 60s-4.5 42.667 -4.5 62v436h-132v-454c0 -30 3.5 -60.5 10.5 -91.5s23.833 -60.167 50.5 -87.5
c17.333 -18 36.833 -32 58.5 -42s43.5 -17.5 65.5 -22.5s43.333 -8 64 -9s39 -1.5 55 -1.5s34.333 0.5 55 1.5s42 4 64 9s43.833 12.5 65.5 22.5s41.167 24 58.5 42c26.667 27.333 43.5 56.5 50.5 87.5s10.5 61.5 10.5 91.5v454h-132v-436
c0 -8.66699 -0.166992 -18.334 -0.5 -29.001s-1.66602 -21.334 -3.99902 -32.001s-5.66602 -21.334 -9.99902 -32.001s-10.5 -20.334 -18.5 -29.001c-9.33301 -10 -20 -18 -32 -24s-24.333 -10.5 -37 -13.5s-25.167 -5 -37.5 -6s-23.166 -1.5 -32.499 -1.5zM505.996 740.004
l46 62l-141 113c-7.33301 5.33301 -14.833 9.66602 -22.5 12.999s-16.167 5 -25.5 5s-17.833 -1.66699 -25.5 -5s-15.167 -7.66602 -22.5 -12.999l-140 -113l46 -62l117 97c4.66699 3.33301 8.83398 5.83301 12.501 7.5s8.16699 2.5 13.5 2.5
c6.66699 0 11.667 -0.833008 15 -2.5s6.66602 -4.16699 9.99902 -7.5z" />
    <glyph glyph-name="Udieresis" unicode="&#xdc;" horiz-adv-x="728" 
d="M364 97c-10 0 -21.1709 0.503906 -33.5039 1.50391s-24.666 3 -36.999 6s-24.333 7.5 -36 13.5s-22.167 14 -31.5 24c-16.667 18 -26.5 38 -29.5 60s-4.5 42.667 -4.5 62v436h-132v-454c0 -30 3.5 -60.5 10.5 -91.5s23.833 -60.167 50.5 -87.5
c17.333 -18 36.833 -32 58.5 -42s43.5 -17.5 65.5 -22.5s43.333 -8 64 -9s39 -1.5 55 -1.5s34.333 0.5 55 1.5s42 4 64 9s43.833 12.5 65.5 22.5s41.167 24 58.5 42c26.667 27.333 43.5 56.5 50.5 87.5s10.5 61.5 10.5 91.5v454h-132v-436
c0 -8.66699 -0.166992 -18.334 -0.5 -29.001s-1.66602 -21.334 -3.99902 -32.001s-5.66602 -21.334 -9.99902 -32.001s-10.5 -20.334 -18.5 -29.001c-9.33301 -10 -20 -18 -32 -24s-24.333 -10.5 -37 -13.5s-25.167 -5 -37.5 -6s-23.166 -1.5 -32.499 -1.5zM534.996 760.004
v110h-120v-110h120zM312.996 760.004v110h-120v-110h120z" />
    <glyph glyph-name="Yacute" unicode="&#xdd;" horiz-adv-x="664" 
d="M332 333l-220 367h-142l296 -486v-214h132v214l296 486h-142zM406 947l-161 -133l59 -74l162 132z" />
    <glyph glyph-name="Thorn" unicode="&#xde;" horiz-adv-x="728" 
d="M60 0h131.995v154h328c38 0 67.5 5.5 88.5 16.5s36.5 22.833 46.5 35.5c10.667 13.333 18.834 32 24.501 56s8.5 57.333 8.5 100c0 26 -1.16699 48.667 -3.5 68s-5.16602 35.666 -8.49902 48.999s-7.16602 24.5 -11.499 33.5s-8.83301 16.167 -13.5 21.5
c-9.33301 11.333 -20.166 20.333 -32.499 27s-24.833 11.834 -37.5 15.501s-25.167 6 -37.5 7s-23.166 1.5 -32.499 1.5h-319v115h-132v-700zM191.995 259l-0.00390625 221.002h238h22c8.66699 0 17.334 -0.333008 26.001 -1s17.167 -2.33398 25.5 -5.00098
s15.5 -6.33398 21.5 -11.001c6.66699 -5.33301 11.834 -12 15.501 -20s6.33398 -16.5 8.00098 -25.5s2.66699 -18 3 -27s0.5 -17.167 0.5 -24.5v-21c0 -7.33301 -0.666992 -15 -2 -23s-3.66602 -15.833 -6.99902 -23.5s-8.33301 -14.167 -15 -19.5
c-11.333 -10 -26.5 -15.833 -45.5 -17.5s-36.833 -2.5 -53.5 -2.5h-237z" />
    <glyph glyph-name="germandbls" unicode="&#xdf;" horiz-adv-x="603" 
d="M60 0h117v461c0 27.333 3.16699 52.833 9.5 76.5s19.166 42.834 38.499 57.501c14.667 11.333 30.167 18.333 46.5 21s31.5 4 45.5 4c8.66699 0 20.334 -1.16699 35.001 -3.5s27.334 -9.16602 38.001 -20.499c9.33301 -10.667 14.833 -23.334 16.5 -38.001
s2.5 -26.334 2.5 -35.001c0 -13.333 -1.33301 -27 -4 -41s-10.667 -26.667 -24 -38c-6 -5.33301 -13.833 -9.83301 -23.5 -13.5s-19.167 -5.5 -28.5 -5.5h-45v-86h53c21.333 0 39.166 -3.66699 53.499 -11s24.833 -15.333 31.5 -24c9.33301 -11.333 15 -25.5 17 -42.5
s3 -32.5 3 -46.5c0 -26.667 -2 -47.834 -6 -63.501s-9.66699 -27.5 -17 -35.5c-11.333 -12.667 -25.5 -20.334 -42.5 -23.001s-31.167 -4 -42.5 -4h-53v-89h92c12.667 0 27 0.5 43 1.5s31.833 4.16699 47.5 9.5s30.5 13.666 44.5 24.999s25.667 27 35 47
c9.33301 19.333 15 39.333 17 60s3 40.667 3 60c0 11.333 -0.333008 23.5 -1 36.5s-2.16699 25.833 -4.5 38.5s-6.16602 25 -11.499 37s-12.666 23 -21.999 33c-10 10.667 -23 19.334 -39 26.001s-32.667 10.667 -50 12v3c13.333 1.33301 25.833 5 37.5 11
s22.167 15.667 31.5 29c11.333 16 18.333 32.833 21 50.5s4 34.834 4 51.501c0 25.333 -3.16699 50.166 -9.5 74.499s-20.833 45.5 -43.5 63.5c-10.667 8 -22.334 14.5 -35.001 19.5s-25.334 8.83301 -38.001 11.5s-25.167 4.33398 -37.5 5.00098s-23.166 1 -32.499 1
c-20.667 0 -44.5 -1.66699 -71.5 -5s-53.833 -11.333 -80.5 -24c-22 -10.667 -41.333 -24 -58 -40s-30.334 -36.333 -41.001 -61c-11.333 -26.667 -17.833 -53.667 -19.5 -81s-2.5 -52.666 -2.5 -75.999v-419z" />
    <glyph glyph-name="agrave" unicode="&#xe0;" horiz-adv-x="555" 
d="M65 530l0.000976562 -89.999h261c9.33301 0 19.166 -1.33301 29.499 -4s19.5 -9 27.5 -19c6.66699 -8 10.834 -16.333 12.501 -25s2.5 -17 2.5 -25v-37h-230c-14 0 -29.5 -1.5 -46.5 -4.5s-33.833 -11.833 -50.5 -26.5c-20 -17.333 -32.5 -37.333 -37.5 -60
s-7.5 -45.667 -7.5 -69c0 -10 0.333008 -21.333 1 -34s2.5 -25.667 5.5 -39s7.66699 -26.166 14 -38.499s14.833 -23.166 25.5 -32.499c15.333 -13.333 31.5 -21 48.5 -23s32.833 -3 47.5 -3h253c12.667 0 25.667 1.16699 39 3.5s24.666 8.16602 33.999 17.499
s15.166 20.666 17.499 33.999s3.5 24.666 3.5 33.999v275c0 30 -3.66699 55.5 -11 76.5s-16.666 37.167 -27.999 48.5c-12 12.667 -27.667 22.667 -47 30s-40.333 11 -63 11h-301zM398.001 240.001v-122.002c0 -4 -0.333008 -7.83301 -1 -11.5s-3 -7.16699 -7 -10.5
s-8.5 -5.16602 -13.5 -5.49902s-9.16699 -0.5 -12.5 -0.5h-163c-7.33301 0 -14.5 1.66699 -21.5 5s-12.5 7 -16.5 11c-7.33301 7.33301 -11.833 17 -13.5 29s-2.5 22 -2.5 30c0 19.333 1.66699 33 5 41s6 13.333 8 16c6.66699 8.66699 14.5 13.834 23.5 15.501
s15.5 2.5 19.5 2.5h195zM227.001 766.999l-60 -75l162 -132l59 74z" />
    <glyph glyph-name="aacute" unicode="&#xe1;" horiz-adv-x="555" 
d="M65 530l0.000976562 -89.999h261c9.33301 0 19.166 -1.33301 29.499 -4s19.5 -9 27.5 -19c6.66699 -8 10.834 -16.333 12.501 -25s2.5 -17 2.5 -25v-37h-230c-14 0 -29.5 -1.5 -46.5 -4.5s-33.833 -11.833 -50.5 -26.5c-20 -17.333 -32.5 -37.333 -37.5 -60
s-7.5 -45.667 -7.5 -69c0 -10 0.333008 -21.333 1 -34s2.5 -25.667 5.5 -39s7.66699 -26.166 14 -38.499s14.833 -23.166 25.5 -32.499c15.333 -13.333 31.5 -21 48.5 -23s32.833 -3 47.5 -3h253c12.667 0 25.667 1.16699 39 3.5s24.666 8.16602 33.999 17.499
s15.166 20.666 17.499 33.999s3.5 24.666 3.5 33.999v275c0 30 -3.66699 55.5 -11 76.5s-16.666 37.167 -27.999 48.5c-12 12.667 -27.667 22.667 -47 30s-40.333 11 -63 11h-301zM398.001 240.001v-122.002c0 -4 -0.333008 -7.83301 -1 -11.5s-3 -7.16699 -7 -10.5
s-8.5 -5.16602 -13.5 -5.49902s-9.16699 -0.5 -12.5 -0.5h-163c-7.33301 0 -14.5 1.66699 -21.5 5s-12.5 7 -16.5 11c-7.33301 7.33301 -11.833 17 -13.5 29s-2.5 22 -2.5 30c0 19.333 1.66699 33 5 41s6 13.333 8 16c6.66699 8.66699 14.5 13.834 23.5 15.501
s15.5 2.5 19.5 2.5h195zM328.001 766.999l-161 -133l59 -74l162 132z" />
    <glyph glyph-name="acircumflex" unicode="&#xe2;" horiz-adv-x="555" 
d="M65 530l0.000976562 -89.999h261c9.33301 0 19.166 -1.33301 29.499 -4s19.5 -9 27.5 -19c6.66699 -8 10.834 -16.333 12.501 -25s2.5 -17 2.5 -25v-37h-230c-14 0 -29.5 -1.5 -46.5 -4.5s-33.833 -11.833 -50.5 -26.5c-20 -17.333 -32.5 -37.333 -37.5 -60
s-7.5 -45.667 -7.5 -69c0 -10 0.333008 -21.333 1 -34s2.5 -25.667 5.5 -39s7.66699 -26.166 14 -38.499s14.833 -23.166 25.5 -32.499c15.333 -13.333 31.5 -21 48.5 -23s32.833 -3 47.5 -3h253c12.667 0 25.667 1.16699 39 3.5s24.666 8.16602 33.999 17.499
s15.166 20.666 17.499 33.999s3.5 24.666 3.5 33.999v275c0 30 -3.66699 55.5 -11 76.5s-16.666 37.167 -27.999 48.5c-12 12.667 -27.667 22.667 -47 30s-40.333 11 -63 11h-301zM398.001 240.001v-122.002c0 -4 -0.333008 -7.83301 -1 -11.5s-3 -7.16699 -7 -10.5
s-8.5 -5.16602 -13.5 -5.49902s-9.16699 -0.5 -12.5 -0.5h-163c-7.33301 0 -14.5 1.66699 -21.5 5s-12.5 7 -16.5 11c-7.33301 7.33301 -11.833 17 -13.5 29s-2.5 22 -2.5 30c0 19.333 1.66699 33 5 41s6 13.333 8 16c6.66699 8.66699 14.5 13.834 23.5 15.501
s15.5 2.5 19.5 2.5h195zM420.001 566.999l46 62l-141 113c-7.33301 5.33301 -14.833 9.66602 -22.5 12.999s-16.167 5 -25.5 5s-17.833 -1.66699 -25.5 -5s-15.167 -7.66602 -22.5 -12.999l-140 -113l46 -62l117 97c4.66699 3.33301 8.83398 5.83301 12.501 7.5
s8.16699 2.5 13.5 2.5c6.66699 0 11.667 -0.833008 15 -2.5s6.66602 -4.16699 9.99902 -7.5z" />
    <glyph glyph-name="atilde" unicode="&#xe3;" horiz-adv-x="555" 
d="M65 530l0.000976562 -89.999h261c9.33301 0 19.166 -1.33301 29.499 -4s19.5 -9 27.5 -19c6.66699 -8 10.834 -16.333 12.501 -25s2.5 -17 2.5 -25v-37h-230c-14 0 -29.5 -1.5 -46.5 -4.5s-33.833 -11.833 -50.5 -26.5c-20 -17.333 -32.5 -37.333 -37.5 -60
s-7.5 -45.667 -7.5 -69c0 -10 0.333008 -21.333 1 -34s2.5 -25.667 5.5 -39s7.66699 -26.166 14 -38.499s14.833 -23.166 25.5 -32.499c15.333 -13.333 31.5 -21 48.5 -23s32.833 -3 47.5 -3h253c12.667 0 25.667 1.16699 39 3.5s24.666 8.16602 33.999 17.499
s15.166 20.666 17.499 33.999s3.5 24.666 3.5 33.999v275c0 30 -3.66699 55.5 -11 76.5s-16.666 37.167 -27.999 48.5c-12 12.667 -27.667 22.667 -47 30s-40.333 11 -63 11h-301zM398.001 240.001v-122.002c0 -4 -0.333008 -7.83301 -1 -11.5s-3 -7.16699 -7 -10.5
s-8.5 -5.16602 -13.5 -5.49902s-9.16699 -0.5 -12.5 -0.5h-163c-7.33301 0 -14.5 1.66699 -21.5 5s-12.5 7 -16.5 11c-7.33301 7.33301 -11.833 17 -13.5 29s-2.5 22 -2.5 30c0 19.333 1.66699 33 5 41s6 13.333 8 16c6.66699 8.66699 14.5 13.834 23.5 15.501
s15.5 2.5 19.5 2.5h195zM132.001 581.999c3.33301 6.66699 7.66699 13.502 13 20.502s10.666 12.167 15.999 15.5c4 3.33301 9 6.16602 15 8.49902s13 3.5 21 3.5c13.333 0 24 -2.16699 32 -6.5l23 -12.5l34 -20c9.33301 -5.33301 20 -9.16602 32 -11.499s23 -3.5 33 -3.5
c26 0 47.667 6.33301 65 19c11.333 7.33301 22.166 17.666 32.499 30.999s18.833 26.333 25.5 39l-51 33c-2 -4 -5.33301 -10 -10 -18s-8.66699 -14 -12 -18c-4 -4.66699 -9.5 -8.83398 -16.5 -12.501s-15.833 -5.5 -26.5 -5.5c-12 0 -22.667 2.33301 -32 7l-24 12l-40 22
c-11.333 6.66699 -22.333 11 -33 13s-19.667 3 -27 3c-13.333 0 -25.166 -1.83301 -35.499 -5.5s-19.166 -8.16699 -26.499 -13.5c-10.667 -7.33301 -21.5 -17.333 -32.5 -30s-19.833 -24 -26.5 -34z" />
    <glyph glyph-name="adieresis" unicode="&#xe4;" horiz-adv-x="555" 
d="M65 530l0.000976562 -89.999h261c9.33301 0 19.166 -1.33301 29.499 -4s19.5 -9 27.5 -19c6.66699 -8 10.834 -16.333 12.501 -25s2.5 -17 2.5 -25v-37h-230c-14 0 -29.5 -1.5 -46.5 -4.5s-33.833 -11.833 -50.5 -26.5c-20 -17.333 -32.5 -37.333 -37.5 -60
s-7.5 -45.667 -7.5 -69c0 -10 0.333008 -21.333 1 -34s2.5 -25.667 5.5 -39s7.66699 -26.166 14 -38.499s14.833 -23.166 25.5 -32.499c15.333 -13.333 31.5 -21 48.5 -23s32.833 -3 47.5 -3h253c12.667 0 25.667 1.16699 39 3.5s24.666 8.16602 33.999 17.499
s15.166 20.666 17.499 33.999s3.5 24.666 3.5 33.999v275c0 30 -3.66699 55.5 -11 76.5s-16.666 37.167 -27.999 48.5c-12 12.667 -27.667 22.667 -47 30s-40.333 11 -63 11h-301zM398.001 240.001v-122.002c0 -4 -0.333008 -7.83301 -1 -11.5s-3 -7.16699 -7 -10.5
s-8.5 -5.16602 -13.5 -5.49902s-9.16699 -0.5 -12.5 -0.5h-163c-7.33301 0 -14.5 1.66699 -21.5 5s-12.5 7 -16.5 11c-7.33301 7.33301 -11.833 17 -13.5 29s-2.5 22 -2.5 30c0 19.333 1.66699 33 5 41s6 13.333 8 16c6.66699 8.66699 14.5 13.834 23.5 15.501
s15.5 2.5 19.5 2.5h195zM331.001 599.999h108v108h-108v-108zM223.001 599.999v108h-108v-108h108z" />
    <glyph glyph-name="aring" unicode="&#xe5;" horiz-adv-x="555" 
d="M65 530l0.000976562 -89.999h261c9.33301 0 19.166 -1.33301 29.499 -4s19.5 -9 27.5 -19c6.66699 -8 10.834 -16.333 12.501 -25s2.5 -17 2.5 -25v-37h-230c-14 0 -29.5 -1.5 -46.5 -4.5s-33.833 -11.833 -50.5 -26.5c-20 -17.333 -32.5 -37.333 -37.5 -60
s-7.5 -45.667 -7.5 -69c0 -10 0.333008 -21.333 1 -34s2.5 -25.667 5.5 -39s7.66699 -26.166 14 -38.499s14.833 -23.166 25.5 -32.499c15.333 -13.333 31.5 -21 48.5 -23s32.833 -3 47.5 -3h253c12.667 0 25.667 1.16699 39 3.5s24.666 8.16602 33.999 17.499
s15.166 20.666 17.499 33.999s3.5 24.666 3.5 33.999v275c0 30 -3.66699 55.5 -11 76.5s-16.666 37.167 -27.999 48.5c-12 12.667 -27.667 22.667 -47 30s-40.333 11 -63 11h-301zM398.001 240.001v-122.002c0 -4 -0.333008 -7.83301 -1 -11.5s-3 -7.16699 -7 -10.5
s-8.5 -5.16602 -13.5 -5.49902s-9.16699 -0.5 -12.5 -0.5h-163c-7.33301 0 -14.5 1.66699 -21.5 5s-12.5 7 -16.5 11c-7.33301 7.33301 -11.833 17 -13.5 29s-2.5 22 -2.5 30c0 19.333 1.66699 33 5 41s6 13.333 8 16c6.66699 8.66699 14.5 13.834 23.5 15.501
s15.5 2.5 19.5 2.5h195zM279.001 803.999c-13.333 0 -27.332 -1.16699 -41.999 -3.5s-28 -8.5 -40 -18.5c-8 -7.33301 -15.667 -18 -23 -32s-11 -34 -11 -60c0 -25.333 3.66699 -45 11 -59s15 -24.667 23 -32c11.333 -10 24.666 -16.333 39.999 -19s29.333 -4 42 -4
c21.333 0 38.5 2.33301 51.5 7s23.167 10 30.5 16c14.667 12 23.834 26.5 27.501 43.5s5.5 32.833 5.5 47.5c0 15.333 -1.83301 31.5 -5.5 48.5s-12.834 31.5 -27.501 43.5c-12.667 10.667 -26.5 17 -41.5 19s-28.5 3 -40.5 3zM223.002 689.999c0 6 0.834961 13 2.50195 21
s5.16699 15.333 10.5 22c6.66699 7.33301 13.667 11.833 21 13.5s14.666 2.5 21.999 2.5s14.666 -0.833008 21.999 -2.5s14 -6.16699 20 -13.5c5.33301 -6.66699 8.83301 -14 10.5 -22s2.5 -15 2.5 -21c0 -6.66699 -0.833008 -13.667 -2.5 -21s-5.16699 -14.333 -10.5 -21
c-3.33301 -4 -8.33301 -7.83301 -15 -11.5s-15.667 -5.5 -27 -5.5s-20.5 1.83301 -27.5 5.5s-12.167 7.5 -15.5 11.5c-5.33301 6.66699 -8.83301 13.667 -10.5 21s-2.5 14.333 -2.5 21z" />
    <glyph glyph-name="ae" unicode="&#xe6;" horiz-adv-x="988" 
d="M78 530v-84.9941h261c5.33301 0 14.166 -1 26.499 -3s22.833 -8.66699 31.5 -20c4 -5.33301 7.66699 -13 11 -23s5 -19 5 -27v-47h-231c-12 0 -27.333 -1.33301 -46 -4s-35.667 -10 -51 -22c-10 -8 -18 -17.333 -24 -28s-10.5 -21.667 -13.5 -33s-5 -22.833 -6 -34.5
s-1.5 -22.834 -1.5 -33.501c0 -9.33301 0.333008 -20.333 1 -33s2.5 -25.834 5.5 -39.501s7.5 -26.834 13.5 -39.501s14.333 -23.334 25 -32.001c15.333 -13.333 32 -21 50 -23s33.667 -3 47 -3h216c10.667 0 21.834 0.666992 33.501 2s21.834 5.33301 30.501 12
c10 8 16.667 19.333 20 34c19.333 -20.667 39.666 -33.834 60.999 -39.501s45 -8.5 71 -8.5h298v90h-258c-17.333 0 -32 1.83301 -44 5.5s-22 8.5 -30 14.5s-14.5 12.667 -19.5 20s-8.83301 14.666 -11.5 21.999c-3.33301 10 -6 22.167 -8 36.5s-2.33301 28.166 -1 41.499
h308c8.66699 0 17.667 0.833008 27 2.5s18.333 6.16699 27 13.5c12.667 10.667 20.167 24 22.5 40s3.5 29.333 3.5 40c0 12 -0.666992 25.833 -2 41.5s-4.5 31.5 -9.5 47.5s-12.333 31.333 -22 46s-22.5 27.334 -38.5 38.001c-13.333 9.33301 -33 17.166 -59 23.499
s-64 9.5 -114 9.5c-28.667 0 -53.5 -1.33301 -74.5 -4s-39.333 -6.66699 -55 -12s-29.167 -12 -40.5 -20s-21.333 -17 -30 -27c-2 4 -5.16699 9.33301 -9.5 16s-11.166 13.334 -20.499 20.001s-21.333 12.5 -36 17.5s-33.334 7.5 -56.001 7.5h-283zM412 242.006
l-0.00390625 -124.001c0 -3.33301 -0.333008 -7 -1 -11s-3 -7.66699 -7 -11c-3.33301 -3.33301 -7.66602 -5.16602 -12.999 -5.49902s-9.66602 -0.5 -12.999 -0.5h-163c-7.33301 0 -15.166 1.66699 -23.499 5s-14.166 7 -17.499 11c-5.33301 6 -9.16602 14.833 -11.499 26.5
s-3.5 23.167 -3.5 34.5c0 9.33301 0.833008 19.5 2.5 30.5s5.16699 19.833 10.5 26.5c3.33301 4 8.66602 8 15.999 12s17 6 29 6h195zM539.996 312.005c0.666992 18.667 1.83496 35.5029 3.50195 50.5029s8.16699 29.5 19.5 43.5c8 10 16.667 17.667 26 23
s18.833 9.16602 28.5 11.499s19.334 3.66602 29.001 3.99902s19.167 0.5 28.5 0.5c19.333 0 36.666 -1.33301 51.999 -4s30.666 -10.334 45.999 -23.001c11.333 -9.33301 20.166 -19.833 26.499 -31.5s9.5 -26.167 9.5 -43.5c0 -8 -1.5 -15.167 -4.5 -21.5
s-10.167 -9.5 -21.5 -9.5h-243z" />
    <glyph glyph-name="ccedilla" unicode="&#xe7;" horiz-adv-x="513" 
d="M487 90l-190.003 -0.00292969c-12 0 -24.5 0.5 -37.5 1.5s-25.5 3.5 -37.5 7.5s-23 9.66699 -33 17s-18.333 17.333 -25 30c-3.33301 6.66699 -6.16602 14.834 -8.49902 24.501s-4.16602 19.5 -5.49902 29.5s-2.16602 19.833 -2.49902 29.5s-0.5 18.5 -0.5 26.5
c0 4 0.166992 10.167 0.5 18.5s0.666016 17.333 0.999023 27s1.16602 19.334 2.49902 29.001s3 18.167 5 25.5c6.66699 22.667 20.167 42.334 40.5 59.001s50.166 25 89.499 25h189v90h-227c-24 0 -44.833 -2 -62.5 -6s-33 -8.83301 -46 -14.5
s-23.833 -11.834 -32.5 -18.501s-15.667 -12.667 -21 -18c-14.667 -15.333 -26 -32.166 -34 -50.499s-14 -37 -18 -56s-6.33301 -37.833 -7 -56.5s-1 -36 -1 -52c0 -38 2.5 -73.167 7.5 -105.5s18.5 -61.5 40.5 -87.5c12 -14 25.167 -25.333 39.5 -34
s28.5 -15.334 42.5 -20.001s27.667 -7.66699 41 -9s25 -2 35 -2h48l-26 -53l-4.5 -11c-1.66699 -4 -2.5 -8.33301 -2.5 -13c0 -8.66699 3 -15 9 -19c3.33301 -2 7.33301 -3.33301 12 -4s8.66699 -1 12 -1h37c5.33301 0 11 -0.666992 17 -2s9 -6 9 -14
s-3.16699 -12.833 -9.5 -14.5s-12.5 -2.5 -18.5 -2.5h-78v-56h86c10.667 0 21.834 0.666992 33.501 2s22.167 5.33301 31.5 12c6.66699 4.66699 12.834 11.667 18.501 21s8.5 22.666 8.5 39.999c0 9.33301 -1.5 19 -4.5 29s-9.16699 18.667 -18.5 26
c-8 6.66699 -16.5 10.834 -25.5 12.501s-17.167 2.5 -24.5 2.5h-13c-1.33301 0 -3 0.166992 -5 0.5s-3 1.83301 -3 4.5c0 0.666992 0.333008 1.83398 1 3.50098s1.33398 3.16699 2.00098 4.5l16 32h147v90z" />
    <glyph glyph-name="egrave" unicode="&#xe8;" horiz-adv-x="563" 
d="M520 0v90.0049h-259c-10.667 0 -21.5 0.666992 -32.5 2s-21.5 4.16602 -31.5 8.49902s-18.667 10.666 -26 18.999s-13 19.5 -17 33.5c-2 8 -3.66699 19.333 -5 34s-2 27.667 -2 39h308c10.667 0 20.834 1.33301 30.501 4s18.5 8 26.5 16
c11.333 11.333 18.333 24.166 21 38.499s4 28.166 4 41.499c0 16.667 -1 33.167 -3 49.5s-5.83301 32 -11.5 47s-13.334 28.833 -23.001 41.5s-22.167 24 -37.5 34c-24.667 15.333 -52.167 24.833 -82.5 28.5s-61.166 5.5 -92.499 5.5
c-12.667 0 -27.334 -0.333008 -44.001 -1s-34 -2.5 -52 -5.5s-35.833 -7.83301 -53.5 -14.5s-33.834 -16.334 -48.501 -29.001s-26.167 -26.667 -34.5 -42s-14.666 -32.166 -18.999 -50.499s-7 -38.333 -8 -60s-1.5 -44.834 -1.5 -69.501c0 -35.333 2 -70 6 -104
s14.667 -63.667 32 -89c10.667 -15.333 22.667 -27.5 36 -36.5s27 -15.833 41 -20.5s28.333 -7.5 43 -8.5s28.667 -1.5 42 -1.5h294zM147 316.005c0.666992 17.333 1.83105 33.499 3.49805 48.499s8.5 29.167 20.5 42.5c8 8.66699 16.833 15.5 26.5 20.5s19.5 8.5 29.5 10.5
s19.667 3.16699 29 3.5s18 0.5 26 0.5c16.667 0 33.834 -1.16699 51.501 -3.5s33.834 -9.16602 48.501 -20.499c8.66699 -6.66699 16.5 -16 23.5 -28s10.5 -26.333 10.5 -43c0 -7.33301 -1.5 -14.333 -4.5 -21s-10.167 -10 -21.5 -10h-243zM230.997 767.004l-60 -75
l162 -132l59 74z" />
    <glyph glyph-name="eacute" unicode="&#xe9;" horiz-adv-x="563" 
d="M520 0v90.0049h-259c-10.667 0 -21.5 0.666992 -32.5 2s-21.5 4.16602 -31.5 8.49902s-18.667 10.666 -26 18.999s-13 19.5 -17 33.5c-2 8 -3.66699 19.333 -5 34s-2 27.667 -2 39h308c10.667 0 20.834 1.33301 30.501 4s18.5 8 26.5 16
c11.333 11.333 18.333 24.166 21 38.499s4 28.166 4 41.499c0 16.667 -1 33.167 -3 49.5s-5.83301 32 -11.5 47s-13.334 28.833 -23.001 41.5s-22.167 24 -37.5 34c-24.667 15.333 -52.167 24.833 -82.5 28.5s-61.166 5.5 -92.499 5.5
c-12.667 0 -27.334 -0.333008 -44.001 -1s-34 -2.5 -52 -5.5s-35.833 -7.83301 -53.5 -14.5s-33.834 -16.334 -48.501 -29.001s-26.167 -26.667 -34.5 -42s-14.666 -32.166 -18.999 -50.499s-7 -38.333 -8 -60s-1.5 -44.834 -1.5 -69.501c0 -35.333 2 -70 6 -104
s14.667 -63.667 32 -89c10.667 -15.333 22.667 -27.5 36 -36.5s27 -15.833 41 -20.5s28.333 -7.5 43 -8.5s28.667 -1.5 42 -1.5h294zM147 316.005c0.666992 17.333 1.83105 33.499 3.49805 48.499s8.5 29.167 20.5 42.5c8 8.66699 16.833 15.5 26.5 20.5s19.5 8.5 29.5 10.5
s19.667 3.16699 29 3.5s18 0.5 26 0.5c16.667 0 33.834 -1.16699 51.501 -3.5s33.834 -9.16602 48.501 -20.499c8.66699 -6.66699 16.5 -16 23.5 -28s10.5 -26.333 10.5 -43c0 -7.33301 -1.5 -14.333 -4.5 -21s-10.167 -10 -21.5 -10h-243zM331.997 767.004l-161 -133
l59 -74l162 132z" />
    <glyph glyph-name="ecircumflex" unicode="&#xea;" horiz-adv-x="563" 
d="M520 0v90.0049h-259c-10.667 0 -21.5 0.666992 -32.5 2s-21.5 4.16602 -31.5 8.49902s-18.667 10.666 -26 18.999s-13 19.5 -17 33.5c-2 8 -3.66699 19.333 -5 34s-2 27.667 -2 39h308c10.667 0 20.834 1.33301 30.501 4s18.5 8 26.5 16
c11.333 11.333 18.333 24.166 21 38.499s4 28.166 4 41.499c0 16.667 -1 33.167 -3 49.5s-5.83301 32 -11.5 47s-13.334 28.833 -23.001 41.5s-22.167 24 -37.5 34c-24.667 15.333 -52.167 24.833 -82.5 28.5s-61.166 5.5 -92.499 5.5
c-12.667 0 -27.334 -0.333008 -44.001 -1s-34 -2.5 -52 -5.5s-35.833 -7.83301 -53.5 -14.5s-33.834 -16.334 -48.501 -29.001s-26.167 -26.667 -34.5 -42s-14.666 -32.166 -18.999 -50.499s-7 -38.333 -8 -60s-1.5 -44.834 -1.5 -69.501c0 -35.333 2 -70 6 -104
s14.667 -63.667 32 -89c10.667 -15.333 22.667 -27.5 36 -36.5s27 -15.833 41 -20.5s28.333 -7.5 43 -8.5s28.667 -1.5 42 -1.5h294zM147 316.005c0.666992 17.333 1.83105 33.499 3.49805 48.499s8.5 29.167 20.5 42.5c8 8.66699 16.833 15.5 26.5 20.5s19.5 8.5 29.5 10.5
s19.667 3.16699 29 3.5s18 0.5 26 0.5c16.667 0 33.834 -1.16699 51.501 -3.5s33.834 -9.16602 48.501 -20.499c8.66699 -6.66699 16.5 -16 23.5 -28s10.5 -26.333 10.5 -43c0 -7.33301 -1.5 -14.333 -4.5 -21s-10.167 -10 -21.5 -10h-243zM423.997 560.004l46 62l-141 113
c-7.33301 5.33301 -14.833 9.66602 -22.5 12.999s-16.167 5 -25.5 5s-17.833 -1.66699 -25.5 -5s-15.167 -7.66602 -22.5 -12.999l-140 -113l46 -62l117 97c4.66699 3.33301 8.83398 5.83301 12.501 7.5s8.16699 2.5 13.5 2.5c6.66699 0 11.667 -0.833008 15 -2.5
s6.66602 -4.16699 9.99902 -7.5z" />
    <glyph glyph-name="edieresis" unicode="&#xeb;" horiz-adv-x="563" 
d="M520 0v90.0049h-259c-10.667 0 -21.5 0.666992 -32.5 2s-21.5 4.16602 -31.5 8.49902s-18.667 10.666 -26 18.999s-13 19.5 -17 33.5c-2 8 -3.66699 19.333 -5 34s-2 27.667 -2 39h308c10.667 0 20.834 1.33301 30.501 4s18.5 8 26.5 16
c11.333 11.333 18.333 24.166 21 38.499s4 28.166 4 41.499c0 16.667 -1 33.167 -3 49.5s-5.83301 32 -11.5 47s-13.334 28.833 -23.001 41.5s-22.167 24 -37.5 34c-24.667 15.333 -52.167 24.833 -82.5 28.5s-61.166 5.5 -92.499 5.5
c-12.667 0 -27.334 -0.333008 -44.001 -1s-34 -2.5 -52 -5.5s-35.833 -7.83301 -53.5 -14.5s-33.834 -16.334 -48.501 -29.001s-26.167 -26.667 -34.5 -42s-14.666 -32.166 -18.999 -50.499s-7 -38.333 -8 -60s-1.5 -44.834 -1.5 -69.501c0 -35.333 2 -70 6 -104
s14.667 -63.667 32 -89c10.667 -15.333 22.667 -27.5 36 -36.5s27 -15.833 41 -20.5s28.333 -7.5 43 -8.5s28.667 -1.5 42 -1.5h294zM147 316.005c0.666992 17.333 1.83105 33.499 3.49805 48.499s8.5 29.167 20.5 42.5c8 8.66699 16.833 15.5 26.5 20.5s19.5 8.5 29.5 10.5
s19.667 3.16699 29 3.5s18 0.5 26 0.5c16.667 0 33.834 -1.16699 51.501 -3.5s33.834 -9.16602 48.501 -20.499c8.66699 -6.66699 16.5 -16 23.5 -28s10.5 -26.333 10.5 -43c0 -7.33301 -1.5 -14.333 -4.5 -21s-10.167 -10 -21.5 -10h-243zM334.997 600.004h108v108h-108
v-108zM226.997 600.004v108h-108v-108h108z" />
    <glyph glyph-name="igrave" unicode="&#xec;" horiz-adv-x="197" 
d="M40 0h117v530h-117v-530zM49 767l-60 -75l162 -132l59 74z" />
    <glyph glyph-name="iacute" unicode="&#xed;" horiz-adv-x="197" 
d="M40 0h117v530h-117v-530zM150 767l-161 -133l59 -74l162 132z" />
    <glyph glyph-name="icircumflex" unicode="&#xee;" horiz-adv-x="236" 
d="M65 0h117v530h-117v-530zM266 558l46 62l-141 113c-7.33301 5.33301 -14.833 9.66602 -22.5 12.999s-16.167 5 -25.5 5s-17.833 -1.66699 -25.5 -5s-15.167 -7.66602 -22.5 -12.999l-140 -113l46 -62l117 97c4.66699 3.33301 8.83398 5.83301 12.501 7.5
s8.16699 2.5 13.5 2.5c6.66699 0 11.667 -0.833008 15 -2.5s6.66602 -4.16699 9.99902 -7.5z" />
    <glyph glyph-name="idieresis" unicode="&#xef;" horiz-adv-x="253" 
d="M70 0h117v530h-117v-530zM184 600h108v108h-108v-108zM76 600v108h-108v-108h108z" />
    <glyph glyph-name="eth" unicode="&#xf0;" horiz-adv-x="562" 
d="M492 730l-74 -37.9961c-11.333 8 -22.5 14.667 -33.5 20s-22.167 10 -33.5 14c-6 2 -15.167 4.66699 -27.5 8s-27.166 5.66602 -44.499 6.99902l-12 -63c6 -0.666992 16.5 -2.5 31.5 -5.5s29.833 -9.16699 44.5 -18.5l-67 -34l30 -53l82 42c5.33301 -6 11 -15.5 17 -28.5
s9.33301 -29.833 10 -50.5h-153c-12 0 -26 -0.5 -42 -1.5s-32.333 -4 -49 -9s-33 -12.833 -49 -23.5s-30.333 -25.334 -43 -44.001c-16.667 -25.333 -27.334 -53.5 -32.001 -84.5s-7 -61.833 -7 -92.5c0 -47.333 2.66699 -84 8 -110s10.333 -44.667 15 -56
c9.33301 -24 21 -43.167 35 -57.5s29 -25.333 45 -33s32.333 -12.667 49 -15s32 -3.5 46 -3.5h205c11.333 0 23.666 1.33301 36.999 4s24.666 10 33.999 22c8.66699 10.667 13.834 22.667 15.501 36s2.5 23.333 2.5 30v367c0 13.333 -1 30.166 -3 50.499
s-7.33301 41.5 -16 63.5c-6.66699 17.333 -14.167 32.166 -22.5 44.499s-16.166 22.833 -23.499 31.5l57 29zM415 443.004v-295.999c0 -13.333 -0.5 -24 -1.5 -32s-3.16699 -13.667 -6.5 -17c-1.33301 -1.33301 -4.66602 -3 -9.99902 -5s-13.666 -3 -24.999 -3h-87
c-8 0 -17.333 0.5 -28 1.5s-21.334 3.83301 -32.001 8.5s-20.667 11.334 -30 20.001s-17 21 -23 37c-2 5.33301 -4.5 16.166 -7.5 32.499s-4.5 43.5 -4.5 81.5c0 32 1.83301 57.667 5.5 77s9.16699 35 16.5 47c10.667 17.333 24.667 29.666 42 36.999s37.666 11 60.999 11
h130z" />
    <glyph glyph-name="ntilde" unicode="&#xf1;" horiz-adv-x="565" 
d="M40 0l117.003 0.00195312v412c0 3.33301 0.166992 7 0.5 11s2.16602 7.66699 5.49902 11s6.66602 5.16602 9.99902 5.49902s6.66602 0.5 9.99902 0.5h119c21.333 0 38.5 -2.5 51.5 -7.5s23.833 -13.167 32.5 -24.5c9.33301 -12.667 15.333 -27.167 18 -43.5
s4 -33.166 4 -50.499v-314h117v349c0 36.667 -5.16699 65.667 -15.5 87s-22.5 38.333 -36.5 51c-21.333 19.333 -44.333 31.333 -69 36s-51 7 -79 7h-187c-11.333 0 -24.833 -0.833008 -40.5 -2.5s-29.167 -8.83398 -40.5 -21.501
c-8 -8.66699 -12.833 -18.334 -14.5 -29.001s-2.5 -20 -2.5 -28v-449zM137.003 582.002c3.33301 6.66699 7.66699 13.502 13 20.502s10.666 12.167 15.999 15.5c4 3.33301 9 6.16602 15 8.49902s13 3.5 21 3.5c13.333 0 24 -2.16699 32 -6.5l23 -12.5l34 -20
c9.33301 -5.33301 20 -9.16602 32 -11.499s23 -3.5 33 -3.5c26 0 47.667 6.33301 65 19c11.333 7.33301 22.166 17.666 32.499 30.999s18.833 26.333 25.5 39l-51 33c-2 -4 -5.33301 -10 -10 -18s-8.66699 -14 -12 -18c-4 -4.66699 -9.5 -8.83398 -16.5 -12.501
s-15.833 -5.5 -26.5 -5.5c-12 0 -22.667 2.33301 -32 7l-24 12l-40 22c-11.333 6.66699 -22.333 11 -33 13s-19.667 3 -27 3c-13.333 0 -25.166 -1.83301 -35.499 -5.5s-19.166 -8.16699 -26.499 -13.5c-10.667 -7.33301 -21.5 -17.333 -32.5 -30s-19.833 -24 -26.5 -34z
" />
    <glyph glyph-name="ograve" unicode="&#xf2;" horiz-adv-x="616" 
d="M308 536c-16 0 -33.333 -0.332031 -52 -0.999023s-37.667 -2.83398 -57 -6.50098s-38 -9.33398 -56 -17.001s-34.333 -18.167 -49 -31.5c-15.333 -14 -27.5 -30.5 -36.5 -49.5s-15.833 -38.333 -20.5 -58s-7.66699 -39.167 -9 -58.5s-2 -36.333 -2 -51
c0 -13.333 0.666992 -29.166 2 -47.499s4.16602 -37.333 8.49902 -57s11 -38.834 20 -57.501s21.5 -35.334 37.5 -50.001c14.667 -13.333 31 -23.833 49 -31.5s36.667 -13.334 56 -17.001s38.333 -6 57 -7s36 -1.5 52 -1.5c15.333 0 32.333 0.5 51 1.5
s37.834 3.33301 57.501 7s38.667 9.33398 57 17.001s34.5 18.167 48.5 31.5c19.333 18.667 35.5 45.167 48.5 79.5s19.5 79.833 19.5 136.5c0 14 -0.666992 30.333 -2 49s-4.33301 37.667 -9 57s-11.5 38.5 -20.5 57.5s-21.167 35.5 -36.5 49.5
c-14.667 13.333 -31 23.833 -49 31.5s-36.667 13.334 -56 17.001s-38.333 5.83398 -57 6.50098s-36 1 -52 1zM147 264.001c0 8.66699 0.166016 19 0.499023 31s1.5 24.5 3.5 37.5s5.33301 25.833 10 38.5s11 23.667 19 33s17.5 16.833 28.5 22.5s22.167 10 33.5 13
s22.833 4.83301 34.5 5.5s22.167 1 31.5 1c10.667 0 21.667 -0.333008 33 -1s22.5 -2.5 33.5 -5.5s21.667 -7.33301 32 -13s19.833 -13.167 28.5 -22.5c9.33301 -10 16.333 -21.167 21 -33.5s8 -24.833 10 -37.5s3 -25 3 -37v-32c0 -23.333 -1.5 -47 -4.5 -71
s-13.167 -45.667 -30.5 -65s-37.166 -31.5 -59.499 -36.5s-44.5 -7.5 -66.5 -7.5c-21.333 0 -43.5 2.5 -66.5 7.5s-43.167 17.167 -60.5 36.5c-16.667 19.333 -26.5 41.333 -29.5 66s-4.5 48 -4.5 70zM249.999 770.001l-60 -75l162 -132l59 74z" />
    <glyph glyph-name="oacute" unicode="&#xf3;" horiz-adv-x="616" 
d="M308 536c-16 0 -33.333 -0.332031 -52 -0.999023s-37.667 -2.83398 -57 -6.50098s-38 -9.33398 -56 -17.001s-34.333 -18.167 -49 -31.5c-15.333 -14 -27.5 -30.5 -36.5 -49.5s-15.833 -38.333 -20.5 -58s-7.66699 -39.167 -9 -58.5s-2 -36.333 -2 -51
c0 -13.333 0.666992 -29.166 2 -47.499s4.16602 -37.333 8.49902 -57s11 -38.834 20 -57.501s21.5 -35.334 37.5 -50.001c14.667 -13.333 31 -23.833 49 -31.5s36.667 -13.334 56 -17.001s38.333 -6 57 -7s36 -1.5 52 -1.5c15.333 0 32.333 0.5 51 1.5
s37.834 3.33301 57.501 7s38.667 9.33398 57 17.001s34.5 18.167 48.5 31.5c19.333 18.667 35.5 45.167 48.5 79.5s19.5 79.833 19.5 136.5c0 14 -0.666992 30.333 -2 49s-4.33301 37.667 -9 57s-11.5 38.5 -20.5 57.5s-21.167 35.5 -36.5 49.5
c-14.667 13.333 -31 23.833 -49 31.5s-36.667 13.334 -56 17.001s-38.333 5.83398 -57 6.50098s-36 1 -52 1zM147 264.001c0 8.66699 0.166016 19 0.499023 31s1.5 24.5 3.5 37.5s5.33301 25.833 10 38.5s11 23.667 19 33s17.5 16.833 28.5 22.5s22.167 10 33.5 13
s22.833 4.83301 34.5 5.5s22.167 1 31.5 1c10.667 0 21.667 -0.333008 33 -1s22.5 -2.5 33.5 -5.5s21.667 -7.33301 32 -13s19.833 -13.167 28.5 -22.5c9.33301 -10 16.333 -21.167 21 -33.5s8 -24.833 10 -37.5s3 -25 3 -37v-32c0 -23.333 -1.5 -47 -4.5 -71
s-13.167 -45.667 -30.5 -65s-37.166 -31.5 -59.499 -36.5s-44.5 -7.5 -66.5 -7.5c-21.333 0 -43.5 2.5 -66.5 7.5s-43.167 17.167 -60.5 36.5c-16.667 19.333 -26.5 41.333 -29.5 66s-4.5 48 -4.5 70zM363.999 770.001l-161 -133l59 -74l162 132z" />
    <glyph glyph-name="ocircumflex" unicode="&#xf4;" horiz-adv-x="616" 
d="M308 536c-16 0 -33.333 -0.332031 -52 -0.999023s-37.667 -2.83398 -57 -6.50098s-38 -9.33398 -56 -17.001s-34.333 -18.167 -49 -31.5c-15.333 -14 -27.5 -30.5 -36.5 -49.5s-15.833 -38.333 -20.5 -58s-7.66699 -39.167 -9 -58.5s-2 -36.333 -2 -51
c0 -13.333 0.666992 -29.166 2 -47.499s4.16602 -37.333 8.49902 -57s11 -38.834 20 -57.501s21.5 -35.334 37.5 -50.001c14.667 -13.333 31 -23.833 49 -31.5s36.667 -13.334 56 -17.001s38.333 -6 57 -7s36 -1.5 52 -1.5c15.333 0 32.333 0.5 51 1.5
s37.834 3.33301 57.501 7s38.667 9.33398 57 17.001s34.5 18.167 48.5 31.5c19.333 18.667 35.5 45.167 48.5 79.5s19.5 79.833 19.5 136.5c0 14 -0.666992 30.333 -2 49s-4.33301 37.667 -9 57s-11.5 38.5 -20.5 57.5s-21.167 35.5 -36.5 49.5
c-14.667 13.333 -31 23.833 -49 31.5s-36.667 13.334 -56 17.001s-38.333 5.83398 -57 6.50098s-36 1 -52 1zM147 264.001c0 8.66699 0.166016 19 0.499023 31s1.5 24.5 3.5 37.5s5.33301 25.833 10 38.5s11 23.667 19 33s17.5 16.833 28.5 22.5s22.167 10 33.5 13
s22.833 4.83301 34.5 5.5s22.167 1 31.5 1c10.667 0 21.667 -0.333008 33 -1s22.5 -2.5 33.5 -5.5s21.667 -7.33301 32 -13s19.833 -13.167 28.5 -22.5c9.33301 -10 16.333 -21.167 21 -33.5s8 -24.833 10 -37.5s3 -25 3 -37v-32c0 -23.333 -1.5 -47 -4.5 -71
s-13.167 -45.667 -30.5 -65s-37.166 -31.5 -59.499 -36.5s-44.5 -7.5 -66.5 -7.5c-21.333 0 -43.5 2.5 -66.5 7.5s-43.167 17.167 -60.5 36.5c-16.667 19.333 -26.5 41.333 -29.5 66s-4.5 48 -4.5 70zM449.999 560.001l46 62l-141 113
c-7.33301 5.33301 -14.833 9.66602 -22.5 12.999s-16.167 5 -25.5 5s-17.833 -1.66699 -25.5 -5s-15.167 -7.66602 -22.5 -12.999l-140 -113l46 -62l117 97c4.66699 3.33301 8.83398 5.83301 12.501 7.5s8.16699 2.5 13.5 2.5c6.66699 0 11.667 -0.833008 15 -2.5
s6.66602 -4.16699 9.99902 -7.5z" />
    <glyph glyph-name="otilde" unicode="&#xf5;" horiz-adv-x="616" 
d="M308 536c-16 0 -33.333 -0.332031 -52 -0.999023s-37.667 -2.83398 -57 -6.50098s-38 -9.33398 -56 -17.001s-34.333 -18.167 -49 -31.5c-15.333 -14 -27.5 -30.5 -36.5 -49.5s-15.833 -38.333 -20.5 -58s-7.66699 -39.167 -9 -58.5s-2 -36.333 -2 -51
c0 -13.333 0.666992 -29.166 2 -47.499s4.16602 -37.333 8.49902 -57s11 -38.834 20 -57.501s21.5 -35.334 37.5 -50.001c14.667 -13.333 31 -23.833 49 -31.5s36.667 -13.334 56 -17.001s38.333 -6 57 -7s36 -1.5 52 -1.5c15.333 0 32.333 0.5 51 1.5
s37.834 3.33301 57.501 7s38.667 9.33398 57 17.001s34.5 18.167 48.5 31.5c19.333 18.667 35.5 45.167 48.5 79.5s19.5 79.833 19.5 136.5c0 14 -0.666992 30.333 -2 49s-4.33301 37.667 -9 57s-11.5 38.5 -20.5 57.5s-21.167 35.5 -36.5 49.5
c-14.667 13.333 -31 23.833 -49 31.5s-36.667 13.334 -56 17.001s-38.333 5.83398 -57 6.50098s-36 1 -52 1zM147 264.001c0 8.66699 0.166016 19 0.499023 31s1.5 24.5 3.5 37.5s5.33301 25.833 10 38.5s11 23.667 19 33s17.5 16.833 28.5 22.5s22.167 10 33.5 13
s22.833 4.83301 34.5 5.5s22.167 1 31.5 1c10.667 0 21.667 -0.333008 33 -1s22.5 -2.5 33.5 -5.5s21.667 -7.33301 32 -13s19.833 -13.167 28.5 -22.5c9.33301 -10 16.333 -21.167 21 -33.5s8 -24.833 10 -37.5s3 -25 3 -37v-32c0 -23.333 -1.5 -47 -4.5 -71
s-13.167 -45.667 -30.5 -65s-37.166 -31.5 -59.499 -36.5s-44.5 -7.5 -66.5 -7.5c-21.333 0 -43.5 2.5 -66.5 7.5s-43.167 17.167 -60.5 36.5c-16.667 19.333 -26.5 41.333 -29.5 66s-4.5 48 -4.5 70zM155.999 586.001c3.33301 6.66699 7.66699 13.502 13 20.502
s10.666 12.167 15.999 15.5c4 3.33301 9 6.16602 15 8.49902s13 3.5 21 3.5c13.333 0 24 -2.16699 32 -6.5l23 -12.5l34 -20c9.33301 -5.33301 20 -9.16602 32 -11.499s23 -3.5 33 -3.5c26 0 47.667 6.33301 65 19c11.333 7.33301 22.166 17.666 32.499 30.999
s18.833 26.333 25.5 39l-51 33c-2 -4 -5.33301 -10 -10 -18s-8.66699 -14 -12 -18c-4 -4.66699 -9.5 -8.83398 -16.5 -12.501s-15.833 -5.5 -26.5 -5.5c-12 0 -22.667 2.33301 -32 7l-24 12l-40 22c-11.333 6.66699 -22.333 11 -33 13s-19.667 3 -27 3
c-13.333 0 -25.166 -1.83301 -35.499 -5.5s-19.166 -8.16699 -26.499 -13.5c-10.667 -7.33301 -21.5 -17.333 -32.5 -30s-19.833 -24 -26.5 -34z" />
    <glyph glyph-name="odieresis" unicode="&#xf6;" horiz-adv-x="616" 
d="M308 536c-16 0 -33.333 -0.332031 -52 -0.999023s-37.667 -2.83398 -57 -6.50098s-38 -9.33398 -56 -17.001s-34.333 -18.167 -49 -31.5c-15.333 -14 -27.5 -30.5 -36.5 -49.5s-15.833 -38.333 -20.5 -58s-7.66699 -39.167 -9 -58.5s-2 -36.333 -2 -51
c0 -13.333 0.666992 -29.166 2 -47.499s4.16602 -37.333 8.49902 -57s11 -38.834 20 -57.501s21.5 -35.334 37.5 -50.001c14.667 -13.333 31 -23.833 49 -31.5s36.667 -13.334 56 -17.001s38.333 -6 57 -7s36 -1.5 52 -1.5c15.333 0 32.333 0.5 51 1.5
s37.834 3.33301 57.501 7s38.667 9.33398 57 17.001s34.5 18.167 48.5 31.5c19.333 18.667 35.5 45.167 48.5 79.5s19.5 79.833 19.5 136.5c0 14 -0.666992 30.333 -2 49s-4.33301 37.667 -9 57s-11.5 38.5 -20.5 57.5s-21.167 35.5 -36.5 49.5
c-14.667 13.333 -31 23.833 -49 31.5s-36.667 13.334 -56 17.001s-38.333 5.83398 -57 6.50098s-36 1 -52 1zM147 264.001c0 8.66699 0.166016 19 0.499023 31s1.5 24.5 3.5 37.5s5.33301 25.833 10 38.5s11 23.667 19 33s17.5 16.833 28.5 22.5s22.167 10 33.5 13
s22.833 4.83301 34.5 5.5s22.167 1 31.5 1c10.667 0 21.667 -0.333008 33 -1s22.5 -2.5 33.5 -5.5s21.667 -7.33301 32 -13s19.833 -13.167 28.5 -22.5c9.33301 -10 16.333 -21.167 21 -33.5s8 -24.833 10 -37.5s3 -25 3 -37v-32c0 -23.333 -1.5 -47 -4.5 -71
s-13.167 -45.667 -30.5 -65s-37.166 -31.5 -59.499 -36.5s-44.5 -7.5 -66.5 -7.5c-21.333 0 -43.5 2.5 -66.5 7.5s-43.167 17.167 -60.5 36.5c-16.667 19.333 -26.5 41.333 -29.5 66s-4.5 48 -4.5 70zM361.999 600.001h108v108h-108v-108zM253.999 600.001v108h-108v-108
h108z" />
    <glyph glyph-name="divide" unicode="&#xf7;" horiz-adv-x="580" 
d="M520 274v85h-460v-85h460zM351 449v126h-122v-126h122zM351 58v126h-122v-126h122z" />
    <glyph glyph-name="oslash" unicode="&#xf8;" horiz-adv-x="592" 
d="M10 22l37.001 -36.999l51 50c16 -9.33301 31.167 -16.666 45.5 -21.999s28.666 -9.5 42.999 -12.5s29.5 -4.83301 45.5 -5.5s33.667 -1 53 -1c15.333 0 33 0.333008 53 1s40.333 2.83398 61 6.50098s40.834 9.16699 60.501 16.5s36.834 18 51.501 32
c16.667 15.333 29.5 33.666 38.5 54.999s15.833 42.833 20.5 64.5s7.5 41.667 8.5 60s1.5 32.166 1.5 41.499c0 22.667 -1 42.834 -3 60.501s-5 34 -9 49s-9 28.833 -15 41.5s-13 25 -21 37l50 49l-36 38l-51 -50c-16 8.66699 -31.333 15.667 -46 21
s-29.334 9.33301 -44.001 12s-30 4.5 -46 5.5s-33.667 1.5 -53 1.5c-18 0 -37 -0.5 -57 -1.5s-40 -3.33301 -60 -7s-39.167 -9.33398 -57.5 -17.001s-34.833 -18.5 -49.5 -32.5c-16 -15.333 -28.5 -32.833 -37.5 -52.5s-15.5 -39.667 -19.5 -60s-6.5 -40 -7.5 -59
s-1.5 -34.833 -1.5 -47.5c0 -20 0.666992 -38.333 2 -55s3.66602 -32.167 6.99902 -46.5s8 -28.333 14 -42s13.667 -27.834 23 -42.501zM156.001 159.001c-9.33301 19.333 -14.833 36.498 -16.5 51.498s-2.5 32.167 -2.5 51.5c0 12 0.333008 24.667 1 38
s2.16699 26.5 4.5 39.5s5.83301 25.333 10.5 37s11 21.834 19 30.501s17.5 15.5 28.5 20.5s22.333 8.83301 34 11.5s23.167 4.5 34.5 5.5s21.666 1.5 30.999 1.5c22.667 0 42.334 -1.66699 59.001 -5s34 -10.666 52 -21.999zM440.001 374.999
c8.66699 -19.333 14.001 -36.665 16.001 -51.998s3 -33.333 3 -54c0 -8.66699 -0.166992 -18.834 -0.5 -30.501s-1.5 -24 -3.5 -37s-5.16699 -25.833 -9.5 -38.5s-10.5 -24 -18.5 -34c-8.66699 -10.667 -18.334 -19 -29.001 -25s-21.834 -10.5 -33.501 -13.5
s-23.667 -4.83301 -36 -5.5s-23.833 -1 -34.5 -1c-21.333 0 -40.166 1.66699 -56.499 5s-33.833 11.666 -52.5 24.999z" />
    <glyph glyph-name="ugrave" unicode="&#xf9;" horiz-adv-x="570" 
d="M530 95l-0.000976562 434.999h-117v-397c0 -5.33301 -0.333008 -10.666 -1 -15.999s-3.66699 -10.666 -9 -15.999c-7.33301 -7.33301 -18.666 -11 -33.999 -11h-97c-21.333 0 -39.833 2 -55.5 6s-28.834 13.333 -39.501 28c-7.33301 10 -12.5 22.167 -15.5 36.5
s-4.5 33.166 -4.5 56.499v313h-117v-334c0 -32.667 3.5 -62 10.5 -88s21.5 -48.667 43.5 -68c18 -15.333 37.833 -25.833 59.5 -31.5s47.834 -8.5 78.501 -8.5h187c14 0 28.5 1 43.5 3s28.167 7.66699 39.5 17c13.333 10.667 21.333 23.5 24 38.5s4 27.167 4 36.5z
M214.999 767.999l-60 -75l162 -132l59 74z" />
    <glyph glyph-name="uacute" unicode="&#xfa;" horiz-adv-x="570" 
d="M530 95l-0.000976562 434.999h-117v-397c0 -5.33301 -0.333008 -10.666 -1 -15.999s-3.66699 -10.666 -9 -15.999c-7.33301 -7.33301 -18.666 -11 -33.999 -11h-97c-21.333 0 -39.833 2 -55.5 6s-28.834 13.333 -39.501 28c-7.33301 10 -12.5 22.167 -15.5 36.5
s-4.5 33.166 -4.5 56.499v313h-117v-334c0 -32.667 3.5 -62 10.5 -88s21.5 -48.667 43.5 -68c18 -15.333 37.833 -25.833 59.5 -31.5s47.834 -8.5 78.501 -8.5h187c14 0 28.5 1 43.5 3s28.167 7.66699 39.5 17c13.333 10.667 21.333 23.5 24 38.5s4 27.167 4 36.5z
M369.999 766.999l-161 -133l59 -74l162 132z" />
    <glyph glyph-name="ucircumflex" unicode="&#xfb;" horiz-adv-x="570" 
d="M530 95l-0.000976562 434.999h-117v-397c0 -5.33301 -0.333008 -10.666 -1 -15.999s-3.66699 -10.666 -9 -15.999c-7.33301 -7.33301 -18.666 -11 -33.999 -11h-97c-21.333 0 -39.833 2 -55.5 6s-28.834 13.333 -39.501 28c-7.33301 10 -12.5 22.167 -15.5 36.5
s-4.5 33.166 -4.5 56.499v313h-117v-334c0 -32.667 3.5 -62 10.5 -88s21.5 -48.667 43.5 -68c18 -15.333 37.833 -25.833 59.5 -31.5s47.834 -8.5 78.501 -8.5h187c14 0 28.5 1 43.5 3s28.167 7.66699 39.5 17c13.333 10.667 21.333 23.5 24 38.5s4 27.167 4 36.5z
M426.999 575.999l46 62l-141 113c-7.33301 5.33301 -14.833 9.66602 -22.5 12.999s-16.167 5 -25.5 5s-17.833 -1.66699 -25.5 -5s-15.167 -7.66602 -22.5 -12.999l-140 -113l46 -62l117 97c4.66699 3.33301 8.83398 5.83301 12.501 7.5s8.16699 2.5 13.5 2.5
c6.66699 0 11.667 -0.833008 15 -2.5s6.66602 -4.16699 9.99902 -7.5z" />
    <glyph glyph-name="udieresis" unicode="&#xfc;" horiz-adv-x="570" 
d="M530 95l-0.000976562 434.999h-117v-397c0 -5.33301 -0.333008 -10.666 -1 -15.999s-3.66699 -10.666 -9 -15.999c-7.33301 -7.33301 -18.666 -11 -33.999 -11h-97c-21.333 0 -39.833 2 -55.5 6s-28.834 13.333 -39.501 28c-7.33301 10 -12.5 22.167 -15.5 36.5
s-4.5 33.166 -4.5 56.499v313h-117v-334c0 -32.667 3.5 -62 10.5 -88s21.5 -48.667 43.5 -68c18 -15.333 37.833 -25.833 59.5 -31.5s47.834 -8.5 78.501 -8.5h187c14 0 28.5 1 43.5 3s28.167 7.66699 39.5 17c13.333 10.667 21.333 23.5 24 38.5s4 27.167 4 36.5z
M338.999 599.999h108v108h-108v-108zM230.999 599.999v108h-108v-108h108z" />
    <glyph glyph-name="yacute" unicode="&#xfd;" horiz-adv-x="542" 
d="M566 528h-119l-180 -405l-170 407h-121l236 -528l-81 -173h119zM337 767l-161 -133l59 -74l162 132z" />
    <glyph glyph-name="thorn" unicode="&#xfe;" horiz-adv-x="598" 
d="M60 -170h116.998v170h176c26 -0 51.667 2.83301 77 8.5s49 20.5 71 44.5c13.333 14 23.833 30 31.5 48s13.334 36.667 17.001 56s6 39 7 59s1.5 39.333 1.5 58c0 18 -0.5 36.333 -1.5 55s-3.16699 37 -6.5 55s-8.66602 35.167 -15.999 51.5s-17 30.833 -29 43.5
c-12 12 -24.667 21.5 -38 28.5s-27 12.167 -41 15.5s-28.333 5.33301 -43 6s-29 1 -43 1h-163v170h-117v-870zM176.998 90l-0.00195312 350h139c15.333 0 32.5 -2.5 51.5 -7.5s35.167 -18.167 48.5 -39.5c8.66699 -14 14.334 -32.833 17.001 -56.5s4 -45.834 4 -66.501
c0 -35.333 -2.83301 -62.833 -8.5 -82.5s-11.167 -34.167 -16.5 -43.5c-7.33301 -12.667 -15.166 -22.667 -23.499 -30s-17 -12.666 -26 -15.999s-18.5 -5.5 -28.5 -6.5s-20 -1.5 -30 -1.5h-127z" />
    <glyph glyph-name="ydieresis" unicode="&#xff;" horiz-adv-x="542" 
d="M566 528h-119l-180 -405l-170 407h-121l236 -528l-81 -173h119zM325 600h108v108h-108v-108zM217 600v108h-108v-108h108z" />
    <glyph glyph-name="Amacron" unicode="&#x100;" horiz-adv-x="698" 
d="M-30 0h138.999l71 177h337l72 -177h139l-264 629c-12.667 29.333 -27.5 49.833 -44.5 61.5s-40.5 17.5 -70.5 17.5c-31.333 0 -55.166 -5.83301 -71.499 -17.5s-30.833 -32.167 -43.5 -61.5zM328.999 556c2 5.33301 4.66699 11.5 8 18.5s7.33301 10.5 12 10.5
s8.66699 -3.5 12 -10.5s6 -13.167 8 -18.5l114 -285h-269zM518.999 750v84h-340v-84h340z" />
    <glyph glyph-name="amacron" unicode="&#x101;" horiz-adv-x="555" 
d="M65 530l0.000976562 -89.999h261c9.33301 0 19.166 -1.33301 29.499 -4s19.5 -9 27.5 -19c6.66699 -8 10.834 -16.333 12.501 -25s2.5 -17 2.5 -25v-37h-230c-14 0 -29.5 -1.5 -46.5 -4.5s-33.833 -11.833 -50.5 -26.5c-20 -17.333 -32.5 -37.333 -37.5 -60
s-7.5 -45.667 -7.5 -69c0 -10 0.333008 -21.333 1 -34s2.5 -25.667 5.5 -39s7.66699 -26.166 14 -38.499s14.833 -23.166 25.5 -32.499c15.333 -13.333 31.5 -21 48.5 -23s32.833 -3 47.5 -3h253c12.667 0 25.667 1.16699 39 3.5s24.666 8.16602 33.999 17.499
s15.166 20.666 17.499 33.999s3.5 24.666 3.5 33.999v275c0 30 -3.66699 55.5 -11 76.5s-16.666 37.167 -27.999 48.5c-12 12.667 -27.667 22.667 -47 30s-40.333 11 -63 11h-301zM398.001 240.001v-122.002c0 -4 -0.333008 -7.83301 -1 -11.5s-3 -7.16699 -7 -10.5
s-8.5 -5.16602 -13.5 -5.49902s-9.16699 -0.5 -12.5 -0.5h-163c-7.33301 0 -14.5 1.66699 -21.5 5s-12.5 7 -16.5 11c-7.33301 7.33301 -11.833 17 -13.5 29s-2.5 22 -2.5 30c0 19.333 1.66699 33 5 41s6 13.333 8 16c6.66699 8.66699 14.5 13.834 23.5 15.501
s15.5 2.5 19.5 2.5h195zM447.001 599.999v84h-340v-84h340z" />
    <glyph glyph-name="Abreve" unicode="&#x102;" horiz-adv-x="698" 
d="M-30 0h138.999l71 177h337l72 -177h139l-264 629c-12.667 29.333 -27.5 49.833 -44.5 61.5s-40.5 17.5 -70.5 17.5c-31.333 0 -55.166 -5.83301 -71.499 -17.5s-30.833 -32.167 -43.5 -61.5zM328.999 556c2 5.33301 4.66699 11.5 8 18.5s7.33301 10.5 12 10.5
s8.66699 -3.5 12 -10.5s6 -13.167 8 -18.5l114 -285h-269zM347.999 814c-13.333 0 -25.333 1.49902 -36 4.49902s-21.334 9.5 -32.001 19.5c-7.33301 7.33301 -13 14.833 -17 22.5s-6.66699 14.5 -8 20.5h-91c4.66699 -18.667 12 -37.167 22 -55.5s21.667 -33.5 35 -45.5
c19.333 -17.333 40.5 -28.166 63.5 -32.499s44.167 -6.5 63.5 -6.5c18.667 0 39.667 2.16699 63 6.5s45 15.166 65 32.499c13.333 11.333 25 26.333 35 45s17.333 37.334 22 56.001h-91c-1.33301 -6 -4 -12.833 -8 -20.5s-9.66699 -15.167 -17 -22.5
c-10 -10 -20.667 -16.5 -32 -19.5s-23.666 -4.5 -36.999 -4.5z" />
    <glyph glyph-name="abreve" unicode="&#x103;" horiz-adv-x="555" 
d="M65 530l0.000976562 -89.999h261c9.33301 0 19.166 -1.33301 29.499 -4s19.5 -9 27.5 -19c6.66699 -8 10.834 -16.333 12.501 -25s2.5 -17 2.5 -25v-37h-230c-14 0 -29.5 -1.5 -46.5 -4.5s-33.833 -11.833 -50.5 -26.5c-20 -17.333 -32.5 -37.333 -37.5 -60
s-7.5 -45.667 -7.5 -69c0 -10 0.333008 -21.333 1 -34s2.5 -25.667 5.5 -39s7.66699 -26.166 14 -38.499s14.833 -23.166 25.5 -32.499c15.333 -13.333 31.5 -21 48.5 -23s32.833 -3 47.5 -3h253c12.667 0 25.667 1.16699 39 3.5s24.666 8.16602 33.999 17.499
s15.166 20.666 17.499 33.999s3.5 24.666 3.5 33.999v275c0 30 -3.66699 55.5 -11 76.5s-16.666 37.167 -27.999 48.5c-12 12.667 -27.667 22.667 -47 30s-40.333 11 -63 11h-301zM398.001 240.001v-122.002c0 -4 -0.333008 -7.83301 -1 -11.5s-3 -7.16699 -7 -10.5
s-8.5 -5.16602 -13.5 -5.49902s-9.16699 -0.5 -12.5 -0.5h-163c-7.33301 0 -14.5 1.66699 -21.5 5s-12.5 7 -16.5 11c-7.33301 7.33301 -11.833 17 -13.5 29s-2.5 22 -2.5 30c0 19.333 1.66699 33 5 41s6 13.333 8 16c6.66699 8.66699 14.5 13.834 23.5 15.501
s15.5 2.5 19.5 2.5h195zM278.001 636.999c-13.333 0 -25.333 1.49902 -36 4.49902s-21.334 9.5 -32.001 19.5c-7.33301 7.33301 -13 14.833 -17 22.5s-6.66699 14.5 -8 20.5h-91c4.66699 -18.667 12 -37.167 22 -55.5s21.667 -33.5 35 -45.5
c19.333 -17.333 40.5 -28.166 63.5 -32.499s44.167 -6.5 63.5 -6.5c18.667 0 39.667 2.16699 63 6.5s45 15.166 65 32.499c13.333 11.333 25 26.333 35 45s17.333 37.334 22 56.001h-91c-1.33301 -6 -4 -12.833 -8 -20.5s-9.66699 -15.167 -17 -22.5
c-10 -10 -20.667 -16.5 -32 -19.5s-23.666 -4.5 -36.999 -4.5z" />
    <glyph glyph-name="Aogonek" unicode="&#x104;" horiz-adv-x="707" 
d="M-30 0h138.999l71 177h337l72 -177h59l-46 -88c-6.66699 -12 -10 -24.333 -10 -37c0 -8 1.33301 -15.833 4 -23.5s7 -14.167 13 -19.5s12.667 -8.66602 20 -9.99902s14.333 -2 21 -2h87v60h-42c-3.33301 0 -8 0.5 -14 1.5s-9 4.83301 -9 11.5
c0 1.33301 0.5 3.16602 1.5 5.49902s3.16699 6.83301 6.5 13.5l48 88l-264 629c-12.667 29.333 -27.5 49.833 -44.5 61.5s-40.5 17.5 -70.5 17.5c-31.333 0 -55.166 -5.83301 -71.499 -17.5s-30.833 -32.167 -43.5 -61.5zM328.999 556c2 5.33301 4.66699 11.5 8 18.5
s7.33301 10.5 12 10.5s8.66699 -3.5 12 -10.5s6 -13.167 8 -18.5l114 -285h-269z" />
    <glyph glyph-name="aogonek" unicode="&#x105;" horiz-adv-x="555" 
d="M65 530l0.000976562 -89.999h261c9.33301 0 19.166 -1.33301 29.499 -4s19.5 -9 27.5 -19c6.66699 -8 10.834 -16.333 12.501 -25s2.5 -17 2.5 -25v-37h-230c-14 0 -29.5 -1.5 -46.5 -4.5s-33.833 -11.833 -50.5 -26.5c-20 -17.333 -32.5 -37.333 -37.5 -60
s-7.5 -45.667 -7.5 -69c0 -10 0.333008 -21.333 1 -34s2.5 -25.667 5.5 -39s7.66699 -26.166 14 -38.499s14.833 -23.166 25.5 -32.499c15.333 -13.333 31.5 -21 48.5 -23s32.833 -3 47.5 -3h157l-46 -88c-6.66699 -12 -10 -24.333 -10 -37c0 -8 1.33301 -15.833 4 -23.5
s7 -14.167 13 -19.5s12.667 -8.66602 20 -9.99902s14.333 -2 21 -2h87v60h-42c-3.33301 0 -8 0.5 -14 1.5s-9 4.83301 -9 11.5c0 1.33301 0.5 3.16602 1.5 5.49902s3.16699 6.83301 6.5 13.5l48 88h16c12.667 0 25.667 1.16699 39 3.5s24.666 8.16602 33.999 17.499
s15.166 20.666 17.499 33.999s3.5 24.666 3.5 33.999v275c0 30 -3.66699 55.5 -11 76.5s-16.666 37.167 -27.999 48.5c-12 12.667 -27.667 22.667 -47 30s-40.333 11 -63 11h-301zM398.001 240.001v-122.002c0 -4 -0.333008 -7.83301 -1 -11.5s-3 -7.16699 -7 -10.5
s-8.5 -5.16602 -13.5 -5.49902s-9.16699 -0.5 -12.5 -0.5h-163c-7.33301 0 -14.5 1.66699 -21.5 5s-12.5 7 -16.5 11c-7.33301 7.33301 -11.833 17 -13.5 29s-2.5 22 -2.5 30c0 19.333 1.66699 33 5 41s6 13.333 8 16c6.66699 8.66699 14.5 13.834 23.5 15.501
s15.5 2.5 19.5 2.5h195z" />
    <glyph glyph-name="Cacute" unicode="&#x106;" 
d="M629 0l-0.00195312 104.999h-237c-41.333 0 -77.666 4.33301 -108.999 13s-56 26.667 -74 54c-3.33301 5.33301 -7 12.333 -11 21s-7.66699 19.667 -11 33s-6 29.5 -8 48.5s-3 41.5 -3 67.5c0 52 3.83301 92.5 11.5 121.5s16.834 51.167 27.501 66.5
c10 14.667 21.5 26.334 34.5 35.001s27.333 15.334 43 20.001s32.5 7.5 50.5 8.5s36.667 1.5 56 1.5h219v105h-281c-12.667 0 -28.334 -0.666992 -47.001 -2s-38.667 -5 -60 -11s-42.666 -14.833 -63.999 -26.5s-40.666 -27.834 -57.999 -48.501
c-14.667 -17.333 -26.5 -36.5 -35.5 -57.5s-15.833 -43.333 -20.5 -67s-7.83398 -48 -9.50098 -73s-2.5 -49.833 -2.5 -74.5c0 -19.333 0.666992 -40.166 2 -62.499s4.33301 -44.833 9 -67.5s11.667 -45 21 -67s22.333 -42.333 39 -61c16 -18 33.5 -32.5 52.5 -43.5
s38.333 -19.333 58 -25s39.167 -9.33398 58.5 -11.001s37.333 -2.5 54 -2.5h295zM416.998 949.999l-161 -133l59 -74l162 132z" />
    <glyph glyph-name="cacute" unicode="&#x107;" horiz-adv-x="513" 
d="M487 0v89.998h-190c-12 0 -24.5 0.5 -37.5 1.5s-25.5 3.5 -37.5 7.5s-23 9.66699 -33 17s-18.333 17.333 -25 30c-3.33301 6.66699 -6.16602 14.834 -8.49902 24.501s-4.16602 19.5 -5.49902 29.5s-2.16602 19.833 -2.49902 29.5s-0.5 18.5 -0.5 26.5
c0 4 0.166992 10.167 0.5 18.5s0.666016 17.333 0.999023 27s1.16602 19.334 2.49902 29.001s3 18.167 5 25.5c6.66699 22.667 20.167 42.334 40.5 59.001s50.166 25 89.499 25h189v90h-227c-24 0 -44.833 -2 -62.5 -6s-33 -8.83301 -46 -14.5
s-23.833 -11.834 -32.5 -18.501s-15.667 -12.667 -21 -18c-14.667 -15.333 -26 -32.166 -34 -50.499s-14 -37 -18 -56s-6.33301 -37.833 -7 -56.5s-1 -36 -1 -52c0 -38 2.5 -73.167 7.5 -105.5s18.5 -61.5 40.5 -87.5c12 -14 25.167 -25.333 39.5 -34
s28.5 -15.334 42.5 -20.001s27.667 -7.66699 41 -9s25 -2 35 -2h255zM328 769.998l-161 -133l59 -74l162 132z" />
    <glyph glyph-name="Ccircumflex" unicode="&#x108;" 
d="M629 0l-0.00195312 104.999h-237c-41.333 0 -77.666 4.33301 -108.999 13s-56 26.667 -74 54c-3.33301 5.33301 -7 12.333 -11 21s-7.66699 19.667 -11 33s-6 29.5 -8 48.5s-3 41.5 -3 67.5c0 52 3.83301 92.5 11.5 121.5s16.834 51.167 27.501 66.5
c10 14.667 21.5 26.334 34.5 35.001s27.333 15.334 43 20.001s32.5 7.5 50.5 8.5s36.667 1.5 56 1.5h219v105h-281c-12.667 0 -28.334 -0.666992 -47.001 -2s-38.667 -5 -60 -11s-42.666 -14.833 -63.999 -26.5s-40.666 -27.834 -57.999 -48.501
c-14.667 -17.333 -26.5 -36.5 -35.5 -57.5s-15.833 -43.333 -20.5 -67s-7.83398 -48 -9.50098 -73s-2.5 -49.833 -2.5 -74.5c0 -19.333 0.666992 -40.166 2 -62.499s4.33301 -44.833 9 -67.5s11.667 -45 21 -67s22.333 -42.333 39 -61c16 -18 33.5 -32.5 52.5 -43.5
s38.333 -19.333 58 -25s39.167 -9.33398 58.5 -11.001s37.333 -2.5 54 -2.5h295zM491.998 740.999l46 62l-141 113c-7.33301 5.33301 -14.833 9.66602 -22.5 12.999s-16.167 5 -25.5 5s-17.833 -1.66699 -25.5 -5s-15.167 -7.66602 -22.5 -12.999l-140 -113l46 -62l117 97
c4.66699 3.33301 8.83398 5.83301 12.501 7.5s8.16699 2.5 13.5 2.5c6.66699 0 11.667 -0.833008 15 -2.5s6.66602 -4.16699 9.99902 -7.5z" />
    <glyph glyph-name="ccircumflex" unicode="&#x109;" horiz-adv-x="513" 
d="M487 0v89.998h-190c-12 0 -24.5 0.5 -37.5 1.5s-25.5 3.5 -37.5 7.5s-23 9.66699 -33 17s-18.333 17.333 -25 30c-3.33301 6.66699 -6.16602 14.834 -8.49902 24.501s-4.16602 19.5 -5.49902 29.5s-2.16602 19.833 -2.49902 29.5s-0.5 18.5 -0.5 26.5
c0 4 0.166992 10.167 0.5 18.5s0.666016 17.333 0.999023 27s1.16602 19.334 2.49902 29.001s3 18.167 5 25.5c6.66699 22.667 20.167 42.334 40.5 59.001s50.166 25 89.499 25h189v90h-227c-24 0 -44.833 -2 -62.5 -6s-33 -8.83301 -46 -14.5
s-23.833 -11.834 -32.5 -18.501s-15.667 -12.667 -21 -18c-14.667 -15.333 -26 -32.166 -34 -50.499s-14 -37 -18 -56s-6.33301 -37.833 -7 -56.5s-1 -36 -1 -52c0 -38 2.5 -73.167 7.5 -105.5s18.5 -61.5 40.5 -87.5c12 -14 25.167 -25.333 39.5 -34
s28.5 -15.334 42.5 -20.001s27.667 -7.66699 41 -9s25 -2 35 -2h255zM409 560.998l46 62l-141 113c-7.33301 5.33301 -14.833 9.66602 -22.5 12.999s-16.167 5 -25.5 5s-17.833 -1.66699 -25.5 -5s-15.167 -7.66602 -22.5 -12.999l-140 -113l46 -62l117 97
c4.66699 3.33301 8.83398 5.83301 12.501 7.5s8.16699 2.5 13.5 2.5c6.66699 0 11.667 -0.833008 15 -2.5s6.66602 -4.16699 9.99902 -7.5z" />
    <glyph glyph-name="Ccaron" unicode="&#x10c;" 
d="M629 0l-0.00195312 104.999h-237c-41.333 0 -77.666 4.33301 -108.999 13s-56 26.667 -74 54c-3.33301 5.33301 -7 12.333 -11 21s-7.66699 19.667 -11 33s-6 29.5 -8 48.5s-3 41.5 -3 67.5c0 52 3.83301 92.5 11.5 121.5s16.834 51.167 27.501 66.5
c10 14.667 21.5 26.334 34.5 35.001s27.333 15.334 43 20.001s32.5 7.5 50.5 8.5s36.667 1.5 56 1.5h219v105h-281c-12.667 0 -28.334 -0.666992 -47.001 -2s-38.667 -5 -60 -11s-42.666 -14.833 -63.999 -26.5s-40.666 -27.834 -57.999 -48.501
c-14.667 -17.333 -26.5 -36.5 -35.5 -57.5s-15.833 -43.333 -20.5 -67s-7.83398 -48 -9.50098 -73s-2.5 -49.833 -2.5 -74.5c0 -19.333 0.666992 -40.166 2 -62.499s4.33301 -44.833 9 -67.5s11.667 -45 21 -67s22.333 -42.333 39 -61c16 -18 33.5 -32.5 52.5 -43.5
s38.333 -19.333 58 -25s39.167 -9.33398 58.5 -11.001s37.333 -2.5 54 -2.5h295zM515.998 933.999l-117 -95.002c-4 -3.33301 -7.66699 -6.16602 -11 -8.49902s-8 -3.5 -14 -3.5s-11 1.33301 -15 4s-7.66699 5.33398 -11 8.00098l-117 95l-46 -62l140 -113
c7.33301 -5.33301 14.833 -9.66602 22.5 -12.999s16.167 -5 25.5 -5s17.833 1.66699 25.5 5s15.167 7.66602 22.5 12.999l141 113z" />
    <glyph glyph-name="ccaron" unicode="&#x10d;" horiz-adv-x="513" 
d="M487 0v89.998h-190c-12 0 -24.5 0.5 -37.5 1.5s-25.5 3.5 -37.5 7.5s-23 9.66699 -33 17s-18.333 17.333 -25 30c-3.33301 6.66699 -6.16602 14.834 -8.49902 24.501s-4.16602 19.5 -5.49902 29.5s-2.16602 19.833 -2.49902 29.5s-0.5 18.5 -0.5 26.5
c0 4 0.166992 10.167 0.5 18.5s0.666016 17.333 0.999023 27s1.16602 19.334 2.49902 29.001s3 18.167 5 25.5c6.66699 22.667 20.167 42.334 40.5 59.001s50.166 25 89.499 25h189v90h-227c-24 0 -44.833 -2 -62.5 -6s-33 -8.83301 -46 -14.5
s-23.833 -11.834 -32.5 -18.501s-15.667 -12.667 -21 -18c-14.667 -15.333 -26 -32.166 -34 -50.499s-14 -37 -18 -56s-6.33301 -37.833 -7 -56.5s-1 -36 -1 -52c0 -38 2.5 -73.167 7.5 -105.5s18.5 -61.5 40.5 -87.5c12 -14 25.167 -25.333 39.5 -34
s28.5 -15.334 42.5 -20.001s27.667 -7.66699 41 -9s25 -2 35 -2h255zM402 758.998l-117 -95.002c-4 -3.33301 -7.66699 -6.16602 -11 -8.49902s-8 -3.5 -14 -3.5s-11 1.33301 -15 4s-7.66699 5.33398 -11 8.00098l-117 95l-46 -62l140 -113
c7.33301 -5.33301 14.833 -9.66602 22.5 -12.999s16.167 -5 25.5 -5s17.833 1.66699 25.5 5s15.167 7.66602 22.5 12.999l141 113z" />
    <glyph glyph-name="Dcaron" unicode="&#x10e;" horiz-adv-x="749" 
d="M451 0c27.333 0 51.667 2.66309 73 7.99609s40 12.333 56 21s29.333 18 40 28s19.667 19.667 27 29c14 18.667 25.167 39.834 33.5 63.501s14.666 47.834 18.999 72.501s7 48.667 8 72s1.5 44.666 1.5 63.999c0 20.667 -0.5 42.334 -1.5 65.001
s-3.83301 45.334 -8.5 68.001s-11.834 44.667 -21.501 66s-22.834 41.333 -39.501 60c-21.333 23.333 -48.666 43 -81.999 59s-74.333 24 -123 24h-274c-21.333 0 -37.833 -3.66699 -49.5 -11s-20.167 -13.666 -25.5 -18.999c-11.333 -13.333 -18.166 -27 -20.499 -41
s-3.5 -27.667 -3.5 -41v-499c0 -19.333 3.16699 -34.5 9.5 -45.5s12.833 -19.167 19.5 -24.5c2.66699 -2 9.83398 -5.66699 21.501 -11s30.5 -8 56.5 -8h284zM192.001 552.996c0 7.33301 1.33203 14.1699 3.99902 20.5029s6 11.166 10 14.499
c4.66699 3.33301 10 5.33301 16 6s11 1 15 1h137c12 0 24.667 -0.666992 38 -2s26.666 -3.83301 39.999 -7.5s26.166 -8.83398 38.499 -15.501s23.5 -15.334 33.5 -26.001c10.667 -11.333 19.334 -24.166 26.001 -38.499s11.667 -29.166 15 -44.499s5.5 -31 6.5 -47
s1.5 -31.333 1.5 -46c0 -59.333 -3.66699 -103.833 -11 -133.5s-15.333 -51.167 -24 -64.5c-15.333 -24.667 -35.166 -41.667 -59.499 -51s-54.833 -14 -91.5 -14h-152c-6 0 -12 0.333008 -18 1s-11.333 3.66699 -16 9c-5.33301 5.33301 -8.16602 11.166 -8.49902 17.499
s-0.5 13.166 -0.5 20.499v400zM487 940l-117 -95.002c-4 -3.33301 -7.66699 -6.16602 -11 -8.49902s-8 -3.5 -14 -3.5s-11 1.33301 -15 4s-7.66699 5.33398 -11 8.00098l-117 95l-46 -62l140 -113c7.33301 -5.33301 14.833 -9.66602 22.5 -12.999s16.167 -5 25.5 -5
s17.833 1.66699 25.5 5s15.167 7.66602 22.5 12.999l141 113z" />
    <glyph glyph-name="dcaron" unicode="&#x10f;" horiz-adv-x="559" 
d="M519 93l-0.000976562 606.998h-117v-170h-157c-10.667 0 -23.5 -0.666992 -38.5 -2s-30.667 -4.5 -47 -9.5s-32.666 -12.833 -48.999 -23.5s-30.833 -25.334 -43.5 -44.001c-18 -26 -29.333 -55.167 -34 -87.5s-7 -62.5 -7 -90.5c0 -44 2.66699 -79.167 8 -105.5
s11.333 -47.166 18 -62.499c10 -23.333 21.833 -41.833 35.5 -55.5s28.167 -24.167 43.5 -31.5s30.833 -12.166 46.5 -14.499s30.167 -3.5 43.5 -3.5h209c12 0 24.833 1.33301 38.5 4s25.167 10.334 34.5 23.001c5.33301 7.33301 9.33301 17.333 12 30s4 24.667 4 36z
M401.999 439.998l0.000976562 -305.001c0 -4 -0.333008 -10.167 -1 -18.5s-3.33398 -14.5 -8.00098 -18.5c-4 -4 -9.5 -6.33301 -16.5 -7s-11.833 -1 -14.5 -1h-94c-8.66699 0 -18 0.666992 -28 2s-19.833 4 -29.5 8s-18.834 10 -27.501 18s-16 18.667 -22 32
c-2 4.66699 -4.83301 15.334 -8.5 32.001s-5.5 45.667 -5.5 87c0 36 2.33301 63.333 7 82s10 32.667 16 42c12.667 20.667 28.334 33.667 47.001 39s35.667 8 51 8h134zM646 449.997l92 218l-103 41l-85 -222z" />
    <glyph glyph-name="Dcroat" unicode="&#x110;" horiz-adv-x="789" 
d="M470 0c28 0 52.667 2.66602 74 7.99902s40 12.333 56 21s29.333 18 40 28s19.667 19.667 27 29c19.333 25.333 34.5 59.666 45.5 102.999s16.5 99.666 16.5 168.999c0 20 -0.666992 41.333 -2 64s-4.33301 45.334 -9 68.001s-11.834 45 -21.501 67s-22.5 42 -38.5 60
c-8 8.66699 -18 17.834 -30 27.501s-26.5 18.667 -43.5 27s-36.333 15.166 -58 20.499s-46.167 8 -73.5 8h-274c-14.667 0 -28 -2.16699 -40 -6.5s-23.333 -12.166 -34 -23.499c-12.667 -13.333 -20 -26.5 -22 -39.5s-3 -27.167 -3 -42.5v-194h-80v-93h80v-212
c0 -13.333 1.5 -25.5 4.5 -36.5s11.167 -21.5 24.5 -31.5c12 -9.33301 24.833 -15.166 38.5 -17.499s26.834 -3.5 39.501 -3.5h283zM212 555.999c0 7.33301 1.3291 14.1699 3.99609 20.5029s6 11.166 10 14.499c4.66699 3.33301 10 5.33301 16 6s11 1 15 1h137
c36.667 0 66.834 -5.16699 90.501 -15.5s42.834 -23.5 57.501 -39.5c12.667 -14 22.334 -28.667 29.001 -44s11.667 -31 15 -47s5.33301 -31.667 6 -47s1 -29.666 1 -42.999c0 -50 -3 -89.5 -9 -118.5s-14.667 -52.167 -26 -69.5c-9.33301 -15.333 -20.333 -27.5 -33 -36.5
s-25.667 -15.833 -39 -20.5s-26.833 -7.83398 -40.5 -9.50098s-26.5 -2.5 -38.5 -2.5h-152c-5.33301 0 -11 0.333008 -17 1s-11.667 3.66699 -17 9s-8.16602 11.166 -8.49902 17.499s-0.5 13.166 -0.5 20.499v148h146v93h-146v162z" />
    <glyph glyph-name="dcroat" unicode="&#x111;" horiz-adv-x="595" 
d="M532 92l0.00292969 501.001h73v61h-73v46h-117v-46h-152v-61h152v-63h-153c-12 0 -26 -0.5 -42 -1.5s-32.5 -4 -49.5 -9s-33.5 -12.833 -49.5 -23.5s-30.333 -25.334 -43 -44.001c-8.66699 -12.667 -15.5 -26.167 -20.5 -40.5s-8.83301 -29 -11.5 -44
s-4.33398 -30.333 -5.00098 -46s-1 -31.167 -1 -46.5c0 -31.333 1.33301 -61 4 -89s8.66699 -53.667 18 -77c9.33301 -24 21.166 -43.167 35.499 -57.5s29.5 -25.333 45.5 -33s32.333 -12.667 49 -15s32 -3.5 46 -3.5h205c11.333 -0 23.666 1.33301 36.999 4
s24.666 10 33.999 22c8.66699 10.667 13.834 22.667 15.501 36s2.5 23.333 2.5 30zM415.003 443.001l-0.00292969 -295.999c0 -19.333 -1.16699 -32 -3.5 -38s-4.16602 -9.66699 -5.49902 -11s-4.66602 -3 -9.99902 -5s-13.666 -3 -24.999 -3h-87
c-8 0 -17.167 0.5 -27.5 1.5s-20.833 3.83301 -31.5 8.5s-20.667 11.334 -30 20.001s-17 21 -23 37c-2 5.33301 -4.5 16.166 -7.5 32.499s-4.5 43.5 -4.5 81.5c0 31.333 1.83301 56.833 5.5 76.5s9.16699 35.5 16.5 47.5c10.667 17.333 24.667 29.666 42 36.999
s37.333 11 60 11h131z" />
    <glyph glyph-name="Emacron" unicode="&#x112;" horiz-adv-x="651" 
d="M621 0l0.00292969 105.001h-374c-10.667 0 -19.834 0.5 -27.501 1.5s-13.5 3.5 -17.5 7.5c-6.66699 5.33301 -10 14.333 -10 27v164h415v105h-415v141c0 5.33301 0.5 11 1.5 17s4.16699 11.667 9.5 17c5.33301 4.66699 11.166 7.5 17.499 8.5s12.5 1.5 18.5 1.5h378v105
h-449c-13.333 0 -27.833 -1.33301 -43.5 -4s-29.167 -10.334 -40.5 -23.001c-7.33301 -8.66699 -13.166 -19.5 -17.499 -32.5s-6.5 -26.5 -6.5 -40.5v-496c0 -13.333 1.33301 -27.5 4 -42.5s10 -28.167 22 -39.5c11.333 -11.333 23.666 -17.833 36.999 -19.5
s27.666 -2.5 42.999 -2.5h455zM505.003 753.001v84h-340v-84h340z" />
    <glyph glyph-name="emacron" unicode="&#x113;" horiz-adv-x="563" 
d="M520 0v90.0049h-259c-10.667 0 -21.5 0.666992 -32.5 2s-21.5 4.16602 -31.5 8.49902s-18.667 10.666 -26 18.999s-13 19.5 -17 33.5c-2 8 -3.66699 19.333 -5 34s-2 27.667 -2 39h308c10.667 0 20.834 1.33301 30.501 4s18.5 8 26.5 16
c11.333 11.333 18.333 24.166 21 38.499s4 28.166 4 41.499c0 16.667 -1 33.167 -3 49.5s-5.83301 32 -11.5 47s-13.334 28.833 -23.001 41.5s-22.167 24 -37.5 34c-24.667 15.333 -52.167 24.833 -82.5 28.5s-61.166 5.5 -92.499 5.5
c-12.667 0 -27.334 -0.333008 -44.001 -1s-34 -2.5 -52 -5.5s-35.833 -7.83301 -53.5 -14.5s-33.834 -16.334 -48.501 -29.001s-26.167 -26.667 -34.5 -42s-14.666 -32.166 -18.999 -50.499s-7 -38.333 -8 -60s-1.5 -44.834 -1.5 -69.501c0 -35.333 2 -70 6 -104
s14.667 -63.667 32 -89c10.667 -15.333 22.667 -27.5 36 -36.5s27 -15.833 41 -20.5s28.333 -7.5 43 -8.5s28.667 -1.5 42 -1.5h294zM147 316.005c0.666992 17.333 1.83105 33.499 3.49805 48.499s8.5 29.167 20.5 42.5c8 8.66699 16.833 15.5 26.5 20.5s19.5 8.5 29.5 10.5
s19.667 3.16699 29 3.5s18 0.5 26 0.5c16.667 0 33.834 -1.16699 51.501 -3.5s33.834 -9.16602 48.501 -20.499c8.66699 -6.66699 16.5 -16 23.5 -28s10.5 -26.333 10.5 -43c0 -7.33301 -1.5 -14.333 -4.5 -21s-10.167 -10 -21.5 -10h-243zM450.997 600.004v84h-340v-84h340
z" />
    <glyph glyph-name="Edotaccent" unicode="&#x116;" horiz-adv-x="651" 
d="M621 0l0.00292969 105.001h-374c-10.667 0 -19.834 0.5 -27.501 1.5s-13.5 3.5 -17.5 7.5c-6.66699 5.33301 -10 14.333 -10 27v164h415v105h-415v141c0 5.33301 0.5 11 1.5 17s4.16699 11.667 9.5 17c5.33301 4.66699 11.166 7.5 17.499 8.5s12.5 1.5 18.5 1.5h378v105
h-449c-13.333 0 -27.833 -1.33301 -43.5 -4s-29.167 -10.334 -40.5 -23.001c-7.33301 -8.66699 -13.166 -19.5 -17.499 -32.5s-6.5 -26.5 -6.5 -40.5v-496c0 -13.333 1.33301 -27.5 4 -42.5s10 -28.167 22 -39.5c11.333 -11.333 23.666 -17.833 36.999 -19.5
s27.666 -2.5 42.999 -2.5h455zM404.003 760.001v116h-132v-116h132z" />
    <glyph glyph-name="edotaccent" unicode="&#x117;" horiz-adv-x="563" 
d="M520 0v90.0049h-259c-10.667 0 -21.5 0.666992 -32.5 2s-21.5 4.16602 -31.5 8.49902s-18.667 10.666 -26 18.999s-13 19.5 -17 33.5c-2 8 -3.66699 19.333 -5 34s-2 27.667 -2 39h308c10.667 0 20.834 1.33301 30.501 4s18.5 8 26.5 16
c11.333 11.333 18.333 24.166 21 38.499s4 28.166 4 41.499c0 16.667 -1 33.167 -3 49.5s-5.83301 32 -11.5 47s-13.334 28.833 -23.001 41.5s-22.167 24 -37.5 34c-24.667 15.333 -52.167 24.833 -82.5 28.5s-61.166 5.5 -92.499 5.5
c-12.667 0 -27.334 -0.333008 -44.001 -1s-34 -2.5 -52 -5.5s-35.833 -7.83301 -53.5 -14.5s-33.834 -16.334 -48.501 -29.001s-26.167 -26.667 -34.5 -42s-14.666 -32.166 -18.999 -50.499s-7 -38.333 -8 -60s-1.5 -44.834 -1.5 -69.501c0 -35.333 2 -70 6 -104
s14.667 -63.667 32 -89c10.667 -15.333 22.667 -27.5 36 -36.5s27 -15.833 41 -20.5s28.333 -7.5 43 -8.5s28.667 -1.5 42 -1.5h294zM147 316.005c0.666992 17.333 1.83105 33.499 3.49805 48.499s8.5 29.167 20.5 42.5c8 8.66699 16.833 15.5 26.5 20.5s19.5 8.5 29.5 10.5
s19.667 3.16699 29 3.5s18 0.5 26 0.5c16.667 0 33.834 -1.16699 51.501 -3.5s33.834 -9.16602 48.501 -20.499c8.66699 -6.66699 16.5 -16 23.5 -28s10.5 -26.333 10.5 -43c0 -7.33301 -1.5 -14.333 -4.5 -21s-10.167 -10 -21.5 -10h-243zM221.997 600.004h119v100h-119
v-100z" />
    <glyph glyph-name="Eogonek" unicode="&#x118;" horiz-adv-x="651" 
d="M247 105c-10.667 0 -19.8311 0.500977 -27.498 1.50098s-13.5 3.5 -17.5 7.5c-6.66699 5.33301 -10 14.333 -10 27v164h415v105h-415v141c0 5.33301 0.5 11 1.5 17s4.16699 11.667 9.5 17c5.33301 4.66699 11.166 7.5 17.499 8.5s12.5 1.5 18.5 1.5h378v105h-449
c-13.333 0 -27.833 -1.33301 -43.5 -4s-29.167 -10.334 -40.5 -23.001c-7.33301 -8.66699 -13.166 -19.5 -17.499 -32.5s-6.5 -26.5 -6.5 -40.5v-496c0 -13.333 1.33301 -27.5 4 -42.5s10 -28.167 22 -39.5c11.333 -11.333 23.666 -17.833 36.999 -19.5
s27.666 -2.5 42.999 -2.5h315l-46 -88c-6.66699 -12 -10 -24.333 -10 -37c0 -8 1.33301 -15.833 4 -23.5s7 -14.167 13 -19.5s12.667 -8.66602 20 -9.99902s14.333 -2 21 -2h87v60h-42c-3.33301 0 -8 0.5 -14 1.5s-9 4.83301 -9 11.5c0 1.33301 0.5 3.16602 1.5 5.49902
s3.16699 6.83301 6.5 13.5l48 88h60v105h-374z" />
    <glyph glyph-name="eogonek" unicode="&#x119;" horiz-adv-x="563" 
d="M520 90l-259 0.00488281c-10.667 0 -21.5 0.666992 -32.5 2s-21.5 4.16602 -31.5 8.49902s-18.667 10.666 -26 18.999s-13 19.5 -17 33.5c-2 8 -3.66699 19.333 -5 34s-2 27.667 -2 39h308c10.667 0 20.834 1.33301 30.501 4s18.5 8 26.5 16
c11.333 11.333 18.333 24.166 21 38.499s4 28.166 4 41.499c0 16.667 -1 33.167 -3 49.5s-5.83301 32 -11.5 47s-13.334 28.833 -23.001 41.5s-22.167 24 -37.5 34c-24.667 15.333 -52.167 24.833 -82.5 28.5s-61.166 5.5 -92.499 5.5
c-12.667 0 -27.334 -0.333008 -44.001 -1s-34 -2.5 -52 -5.5s-35.833 -7.83301 -53.5 -14.5s-33.834 -16.334 -48.501 -29.001s-26.167 -26.667 -34.5 -42s-14.666 -32.166 -18.999 -50.499s-7 -38.333 -8 -60s-1.5 -44.834 -1.5 -69.501c0 -35.333 2 -70 6 -104
s14.667 -63.667 32 -89c10.667 -15.333 22.667 -27.5 36 -36.5s27 -15.833 41 -20.5s28.333 -7.5 43 -8.5s28.667 -1.5 42 -1.5h114l-46 -88c-6.66699 -12 -10 -24.333 -10 -37c0 -8 1.33301 -15.833 4 -23.5s7 -14.167 13 -19.5s12.667 -8.66602 20 -9.99902
s14.333 -2 21 -2h87v60h-42c-3.33301 0 -8 0.5 -14 1.5s-9 4.83301 -9 11.5c0 1.33301 0.5 3.16602 1.5 5.49902s3.16699 6.83301 6.5 13.5l48 88h100v90zM147 316.005c0.666992 17.333 1.83105 33.499 3.49805 48.499s8.5 29.167 20.5 42.5
c8 8.66699 16.833 15.5 26.5 20.5s19.5 8.5 29.5 10.5s19.667 3.16699 29 3.5s18 0.5 26 0.5c16.667 0 33.834 -1.16699 51.501 -3.5s33.834 -9.16602 48.501 -20.499c8.66699 -6.66699 16.5 -16 23.5 -28s10.5 -26.333 10.5 -43c0 -7.33301 -1.5 -14.333 -4.5 -21
s-10.167 -10 -21.5 -10h-243z" />
    <glyph glyph-name="Ecaron" unicode="&#x11a;" horiz-adv-x="651" 
d="M621 0l0.00292969 105.001h-374c-10.667 0 -19.834 0.5 -27.501 1.5s-13.5 3.5 -17.5 7.5c-6.66699 5.33301 -10 14.333 -10 27v164h415v105h-415v141c0 5.33301 0.5 11 1.5 17s4.16699 11.667 9.5 17c5.33301 4.66699 11.166 7.5 17.499 8.5s12.5 1.5 18.5 1.5h378v105
h-449c-13.333 0 -27.833 -1.33301 -43.5 -4s-29.167 -10.334 -40.5 -23.001c-7.33301 -8.66699 -13.166 -19.5 -17.499 -32.5s-6.5 -26.5 -6.5 -40.5v-496c0 -13.333 1.33301 -27.5 4 -42.5s10 -28.167 22 -39.5c11.333 -11.333 23.666 -17.833 36.999 -19.5
s27.666 -2.5 42.999 -2.5h455zM481.003 929.001l-117 -95.002c-4 -3.33301 -7.66699 -6.16602 -11 -8.49902s-8 -3.5 -14 -3.5s-11 1.33301 -15 4s-7.66699 5.33398 -11 8.00098l-117 95l-46 -62l140 -113c7.33301 -5.33301 14.833 -9.66602 22.5 -12.999s16.167 -5 25.5 -5
s17.833 1.66699 25.5 5s15.167 7.66602 22.5 12.999l141 113z" />
    <glyph glyph-name="ecaron" unicode="&#x11b;" horiz-adv-x="563" 
d="M520 0v90.0049h-259c-10.667 0 -21.5 0.666992 -32.5 2s-21.5 4.16602 -31.5 8.49902s-18.667 10.666 -26 18.999s-13 19.5 -17 33.5c-2 8 -3.66699 19.333 -5 34s-2 27.667 -2 39h308c10.667 0 20.834 1.33301 30.501 4s18.5 8 26.5 16
c11.333 11.333 18.333 24.166 21 38.499s4 28.166 4 41.499c0 16.667 -1 33.167 -3 49.5s-5.83301 32 -11.5 47s-13.334 28.833 -23.001 41.5s-22.167 24 -37.5 34c-24.667 15.333 -52.167 24.833 -82.5 28.5s-61.166 5.5 -92.499 5.5
c-12.667 0 -27.334 -0.333008 -44.001 -1s-34 -2.5 -52 -5.5s-35.833 -7.83301 -53.5 -14.5s-33.834 -16.334 -48.501 -29.001s-26.167 -26.667 -34.5 -42s-14.666 -32.166 -18.999 -50.499s-7 -38.333 -8 -60s-1.5 -44.834 -1.5 -69.501c0 -35.333 2 -70 6 -104
s14.667 -63.667 32 -89c10.667 -15.333 22.667 -27.5 36 -36.5s27 -15.833 41 -20.5s28.333 -7.5 43 -8.5s28.667 -1.5 42 -1.5h294zM147 316.005c0.666992 17.333 1.83105 33.499 3.49805 48.499s8.5 29.167 20.5 42.5c8 8.66699 16.833 15.5 26.5 20.5s19.5 8.5 29.5 10.5
s19.667 3.16699 29 3.5s18 0.5 26 0.5c16.667 0 33.834 -1.16699 51.501 -3.5s33.834 -9.16602 48.501 -20.499c8.66699 -6.66699 16.5 -16 23.5 -28s10.5 -26.333 10.5 -43c0 -7.33301 -1.5 -14.333 -4.5 -21s-10.167 -10 -21.5 -10h-243zM423.997 759.004l-117 -95.002
c-4 -3.33301 -7.66699 -6.16602 -11 -8.49902s-8 -3.5 -14 -3.5s-11 1.33301 -15 4s-7.66699 5.33398 -11 8.00098l-117 95l-46 -62l140 -113c7.33301 -5.33301 14.833 -9.66602 22.5 -12.999s16.167 -5 25.5 -5s17.833 1.66699 25.5 5s15.167 7.66602 22.5 12.999l141 113z
" />
    <glyph glyph-name="Gcircumflex" unicode="&#x11c;" horiz-adv-x="727" 
d="M687 343l-131.998 0.0078125v-191c0 -5.33301 -0.5 -11.333 -1.5 -18s-4.16699 -12.667 -9.5 -18s-11 -8.5 -17 -9.5s-12 -1.5 -18 -1.5h-171c-28 0 -53.667 4.83301 -77 14.5s-42.333 29.167 -57 58.5c-2.66699 5.33301 -5.66699 12.5 -9 21.5s-6.33301 20.5 -9 34.5
s-5 30.5 -7 49.5s-3 41.167 -3 66.5s1 47.333 3 66s4.33301 34.667 7 48s5.66699 24.5 9 33.5s6.66602 16.167 9.99902 21.5c13.333 24.667 33 43.5 59 56.5s58 19.5 96 19.5h311v105h-348c-68.667 0 -125 -14.333 -169 -43c-26 -16.667 -46.5 -36.834 -61.5 -60.501
s-26.333 -49.334 -34 -77.001s-12.667 -56.334 -15 -86.001s-3.5 -58.834 -3.5 -87.501c0 -24.667 0.833008 -50.334 2.5 -77.001s5.5 -52.834 11.5 -78.501s15.167 -50.167 27.5 -73.5s29.166 -44 50.499 -62c16 -13.333 37.333 -25.833 64 -37.5s59.667 -17.5 99 -17.5
h298c10 0 21.5 1.66699 34.5 5s24.167 8.66602 33.5 15.999c6.66699 5.33301 12.667 13.666 18 24.999s8 26 8 44v253zM523.002 745.008l46 62l-141 113c-7.33301 5.33301 -14.833 9.66602 -22.5 12.999s-16.167 5 -25.5 5s-17.833 -1.66699 -25.5 -5
s-15.167 -7.66602 -22.5 -12.999l-140 -113l46 -62l117 97c4.66699 3.33301 8.83398 5.83301 12.501 7.5s8.16699 2.5 13.5 2.5c6.66699 0 11.667 -0.833008 15 -2.5s6.66602 -4.16699 9.99902 -7.5z" />
    <glyph glyph-name="gcircumflex" unicode="&#x11d;" horiz-adv-x="573" 
d="M415 0c-3.33301 -25.333 -13.667 -45.6631 -31 -60.9961c-14 -11.333 -30.667 -18.166 -50 -20.499s-35.333 -3.5 -48 -3.5h-223v-90h250c9.33301 0 21.5 0.666992 36.5 2s30.833 4.16602 47.5 8.49902s33.334 10.666 50.001 18.999s31 19.833 43 34.5
c17.333 21.333 28.833 46.666 34.5 75.999s8.5 61 8.5 95v372c0 11.333 -1.83301 24.166 -5.5 38.499s-12.167 27.166 -25.5 38.499c-12.667 10 -26.334 16 -41.001 18s-29.667 3 -45 3h-171c-13.333 0 -27 -0.5 -41 -1.5s-28 -3.33301 -42 -7s-27.667 -9.33398 -41 -17.001
s-26.333 -18.5 -39 -32.5c-23.333 -25.333 -38.5 -54.333 -45.5 -87s-10.5 -70 -10.5 -112c0 -94 13.667 -162.333 41 -205c10 -16 21.5 -28.5 34.5 -37.5s26.5 -15.667 40.5 -20s28.167 -7.16602 42.5 -8.49902s28.5 -2 42.5 -2h188zM415.999 90.0029l-139.002 -0.00195312
c-17.333 0 -35 1.33301 -53 4s-33.667 11.667 -47 27c-3.33301 3.33301 -6.66602 8.33301 -9.99902 15s-6.5 15.5 -9.5 26.5s-5.5 24.667 -7.5 41s-3 36.5 -3 60.5c0 6 0.166992 15.167 0.5 27.5s1.5 25.5 3.5 39.5s5.16699 27.833 9.5 41.5s10.5 25.167 18.5 34.5
c9.33301 10.667 22 18.834 38 24.501s33.667 8.5 53 8.5h100c5.33301 0 10.5 -0.5 15.5 -1.5s10.167 -3.16699 15.5 -6.5c6.66699 -4.66699 10.834 -9.66699 12.501 -15s2.5 -11.666 2.5 -18.999v-308zM439.997 560.001l46 62l-141 113
c-7.33301 5.33301 -14.833 9.66602 -22.5 12.999s-16.167 5 -25.5 5s-17.833 -1.66699 -25.5 -5s-15.167 -7.66602 -22.5 -12.999l-140 -113l46 -62l117 97c4.66699 3.33301 8.83398 5.83301 12.501 7.5s8.16699 2.5 13.5 2.5c6.66699 0 11.667 -0.833008 15 -2.5
s6.66602 -4.16699 9.99902 -7.5z" />
    <glyph glyph-name="Gbreve" unicode="&#x11e;" horiz-adv-x="727" 
d="M687 343l-131.998 0.0078125v-191c0 -5.33301 -0.5 -11.333 -1.5 -18s-4.16699 -12.667 -9.5 -18s-11 -8.5 -17 -9.5s-12 -1.5 -18 -1.5h-171c-28 0 -53.667 4.83301 -77 14.5s-42.333 29.167 -57 58.5c-2.66699 5.33301 -5.66699 12.5 -9 21.5s-6.33301 20.5 -9 34.5
s-5 30.5 -7 49.5s-3 41.167 -3 66.5s1 47.333 3 66s4.33301 34.667 7 48s5.66699 24.5 9 33.5s6.66602 16.167 9.99902 21.5c13.333 24.667 33 43.5 59 56.5s58 19.5 96 19.5h311v105h-348c-68.667 0 -125 -14.333 -169 -43c-26 -16.667 -46.5 -36.834 -61.5 -60.501
s-26.333 -49.334 -34 -77.001s-12.667 -56.334 -15 -86.001s-3.5 -58.834 -3.5 -87.501c0 -24.667 0.833008 -50.334 2.5 -77.001s5.5 -52.834 11.5 -78.501s15.167 -50.167 27.5 -73.5s29.166 -44 50.499 -62c16 -13.333 37.333 -25.833 64 -37.5s59.667 -17.5 99 -17.5
h298c10 0 21.5 1.66699 34.5 5s24.167 8.66602 33.5 15.999c6.66699 5.33301 12.667 13.666 18 24.999s8 26 8 44v253zM380.002 815.008c-13.333 0 -25.333 1.49902 -36 4.49902s-21.334 9.5 -32.001 19.5c-7.33301 7.33301 -13 14.833 -17 22.5s-6.66699 14.5 -8 20.5h-91
c4.66699 -18.667 12 -37.167 22 -55.5s21.667 -33.5 35 -45.5c19.333 -17.333 40.5 -28.166 63.5 -32.499s44.167 -6.5 63.5 -6.5c18.667 0 39.667 2.16699 63 6.5s45 15.166 65 32.499c13.333 11.333 25 26.333 35 45s17.333 37.334 22 56.001h-91
c-1.33301 -6 -4 -12.833 -8 -20.5s-9.66699 -15.167 -17 -22.5c-10 -10 -20.667 -16.5 -32 -19.5s-23.666 -4.5 -36.999 -4.5z" />
    <glyph glyph-name="gbreve" unicode="&#x11f;" horiz-adv-x="573" 
d="M415 0c-3.33301 -25.333 -13.667 -45.6631 -31 -60.9961c-14 -11.333 -30.667 -18.166 -50 -20.499s-35.333 -3.5 -48 -3.5h-223v-90h250c9.33301 0 21.5 0.666992 36.5 2s30.833 4.16602 47.5 8.49902s33.334 10.666 50.001 18.999s31 19.833 43 34.5
c17.333 21.333 28.833 46.666 34.5 75.999s8.5 61 8.5 95v372c0 11.333 -1.83301 24.166 -5.5 38.499s-12.167 27.166 -25.5 38.499c-12.667 10 -26.334 16 -41.001 18s-29.667 3 -45 3h-171c-13.333 0 -27 -0.5 -41 -1.5s-28 -3.33301 -42 -7s-27.667 -9.33398 -41 -17.001
s-26.333 -18.5 -39 -32.5c-23.333 -25.333 -38.5 -54.333 -45.5 -87s-10.5 -70 -10.5 -112c0 -94 13.667 -162.333 41 -205c10 -16 21.5 -28.5 34.5 -37.5s26.5 -15.667 40.5 -20s28.167 -7.16602 42.5 -8.49902s28.5 -2 42.5 -2h188zM415.999 90.0029l-139.002 -0.00195312
c-17.333 0 -35 1.33301 -53 4s-33.667 11.667 -47 27c-3.33301 3.33301 -6.66602 8.33301 -9.99902 15s-6.5 15.5 -9.5 26.5s-5.5 24.667 -7.5 41s-3 36.5 -3 60.5c0 6 0.166992 15.167 0.5 27.5s1.5 25.5 3.5 39.5s5.16699 27.833 9.5 41.5s10.5 25.167 18.5 34.5
c9.33301 10.667 22 18.834 38 24.501s33.667 8.5 53 8.5h100c5.33301 0 10.5 -0.5 15.5 -1.5s10.167 -3.16699 15.5 -6.5c6.66699 -4.66699 10.834 -9.66699 12.501 -15s2.5 -11.666 2.5 -18.999v-308zM297.997 632.001c-13.333 0 -25.333 1.49902 -36 4.49902
s-21.334 9.5 -32.001 19.5c-7.33301 7.33301 -13 14.833 -17 22.5s-6.66699 14.5 -8 20.5h-91c4.66699 -18.667 12 -37.167 22 -55.5s21.667 -33.5 35 -45.5c19.333 -17.333 40.5 -28.166 63.5 -32.499s44.167 -6.5 63.5 -6.5c18.667 0 39.667 2.16699 63 6.5
s45 15.166 65 32.499c13.333 11.333 25 26.333 35 45s17.333 37.334 22 56.001h-91c-1.33301 -6 -4 -12.833 -8 -20.5s-9.66699 -15.167 -17 -22.5c-10 -10 -20.667 -16.5 -32 -19.5s-23.666 -4.5 -36.999 -4.5z" />
    <glyph glyph-name="Gcommaaccent" unicode="&#x122;" horiz-adv-x="727" 
d="M687 343l-131.998 0.0078125v-191c0 -5.33301 -0.5 -11.333 -1.5 -18s-4.16699 -12.667 -9.5 -18s-11 -8.5 -17 -9.5s-12 -1.5 -18 -1.5h-171c-28 0 -53.667 4.83301 -77 14.5s-42.333 29.167 -57 58.5c-2.66699 5.33301 -5.66699 12.5 -9 21.5s-6.33301 20.5 -9 34.5
s-5 30.5 -7 49.5s-3 41.167 -3 66.5s1 47.333 3 66s4.33301 34.667 7 48s5.66699 24.5 9 33.5s6.66602 16.167 9.99902 21.5c13.333 24.667 33 43.5 59 56.5s58 19.5 96 19.5h311v105h-348c-68.667 0 -125 -14.333 -169 -43c-26 -16.667 -46.5 -36.834 -61.5 -60.501
s-26.333 -49.334 -34 -77.001s-12.667 -56.334 -15 -86.001s-3.5 -58.834 -3.5 -87.501c0 -24.667 0.833008 -50.334 2.5 -77.001s5.5 -52.834 11.5 -78.501s15.167 -50.167 27.5 -73.5s29.166 -44 50.499 -62c16 -13.333 37.333 -25.833 64 -37.5s59.667 -17.5 99 -17.5
h298c10 0 21.5 1.66699 34.5 5s24.167 8.66602 33.5 15.999c6.66699 5.33301 12.667 13.666 18 24.999s8 26 8 44v253zM409.002 -297.992l92 218l-103 41l-85 -222z" />
    <glyph glyph-name="gcommaaccent" unicode="&#x123;" horiz-adv-x="573" 
d="M415 0c-3.33301 -25.333 -13.667 -45.6631 -31 -60.9961c-14 -11.333 -30.667 -18.166 -50 -20.499s-35.333 -3.5 -48 -3.5h-223v-90h250c9.33301 0 21.5 0.666992 36.5 2s30.833 4.16602 47.5 8.49902s33.334 10.666 50.001 18.999s31 19.833 43 34.5
c17.333 21.333 28.833 46.666 34.5 75.999s8.5 61 8.5 95v372c0 11.333 -1.83301 24.166 -5.5 38.499s-12.167 27.166 -25.5 38.499c-12.667 10 -26.334 16 -41.001 18s-29.667 3 -45 3h-171c-13.333 0 -27 -0.5 -41 -1.5s-28 -3.33301 -42 -7s-27.667 -9.33398 -41 -17.001
s-26.333 -18.5 -39 -32.5c-23.333 -25.333 -38.5 -54.333 -45.5 -87s-10.5 -70 -10.5 -112c0 -94 13.667 -162.333 41 -205c10 -16 21.5 -28.5 34.5 -37.5s26.5 -15.667 40.5 -20s28.167 -7.16602 42.5 -8.49902s28.5 -2 42.5 -2h188zM415.999 90.0029l-139.002 -0.00195312
c-17.333 0 -35 1.33301 -53 4s-33.667 11.667 -47 27c-3.33301 3.33301 -6.66602 8.33301 -9.99902 15s-6.5 15.5 -9.5 26.5s-5.5 24.667 -7.5 41s-3 36.5 -3 60.5c0 6 0.166992 15.167 0.5 27.5s1.5 25.5 3.5 39.5s5.16699 27.833 9.5 41.5s10.5 25.167 18.5 34.5
c9.33301 10.667 22 18.834 38 24.501s33.667 8.5 53 8.5h100c5.33301 0 10.5 -0.5 15.5 -1.5s10.167 -3.16699 15.5 -6.5c6.66699 -4.66699 10.834 -9.66699 12.501 -15s2.5 -11.666 2.5 -18.999v-308zM413.997 629.001l-134 196l-87 -53l126 -201z" />
    <glyph glyph-name="Hcircumflex" unicode="&#x124;" horiz-adv-x="748" 
d="M688 700h-132v-287h-364v287h-132v-700h132v308h364v-308h132v700zM516 740l46 62l-141 113c-7.33301 5.33301 -14.833 9.66602 -22.5 12.999s-16.167 5 -25.5 5s-17.833 -1.66699 -25.5 -5s-15.167 -7.66602 -22.5 -12.999l-140 -113l46 -62l117 97
c4.66699 3.33301 8.83398 5.83301 12.501 7.5s8.16699 2.5 13.5 2.5c6.66699 0 11.667 -0.833008 15 -2.5s6.66602 -4.16699 9.99902 -7.5z" />
    <glyph glyph-name="hcircumflex" unicode="&#x125;" horiz-adv-x="562" 
d="M40 0l117.001 -0.000976562v440h137c11.333 0 25 -1.5 41 -4.5s30.667 -11.833 44 -26.5c6 -6.66699 10.667 -14.167 14 -22.5s6 -16.666 8 -24.999s3.16699 -16.333 3.5 -24s0.5 -14.167 0.5 -19.5v-318h117v349c0 36.667 -5.83301 66.667 -17.5 90
s-24.834 41 -39.501 53c-19.333 15.333 -41.5 25.5 -66.5 30.5s-52.5 7.5 -82.5 7.5h-159v170h-117v-700zM241.001 698.999l46 62l-141 113c-7.33301 5.33301 -14.833 9.66602 -22.5 12.999s-16.167 5 -25.5 5s-17.833 -1.66699 -25.5 -5s-15.167 -7.66602 -22.5 -12.999
l-140 -113l46 -62l117 97c4.66699 3.33301 8.83398 5.83301 12.501 7.5s8.16699 2.5 13.5 2.5c6.66699 0 11.667 -0.833008 15 -2.5s6.66602 -4.16699 9.99902 -7.5z" />
    <glyph glyph-name="Imacron" unicode="&#x12a;" horiz-adv-x="280" 
d="M206 0v700h-132v-700h132zM270 760v84h-260v-84h260z" />
    <glyph glyph-name="imacron" unicode="&#x12b;" horiz-adv-x="221" 
d="M56 0h117v530h-117v-530zM282 600v84h-340v-84h340z" />
    <glyph glyph-name="Iogonek" unicode="&#x12e;" horiz-adv-x="265" 
d="M196 700h-132v-700h52l-46 -88c-6.66699 -12 -10 -24.333 -10 -37c0 -8 1.33301 -15.833 4 -23.5s7 -14.167 13 -19.5s12.667 -8.66602 20 -9.99902s14.333 -2 21 -2h87v60h-42c-3.33301 0 -8 0.5 -14 1.5s-9 4.83301 -9 11.5c0 1.33301 0.5 3.16602 1.5 5.49902
s3.16699 6.83301 6.5 13.5l48 88v700z" />
    <glyph glyph-name="iogonek" unicode="&#x12f;" horiz-adv-x="225" 
d="M176 530h-117v-530h37l-46 -88c-6.66699 -12 -10 -24.333 -10 -37c0 -8 1.33301 -15.833 4 -23.5s7 -14.167 13 -19.5s12.667 -8.66602 20 -9.99902s14.333 -2 21 -2h87v60h-42c-3.33301 0 -8 0.5 -14 1.5s-9 4.83301 -9 11.5c0 1.33301 0.5 3.16602 1.5 5.49902
s3.16699 6.83301 6.5 13.5l48 88v530zM176 607v93h-117v-93h117z" />
    <glyph glyph-name="Idotaccent" unicode="&#x130;" horiz-adv-x="252" 
d="M192 0v700h-132v-700h132zM192 760v116h-132v-116h132z" />
    <glyph glyph-name="dotlessi" unicode="&#x131;" horiz-adv-x="197" 
d="M40 0h117v530h-117v-530z" />
    <glyph glyph-name="Jcircumflex" unicode="&#x134;" horiz-adv-x="445" 
d="M-20 0l179.002 0.00195312c21.333 0 40.666 2 57.999 6s32.833 9.16699 46.5 15.5s25.667 13.5 36 21.5s19.166 15.667 26.499 23c5.33301 5.33301 11.5 12.666 18.5 21.999s13.5 21.166 19.5 35.499s11 31.5 15 51.5s6 43.333 6 70v455h-132v-420
c0 -30 -2.66699 -56.667 -8 -80s-17.666 -43.333 -36.999 -60c-17.333 -15.333 -36.833 -25 -58.5 -29s-39.834 -6 -54.501 -6h-115v-105zM450.002 740.002l46 62l-141 113c-7.33301 5.33301 -14.833 9.66602 -22.5 12.999s-16.167 5 -25.5 5s-17.833 -1.66699 -25.5 -5
s-15.167 -7.66602 -22.5 -12.999l-140 -113l46 -62l117 97c4.66699 3.33301 8.83398 5.83301 12.501 7.5s8.16699 2.5 13.5 2.5c6.66699 0 11.667 -0.833008 15 -2.5s6.66602 -4.16699 9.99902 -7.5z" />
    <glyph glyph-name="Kcommaaccent" unicode="&#x136;" horiz-adv-x="700" 
d="M730 0l-331 295c-9.33301 8.66699 -18.5 18 -27.5 28s-13.5 22.667 -13.5 38c0 12 3.5 21.833 10.5 29.5s14.5 15.167 22.5 22.5l302 287h-163l-265 -262c-9.33301 -9.33301 -17.333 -21.333 -24 -36s-10 -28.667 -10 -42c0 -12 3 -26.167 9 -42.5s17.667 -32.5 35 -48.5
l288 -269h167zM60 0h132v700h-132v-700zM327 -289l92 218l-103 41l-85 -222z" />
    <glyph glyph-name="kcommaaccent" unicode="&#x137;" horiz-adv-x="537" 
d="M551 0l-216.999 229c-6.66699 7.33301 -12.5 15.166 -17.5 23.499s-7.5 16.833 -7.5 25.5s1.66699 15.834 5 21.501s7.33301 11.167 12 16.5l199 214h-136l-160 -176c-7.33301 -8.66699 -15.333 -19.167 -24 -31.5s-13 -28.5 -13 -48.5
c0 -18.667 4.16699 -34.667 12.5 -48s16.166 -24 23.499 -32l183 -194h140zM157.001 0v700h-117v-700h117zM245.001 -279l92 218l-103 41l-85 -222z" />
    <glyph glyph-name="Lacute" unicode="&#x139;" horiz-adv-x="598" 
d="M618 0v104.999h-384c-10.667 0 -18.334 1 -23.001 3s-8 3.66699 -10 5c-5.33301 4.66699 -8.16602 9.83398 -8.49902 15.501s-0.5 10.5 -0.5 14.5v557h-132v-624c0 -15.333 2.83301 -27.666 8.5 -36.999s11.167 -16.333 16.5 -21c8 -6.66699 18 -11.334 30 -14.001
s23.667 -4 35 -4h468zM349 946.999l-161 -133l59 -74l162 132z" />
    <glyph glyph-name="lacute" unicode="&#x13a;" horiz-adv-x="197" 
d="M40 0h117v700h-117v-700zM150 934l-161 -133l59 -74l162 132z" />
    <glyph glyph-name="Lcommaaccent" unicode="&#x13b;" horiz-adv-x="598" 
d="M618 0v104.999h-384c-10.667 0 -18.334 1 -23.001 3s-8 3.66699 -10 5c-5.33301 4.66699 -8.16602 9.83398 -8.49902 15.501s-0.5 10.5 -0.5 14.5v557h-132v-624c0 -15.333 2.83301 -27.666 8.5 -36.999s11.167 -16.333 16.5 -21c8 -6.66699 18 -11.334 30 -14.001
s23.667 -4 35 -4h468zM335 -289.001l92 218l-103 41l-85 -222z" />
    <glyph glyph-name="lcommaaccent" unicode="&#x13c;" horiz-adv-x="197" 
d="M40 0h117v700h-117v-700zM94 -279l92 218l-103 41l-85 -222z" />
    <glyph glyph-name="Lcaron" unicode="&#x13d;" horiz-adv-x="598" 
d="M618 0v104.999h-384c-10.667 0 -18.334 1 -23.001 3s-8 3.66699 -10 5c-5.33301 4.66699 -8.16602 9.83398 -8.49902 15.501s-0.5 10.5 -0.5 14.5v557h-132v-624c0 -15.333 2.83301 -27.666 8.5 -36.999s11.167 -16.333 16.5 -21c8 -6.66699 18 -11.334 30 -14.001
s23.667 -4 35 -4h468zM441 444.999l92 218l-103 41l-85 -222z" />
    <glyph glyph-name="lcaron" unicode="&#x13e;" horiz-adv-x="197" 
d="M40 0h117v700h-117v-700zM262 440l92 218l-103 41l-85 -222z" />
    <glyph glyph-name="Lslash" unicode="&#x141;" horiz-adv-x="693" 
d="M663 0v105.001h-388c-4.66699 0 -9.5 0.166992 -14.5 0.5s-9.83301 2.5 -14.5 6.5c-8 6.66699 -12 16.667 -12 30v190l231 175l-37 49l-194 -147v291h-131v-386l-103 -78l37 -49l66 49v-145c0 -12.667 2 -25.334 6 -38.001s10 -23 18 -31c10 -10 21.5 -16.167 34.5 -18.5
s25.5 -3.5 37.5 -3.5h464z" />
    <glyph glyph-name="lslash" unicode="&#x142;" horiz-adv-x="338" 
d="M103 0h117v355l128 99l-40 51l-88 -68v263h-117v-354l-103 -80l39 -51l64 49v-264z" />
    <glyph glyph-name="Nacute" unicode="&#x143;" horiz-adv-x="790" 
d="M730 700l-127.996 0.000976562v-516c0 -2.66699 -0.5 -6.16699 -1.5 -10.5s-4.16699 -6.5 -9.5 -6.5c-4.66699 0 -7.83398 2 -9.50098 6s-3.83398 7.66699 -6.50098 11l-297 469c-9.33301 15.333 -22.333 28.333 -39 39s-40.667 16 -72 16
c-33.333 0 -59.5 -8.33301 -78.5 -25s-28.5 -40 -28.5 -70v-613h128v514c0 7.33301 1.66699 12.5 5 15.5s6.33301 4.5 9 4.5c1.33301 0 3 -1 5 -3s5.66699 -6.66699 11 -14l295 -466c15.333 -24.667 32.666 -40.667 51.999 -48s39.666 -11 60.999 -11
c28.667 0 53.167 7.66699 73.5 23s30.5 40.666 30.5 75.999v609zM464.004 947.001l-161 -133l59 -74l162 132z" />
    <glyph glyph-name="nacute" unicode="&#x144;" horiz-adv-x="565" 
d="M40 0l117.003 0.00195312v412c0 3.33301 0.166992 7 0.5 11s2.16602 7.66699 5.49902 11s6.66602 5.16602 9.99902 5.49902s6.66602 0.5 9.99902 0.5h119c21.333 0 38.5 -2.5 51.5 -7.5s23.833 -13.167 32.5 -24.5c9.33301 -12.667 15.333 -27.167 18 -43.5
s4 -33.166 4 -50.499v-314h117v349c0 36.667 -5.16699 65.667 -15.5 87s-22.5 38.333 -36.5 51c-21.333 19.333 -44.333 31.333 -69 36s-51 7 -79 7h-187c-11.333 0 -24.833 -0.833008 -40.5 -2.5s-29.167 -8.83398 -40.5 -21.501
c-8 -8.66699 -12.833 -18.334 -14.5 -29.001s-2.5 -20 -2.5 -28v-449zM333.003 767.002l-161 -133l59 -74l162 132z" />
    <glyph glyph-name="Ncommaaccent" unicode="&#x145;" horiz-adv-x="790" 
d="M730 700l-127.996 0.000976562v-516c0 -2.66699 -0.5 -6.16699 -1.5 -10.5s-4.16699 -6.5 -9.5 -6.5c-4.66699 0 -7.83398 2 -9.50098 6s-3.83398 7.66699 -6.50098 11l-297 469c-9.33301 15.333 -22.333 28.333 -39 39s-40.667 16 -72 16
c-33.333 0 -59.5 -8.33301 -78.5 -25s-28.5 -40 -28.5 -70v-613h128v514c0 7.33301 1.66699 12.5 5 15.5s6.33301 4.5 9 4.5c1.33301 0 3 -1 5 -3s5.66699 -6.66699 11 -14l295 -466c15.333 -24.667 32.666 -40.667 51.999 -48s39.666 -11 60.999 -11
c28.667 0 53.167 7.66699 73.5 23s30.5 40.666 30.5 75.999v609zM372.004 -288.999l92 218l-103 41l-85 -222z" />
    <glyph glyph-name="ncommaaccent" unicode="&#x146;" horiz-adv-x="565" 
d="M40 0l117.003 0.00195312v412c0 3.33301 0.166992 7 0.5 11s2.16602 7.66699 5.49902 11s6.66602 5.16602 9.99902 5.49902s6.66602 0.5 9.99902 0.5h119c21.333 0 38.5 -2.5 51.5 -7.5s23.833 -13.167 32.5 -24.5c9.33301 -12.667 15.333 -27.167 18 -43.5
s4 -33.166 4 -50.499v-314h117v349c0 36.667 -5.16699 65.667 -15.5 87s-22.5 38.333 -36.5 51c-21.333 19.333 -44.333 31.333 -69 36s-51 7 -79 7h-187c-11.333 0 -24.833 -0.833008 -40.5 -2.5s-29.167 -8.83398 -40.5 -21.501
c-8 -8.66699 -12.833 -18.334 -14.5 -29.001s-2.5 -20 -2.5 -28v-449zM265.003 -278.998l92 218l-103 41l-85 -222z" />
    <glyph glyph-name="Ncaron" unicode="&#x147;" horiz-adv-x="790" 
d="M730 700l-127.996 0.000976562v-516c0 -2.66699 -0.5 -6.16699 -1.5 -10.5s-4.16699 -6.5 -9.5 -6.5c-4.66699 0 -7.83398 2 -9.50098 6s-3.83398 7.66699 -6.50098 11l-297 469c-9.33301 15.333 -22.333 28.333 -39 39s-40.667 16 -72 16
c-33.333 0 -59.5 -8.33301 -78.5 -25s-28.5 -40 -28.5 -70v-613h128v514c0 7.33301 1.66699 12.5 5 15.5s6.33301 4.5 9 4.5c1.33301 0 3 -1 5 -3s5.66699 -6.66699 11 -14l295 -466c15.333 -24.667 32.666 -40.667 51.999 -48s39.666 -11 60.999 -11
c28.667 0 53.167 7.66699 73.5 23s30.5 40.666 30.5 75.999v609zM549.004 923.001l-117 -95.002c-4 -3.33301 -7.66699 -6.16602 -11 -8.49902s-8 -3.5 -14 -3.5s-11 1.33301 -15 4s-7.66699 5.33398 -11 8.00098l-117 95l-46 -62l140 -113
c7.33301 -5.33301 14.833 -9.66602 22.5 -12.999s16.167 -5 25.5 -5s17.833 1.66699 25.5 5s15.167 7.66602 22.5 12.999l141 113z" />
    <glyph glyph-name="ncaron" unicode="&#x148;" horiz-adv-x="565" 
d="M40 0l117.003 0.00195312v412c0 3.33301 0.166992 7 0.5 11s2.16602 7.66699 5.49902 11s6.66602 5.16602 9.99902 5.49902s6.66602 0.5 9.99902 0.5h119c21.333 0 38.5 -2.5 51.5 -7.5s23.833 -13.167 32.5 -24.5c9.33301 -12.667 15.333 -27.167 18 -43.5
s4 -33.166 4 -50.499v-314h117v349c0 36.667 -5.16699 65.667 -15.5 87s-22.5 38.333 -36.5 51c-21.333 19.333 -44.333 31.333 -69 36s-51 7 -79 7h-187c-11.333 0 -24.833 -0.833008 -40.5 -2.5s-29.167 -8.83398 -40.5 -21.501
c-8 -8.66699 -12.833 -18.334 -14.5 -29.001s-2.5 -20 -2.5 -28v-449zM412.003 759.002l-117 -95.002c-4 -3.33301 -7.66699 -6.16602 -11 -8.49902s-8 -3.5 -14 -3.5s-11 1.33301 -15 4s-7.66699 5.33398 -11 8.00098l-117 95l-46 -62l140 -113
c7.33301 -5.33301 14.833 -9.66602 22.5 -12.999s16.167 -5 25.5 -5s17.833 1.66699 25.5 5s15.167 7.66602 22.5 12.999l141 113z" />
    <glyph glyph-name="Omacron" unicode="&#x14c;" horiz-adv-x="799" 
d="M400 708c-21.333 0 -44.166 -0.327148 -68.499 -0.994141s-48.833 -3.33398 -73.5 -8.00098s-48.834 -12 -72.501 -22s-45.167 -24.333 -64.5 -43c-19.333 -18 -34.333 -38.5 -45 -61.5s-18.667 -47 -24 -72s-8.66602 -50.333 -9.99902 -76s-2 -50.5 -2 -74.5
c0 -20 0.5 -42.333 1.5 -67s4 -49.834 9 -75.501s13 -50.834 24 -75.501s26.5 -46.667 46.5 -66c19.333 -18.667 40.833 -33 64.5 -43s48 -17.333 73 -22s49.667 -7.33398 74 -8.00098s46.833 -1 67.5 -1c20 0 42.333 0.333008 67 1s49.5 3.33398 74.5 8.00098
s49.333 12 73 22s45.167 24.333 64.5 43c18 17.333 32.333 37.666 43 60.999s18.667 47.666 24 72.999s8.83301 50.833 10.5 76.5s2.5 50.167 2.5 73.5c0 22.667 -0.666992 47 -2 73s-4.83301 51.667 -10.5 77s-13.834 49.666 -24.501 72.999s-25 43.666 -43 60.999
c-19.333 18.667 -40.833 33 -64.5 43s-48 17.333 -73 22s-49.667 7.33398 -74 8.00098s-46.833 1 -67.5 1zM176 350.006c0 54 3.83203 95.833 11.499 125.5s18.167 53.167 31.5 70.5c20.667 25.333 46.667 41.166 78 47.499s65.333 9.5 102 9.5c36 0 70 -3.16699 102 -9.5
s58.333 -22.166 79 -47.499c5.33301 -6.66699 10.666 -15 15.999 -25s10 -22.667 14 -38s7.16699 -33.833 9.5 -55.5s3.5 -47.5 3.5 -77.5c0 -28 -1.16699 -52.667 -3.5 -74s-5.5 -39.666 -9.5 -54.999s-8.5 -28.333 -13.5 -39s-10.5 -19.667 -16.5 -27
c-10.667 -13.333 -22.667 -23.833 -36 -31.5s-27.833 -13.5 -43.5 -17.5s-32 -6.5 -49 -7.5s-34.5 -1.5 -52.5 -1.5s-35.667 0.5 -53 1.5s-33.666 3.5 -48.999 7.5s-29.666 9.83301 -42.999 17.5s-25 18.167 -35 31.5c-6 7.33301 -11.5 16.166 -16.5 26.499
s-9.5 23.333 -13.5 39s-7.16699 34 -9.5 55s-3.5 45.833 -3.5 74.5zM568.999 759.006v84h-340v-84h340z" />
    <glyph glyph-name="omacron" unicode="&#x14d;" horiz-adv-x="616" 
d="M308 536c-16 0 -33.333 -0.332031 -52 -0.999023s-37.667 -2.83398 -57 -6.50098s-38 -9.33398 -56 -17.001s-34.333 -18.167 -49 -31.5c-15.333 -14 -27.5 -30.5 -36.5 -49.5s-15.833 -38.333 -20.5 -58s-7.66699 -39.167 -9 -58.5s-2 -36.333 -2 -51
c0 -13.333 0.666992 -29.166 2 -47.499s4.16602 -37.333 8.49902 -57s11 -38.834 20 -57.501s21.5 -35.334 37.5 -50.001c14.667 -13.333 31 -23.833 49 -31.5s36.667 -13.334 56 -17.001s38.333 -6 57 -7s36 -1.5 52 -1.5c15.333 0 32.333 0.5 51 1.5
s37.834 3.33301 57.501 7s38.667 9.33398 57 17.001s34.5 18.167 48.5 31.5c19.333 18.667 35.5 45.167 48.5 79.5s19.5 79.833 19.5 136.5c0 14 -0.666992 30.333 -2 49s-4.33301 37.667 -9 57s-11.5 38.5 -20.5 57.5s-21.167 35.5 -36.5 49.5
c-14.667 13.333 -31 23.833 -49 31.5s-36.667 13.334 -56 17.001s-38.333 5.83398 -57 6.50098s-36 1 -52 1zM147 264.001c0 8.66699 0.166016 19 0.499023 31s1.5 24.5 3.5 37.5s5.33301 25.833 10 38.5s11 23.667 19 33s17.5 16.833 28.5 22.5s22.167 10 33.5 13
s22.833 4.83301 34.5 5.5s22.167 1 31.5 1c10.667 0 21.667 -0.333008 33 -1s22.5 -2.5 33.5 -5.5s21.667 -7.33301 32 -13s19.833 -13.167 28.5 -22.5c9.33301 -10 16.333 -21.167 21 -33.5s8 -24.833 10 -37.5s3 -25 3 -37v-32c0 -23.333 -1.5 -47 -4.5 -71
s-13.167 -45.667 -30.5 -65s-37.166 -31.5 -59.499 -36.5s-44.5 -7.5 -66.5 -7.5c-21.333 0 -43.5 2.5 -66.5 7.5s-43.167 17.167 -60.5 36.5c-16.667 19.333 -26.5 41.333 -29.5 66s-4.5 48 -4.5 70zM477.999 600.001v84h-340v-84h340z" />
    </font>
</defs>
</svg>
